<svg width="735" height="507" viewBox="0 0 735 507" fill="none" xmlns="http://www.w3.org/2000/svg">
<g clip-path="url(#clip0)">
<path d="M713.269 148.572H311.068C305.407 148.577 299.979 150.746 295.975 154.603C291.972 158.46 289.721 163.689 289.716 169.144V231.943C289.721 237.398 291.972 242.627 295.975 246.484C299.979 250.341 305.407 252.51 311.068 252.515H713.269C718.931 252.51 724.359 250.341 728.362 246.484C732.366 242.627 734.617 237.398 734.622 231.943V169.144C734.617 163.689 732.366 158.46 728.362 154.603C724.359 150.746 718.931 148.577 713.269 148.572V148.572Z" fill="#F2F2F2"/>
<path d="M161.293 507H1.28011C0.940601 507 0.614981 506.87 0.374914 506.639C0.134848 506.407 0 506.094 0 505.767C0 505.44 0.134848 505.126 0.374914 504.895C0.614981 504.663 0.940601 504.533 1.28011 504.533H161.293C161.633 504.533 161.959 504.663 162.199 504.895C162.439 505.126 162.574 505.44 162.574 505.767C162.574 506.094 162.439 506.407 162.199 506.639C161.959 506.87 161.633 507 161.293 507Z" fill="#3F3D56"/>
<path d="M137.799 120.839C136.315 121.741 135.055 122.946 134.106 124.369C133.158 125.792 132.545 127.397 132.31 129.073C132.076 130.748 132.225 132.453 132.749 134.067C133.272 135.68 134.156 137.164 135.339 138.413L123.706 162.347L137.077 172.705L153.013 138.684C155.059 136.631 156.252 133.925 156.366 131.081C156.481 128.237 155.508 125.451 153.633 123.251C151.758 121.051 149.11 119.591 146.192 119.146C143.273 118.702 140.287 119.304 137.799 120.839V120.839Z" fill="#FFB8B8"/>
<path d="M70.9497 130.551C74.6312 128.421 79.0228 127.737 83.2135 128.642C87.4042 129.547 91.0725 131.972 93.4577 135.413L117.261 169.751L125.525 152.199C126.041 151.103 126.955 150.227 128.095 149.735C129.235 149.243 130.522 149.169 131.715 149.528L144.187 153.282C144.839 153.478 145.443 153.798 145.964 154.222C146.486 154.646 146.914 155.167 147.224 155.753C147.533 156.339 147.718 156.979 147.767 157.635C147.817 158.291 147.729 158.95 147.51 159.573L138.972 183.863C137.892 186.935 136.088 189.725 133.701 192.012C131.313 194.3 128.408 196.023 125.213 197.047C122.018 198.071 118.621 198.367 115.287 197.913C111.953 197.459 108.774 196.266 105.999 194.429C104.702 193.571 103.506 192.579 102.431 191.473L67.3524 155.362C65.649 153.608 64.3743 151.51 63.6215 149.22C62.8688 146.93 62.657 144.508 63.0019 142.129C63.3468 139.75 64.2395 137.476 65.6147 135.473C66.9899 133.47 68.8127 131.788 70.9497 130.551Z" fill="#63FF98"/>
<path d="M147.952 95.0709C148.591 95.0862 149.197 95.3454 149.638 95.7915C150.078 96.2375 150.317 96.8339 150.301 97.4495L150.096 105.42L150.511 105.456L150.362 110.87L149.956 110.821L149.22 139.376C149.195 140.353 148.802 141.288 148.114 142.006C147.425 142.725 146.489 143.177 145.48 143.28L126.635 145.191C126.176 145.238 125.712 145.187 125.276 145.043C124.839 144.898 124.441 144.664 124.109 144.355C123.777 144.047 123.518 143.672 123.352 143.257C123.186 142.843 123.116 142.398 123.147 141.954L126.006 101.295C126.066 100.441 126.426 99.6321 127.026 99.0013C127.626 98.3704 128.432 97.9552 129.31 97.8238L147.503 95.1007C147.651 95.0773 147.802 95.0673 147.952 95.0709V95.0709Z" fill="#3F3D56"/>
<path d="M133.367 99.3027L142.931 97.8712C143.103 97.8454 143.262 97.7657 143.382 97.6444C143.503 97.523 143.578 97.3668 143.597 97.2V97.2C143.619 97.011 143.704 96.8341 143.84 96.6966C143.977 96.5592 144.156 96.4689 144.351 96.4397L146.366 96.1382C146.641 96.097 146.922 96.1145 147.189 96.1894C147.456 96.2643 147.703 96.3947 147.912 96.5715C148.121 96.7483 148.287 96.9672 148.399 97.2127C148.511 97.4581 148.565 97.7242 148.558 97.9922L147.523 139.391C147.51 139.905 147.301 140.396 146.936 140.771C146.572 141.146 146.076 141.378 145.545 141.424L126.713 143.037C126.473 143.058 126.231 143.028 126.004 142.95C125.777 142.872 125.569 142.748 125.397 142.586C125.224 142.424 125.089 142.228 125.002 142.012C124.915 141.795 124.877 141.563 124.892 141.331L127.433 101.047C127.47 100.453 127.717 99.89 128.133 99.4504C128.549 99.0107 129.108 98.7212 129.718 98.6299L131.841 98.3121C131.919 98.632 132.12 98.9118 132.403 99.0954C132.686 99.2791 133.03 99.3531 133.367 99.3027V99.3027Z" fill="white"/>
<path d="M88.9956 492.029L103.63 492.028L110.59 437.643L88.9905 437.646L88.9956 492.029Z" fill="#FFB8B8"/>
<path d="M131.854 505.118L85.8605 505.122L85.8589 488.002L114.082 487.999C116.416 487.999 118.727 488.442 120.883 489.302C123.039 490.162 124.998 491.423 126.648 493.013C128.299 494.602 129.608 496.49 130.501 498.567C131.394 500.644 131.854 502.87 131.854 505.118V505.118L131.854 505.118Z" fill="#2F2E41"/>
<path d="M44.0178 492.029L58.6519 492.028L65.6119 437.643L44.0126 437.646L44.0178 492.029Z" fill="#FFB8B8"/>
<path d="M86.877 505.118L40.883 505.122L40.8814 488.002L69.105 487.999C73.818 487.999 78.3381 489.802 81.671 493.013C85.0039 496.223 86.8765 500.578 86.877 505.118L86.877 505.118Z" fill="#2F2E41"/>
<path d="M86.877 112.068C104.241 112.068 118.318 98.506 118.318 81.7764C118.318 65.0467 104.241 51.4847 86.877 51.4847C69.5127 51.4847 55.4362 65.0467 55.4362 81.7764C55.4362 98.506 69.5127 112.068 86.877 112.068Z" fill="#FFB8B8"/>
<path d="M103.058 162.821C102.801 155.033 100.526 147.431 96.4386 140.707C92.3515 133.984 86.5828 128.352 79.6584 124.326C71.5357 119.715 62.6448 117.917 55.5713 124.731C51.324 128.926 47.9226 133.845 45.5404 139.237C38.9972 153.93 38.5692 170.485 44.3448 185.475L61.1802 230.286L100.146 234.353C100.878 234.429 101.618 234.353 102.316 234.128C103.015 233.904 103.655 233.537 104.193 233.053C104.731 232.569 105.154 231.979 105.434 231.323C105.713 230.667 105.843 229.96 105.813 229.251L103.058 162.821Z" fill="#686868"/>
<path d="M63.6507 224.768C63.6507 224.768 34.5394 235.238 42.1505 279.575C48.9803 319.36 43.5527 451.413 42.3664 478.107C42.31 479.379 42.7668 480.623 43.6412 481.578C44.5157 482.533 45.7398 483.125 47.0571 483.23L64.0505 484.594C65.3815 484.701 66.7032 484.302 67.7336 483.484C68.764 482.665 69.4216 481.491 69.5661 480.212L78.3425 402.545C78.3769 402.24 78.5279 401.958 78.7661 401.755C79.0043 401.552 79.3124 401.441 79.6306 401.445C79.9488 401.449 80.2542 401.566 80.4871 401.775C80.72 401.984 80.8639 402.269 80.8906 402.575L87.4303 477.308C87.5405 478.567 88.148 479.738 89.1274 480.578C90.1069 481.418 91.3837 481.865 92.6946 481.825L106.968 481.389C107.641 481.369 108.302 481.221 108.916 480.954C109.529 480.687 110.081 480.306 110.542 479.833C111.002 479.36 111.361 478.804 111.598 478.197C111.835 477.59 111.946 476.945 111.924 476.297L103.516 229.946L63.6507 224.768Z" fill="#2F2E41"/>
<path d="M93.187 79.7806C103.702 83.9356 117.131 79.082 122.215 69.2888C127.298 59.4956 123.275 46.2322 113.517 40.6182C103.759 35.0041 89.7316 37.8817 83.1939 46.8385C77.8758 37.6076 63.9438 35.2543 54.3783 40.405C44.8128 45.5557 39.6025 56.3444 38.9846 66.8852C38.3666 77.426 41.6928 87.8101 45.7504 97.6173C52.3137 113.481 73.4429 122.023 89.7902 115.421C82.3064 104.682 83.7838 88.9666 93.187 79.7806Z" fill="#2F2E41"/>
<path d="M135.56 124.512C135.28 124.512 135.008 124.425 134.784 124.263L134.77 124.253L131.847 122.099C131.711 121.999 131.598 121.874 131.512 121.732C131.427 121.589 131.372 121.432 131.349 121.269C131.327 121.106 131.338 120.941 131.382 120.782C131.426 120.623 131.502 120.474 131.606 120.344C131.71 120.214 131.839 120.104 131.987 120.022C132.135 119.94 132.298 119.886 132.467 119.865C132.636 119.843 132.808 119.854 132.973 119.896C133.138 119.939 133.292 120.012 133.428 120.112L135.321 121.511L139.795 115.887C139.899 115.757 140.028 115.647 140.176 115.565C140.324 115.483 140.487 115.43 140.656 115.408C140.825 115.386 140.997 115.397 141.161 115.44C141.326 115.482 141.481 115.555 141.616 115.655L141.616 115.656L141.589 115.693L141.617 115.656C141.89 115.858 142.069 116.156 142.114 116.485C142.159 116.814 142.066 117.147 141.857 117.41L136.594 124.022C136.473 124.174 136.316 124.298 136.137 124.382C135.958 124.467 135.761 124.511 135.561 124.51L135.56 124.512Z" fill="#63FF98"/>
<path d="M713.648 0H311.446C305.785 0.00494089 300.357 2.17396 296.353 6.03093C292.35 9.88789 290.099 15.1176 290.094 20.5722V83.3715C290.099 88.8261 292.35 94.0558 296.353 97.9128C300.357 101.77 305.785 103.939 311.446 103.944H713.648C719.309 103.939 724.737 101.77 728.74 97.9128C732.744 94.0558 734.995 88.8261 735 83.3715V20.5722C734.995 15.1176 732.744 9.88787 728.74 6.03091C724.737 2.17395 719.309 0.00494089 713.648 0ZM732.752 83.3715C732.745 88.2511 730.73 92.929 727.149 96.3794C723.567 99.8298 718.712 101.771 713.648 101.778H311.446C306.381 101.771 301.526 99.8298 297.945 96.3794C294.363 92.929 292.348 88.2511 292.341 83.3715V20.5722C292.348 15.6926 294.364 11.0148 297.945 7.56432C301.526 4.11389 306.381 2.17239 311.446 2.16548H713.648C718.712 2.17239 723.567 4.11389 727.149 7.56432C730.73 11.0148 732.745 15.6926 732.752 20.5722V83.3715Z" fill="#3F3D56"/>
<path d="M393.295 87.7779C385.944 87.778 378.759 85.678 372.647 81.7437C366.535 77.8093 361.772 72.2171 358.959 65.6744C356.146 59.1317 355.41 51.9323 356.844 44.9866C358.278 38.0409 361.818 31.6608 367.015 26.6532C372.213 21.6456 378.835 18.2354 386.044 16.8537C393.253 15.4721 400.726 16.1812 407.516 18.8913C414.307 21.6014 420.112 26.1907 424.195 32.079C428.279 37.9673 430.459 44.89 430.459 51.9718C430.448 61.4648 426.528 70.566 419.561 77.2786C412.594 83.9912 403.148 87.7671 393.295 87.7779V87.7779Z" fill="#11F428"/>
<path d="M658.771 81.206H465.6C463.215 81.206 460.928 80.2934 459.242 78.669C457.556 77.0446 456.609 74.8414 456.609 72.5441C456.609 70.2468 457.556 68.0436 459.242 66.4191C460.928 64.7947 463.215 63.8821 465.6 63.8821H658.771C661.155 63.8821 663.442 64.7947 665.128 66.4191C666.814 68.0436 667.761 70.2468 667.761 72.5441C667.761 74.8414 666.814 77.0446 665.128 78.669C663.442 80.2934 661.155 81.206 658.771 81.206V81.206Z" fill="#CCCCCC"/>
<path d="M529.531 44.3926H465.6C463.215 44.3926 460.928 43.48 459.242 41.8555C457.556 40.2311 456.609 38.0279 456.609 35.7306C456.609 33.4333 457.556 31.2301 459.242 29.6057C460.928 27.9812 463.215 27.0686 465.6 27.0686H529.531C531.916 27.0686 534.203 27.9812 535.889 29.6057C537.575 31.2301 538.522 33.4333 538.522 35.7306C538.522 38.0279 537.575 40.2311 535.889 41.8555C534.203 43.48 531.916 44.3926 529.531 44.3926V44.3926Z" fill="#CCCCCC"/>
<path d="M391.396 64.5666C390.474 64.5681 389.577 64.2807 388.839 63.7477L388.793 63.7147L379.161 56.6154C378.714 56.2863 378.338 55.8754 378.056 55.4063C377.774 54.9373 377.591 54.4192 377.516 53.8818C377.442 53.3443 377.479 52.7981 377.624 52.2743C377.769 51.7505 378.02 51.2594 378.363 50.8292C378.705 50.3989 379.132 50.0379 379.619 49.7668C380.107 49.4958 380.645 49.3199 381.203 49.2493C381.761 49.1788 382.327 49.2149 382.871 49.3556C383.414 49.4963 383.924 49.7389 384.37 50.0695L390.609 54.6791L405.352 36.1476C405.694 35.7179 406.121 35.3574 406.607 35.0865C407.094 34.8156 407.631 34.6397 408.188 34.5688C408.745 34.4979 409.311 34.5334 409.854 34.6733C410.397 34.8132 410.905 35.0547 411.351 35.3841L411.353 35.385L411.261 35.5074L411.355 35.385C412.255 36.0512 412.843 37.034 412.992 38.1178C413.14 39.2016 412.836 40.2979 412.147 41.166L394.805 62.9534C394.404 63.4554 393.888 63.8616 393.298 64.1405C392.707 64.4195 392.058 64.5636 391.4 64.5617L391.396 64.5666Z" fill="white"/>
<path d="M540.833 168.965H138.632C132.97 168.97 127.542 171.139 123.539 174.996C119.536 178.853 117.284 184.083 117.279 189.537V252.337C117.284 257.791 119.536 263.021 123.539 266.878C127.542 270.735 132.97 272.904 138.632 272.909H540.833C546.495 272.904 551.923 270.735 555.926 266.878C559.929 263.021 562.18 257.791 562.186 252.337V189.537C562.18 184.083 559.929 178.853 555.926 174.996C551.923 171.139 546.495 168.97 540.833 168.965V168.965Z" fill="white"/>
<path d="M540.833 168.965H138.632C132.97 168.97 127.542 171.139 123.539 174.996C119.536 178.853 117.284 184.083 117.279 189.537V252.337C117.284 257.791 119.536 263.021 123.539 266.878C127.542 270.735 132.97 272.904 138.632 272.909H540.833C546.495 272.904 551.923 270.735 555.926 266.878C559.929 263.021 562.18 257.791 562.186 252.337V189.537C562.18 184.083 559.929 178.853 555.926 174.996C551.923 171.139 546.495 168.97 540.833 168.965V168.965ZM559.938 252.337C559.931 257.216 557.916 261.894 554.334 265.345C550.753 268.795 545.898 270.737 540.833 270.743H138.632C133.567 270.737 128.712 268.795 125.13 265.345C121.549 261.894 119.534 257.216 119.527 252.337V189.537C119.534 184.658 121.549 179.98 125.13 176.53C128.712 173.079 133.567 171.138 138.632 171.131H540.833C545.898 171.138 550.753 173.079 554.334 176.53C557.916 179.98 559.931 184.658 559.938 189.537V252.337Z" fill="#3F3D56"/>
<path d="M220.48 256.743C213.13 256.743 205.944 254.643 199.833 250.709C193.721 246.774 188.958 241.182 186.145 234.64C183.332 228.097 182.596 220.898 184.03 213.952C185.464 207.006 189.003 200.626 194.201 195.618C199.398 190.611 206.02 187.201 213.229 185.819C220.439 184.437 227.911 185.146 234.702 187.856C241.493 190.567 247.297 195.156 251.381 201.044C255.465 206.933 257.644 213.855 257.644 220.937C257.633 230.43 253.714 239.531 246.747 246.244C239.78 252.956 230.333 256.732 220.48 256.743V256.743Z" fill="#11F428"/>
<path d="M485.956 250.171H292.785C290.401 250.171 288.114 249.259 286.428 247.634C284.742 246.01 283.795 243.807 283.795 241.509C283.795 239.212 284.742 237.009 286.428 235.384C288.114 233.76 290.401 232.847 292.785 232.847H485.956C488.341 232.847 490.627 233.76 492.313 235.384C494 237.009 494.947 239.212 494.947 241.509C494.947 243.807 494 246.01 492.313 247.634C490.627 249.259 488.341 250.171 485.956 250.171V250.171Z" fill="#CCCCCC"/>
<path d="M356.717 213.358H292.785C291.604 213.358 290.435 213.134 289.345 212.698C288.254 212.263 287.263 211.625 286.428 210.821C285.593 210.016 284.931 209.062 284.479 208.011C284.027 206.96 283.795 205.833 283.795 204.696C283.795 203.558 284.027 202.432 284.479 201.381C284.931 200.33 285.593 199.375 286.428 198.571C287.263 197.767 288.254 197.129 289.345 196.693C290.435 196.258 291.604 196.034 292.785 196.034H356.717C359.101 196.034 361.388 196.947 363.074 198.571C364.76 200.195 365.708 202.399 365.708 204.696C365.708 206.993 364.76 209.196 363.074 210.821C361.388 212.445 359.101 213.358 356.717 213.358V213.358Z" fill="#CCCCCC"/>
<path d="M218.582 233.532C217.66 233.533 216.762 233.246 216.025 232.713L215.979 232.68L206.346 225.581C205.899 225.251 205.524 224.841 205.242 224.372C204.96 223.903 204.776 223.384 204.702 222.847C204.628 222.31 204.665 221.763 204.81 221.24C204.955 220.716 205.206 220.225 205.548 219.794C205.891 219.364 206.318 219.003 206.805 218.732C207.292 218.461 207.83 218.285 208.388 218.215C208.946 218.144 209.513 218.18 210.057 218.321C210.6 218.462 211.109 218.704 211.555 219.035L217.794 223.644L232.538 205.113C232.88 204.683 233.306 204.323 233.793 204.052C234.279 203.781 234.816 203.605 235.373 203.534C235.93 203.463 236.496 203.499 237.039 203.639C237.582 203.778 238.091 204.02 238.537 204.349L238.538 204.35L238.447 204.473L238.541 204.35C239.44 205.016 240.029 205.999 240.177 207.083C240.326 208.167 240.022 209.263 239.332 210.131L221.991 231.919C221.589 232.421 221.074 232.827 220.483 233.106C219.893 233.385 219.243 233.529 218.586 233.527L218.582 233.532Z" fill="white"/>
<path d="M125.589 183.131C123.973 182.473 122.227 182.164 120.473 182.226C118.719 182.288 117.001 182.719 115.439 183.491C113.878 184.262 112.51 185.353 111.434 186.688C110.357 188.024 109.598 189.57 109.209 191.219L82.1725 195.681L80.9799 212.172L119.068 205.353C121.986 205.8 124.973 205.199 127.462 203.665C129.951 202.132 131.77 199.772 132.574 197.033C133.377 194.294 133.11 191.366 131.823 188.804C130.536 186.241 128.318 184.223 125.589 183.131L125.589 183.131Z" fill="#FFB8B8"/>
<path d="M79.1475 135.798C83.065 137.494 86.1548 140.577 87.776 144.409C89.3973 148.241 89.4256 152.526 87.8552 156.378L72.1833 194.811L91.858 191.326C93.0866 191.109 94.3554 191.331 95.4254 191.952C96.4955 192.573 97.2931 193.55 97.668 194.698L101.59 206.706C101.795 207.334 101.868 207.994 101.804 208.649C101.74 209.304 101.541 209.94 101.218 210.52C100.895 211.099 100.455 211.611 99.9243 212.024C99.3934 212.437 98.782 212.744 98.1261 212.927L72.5535 220.041C69.3186 220.941 65.9113 221.106 62.599 220.524C59.2867 219.941 56.1595 218.627 53.4631 216.684C50.7666 214.742 48.5741 212.223 47.0578 209.327C45.5415 206.431 44.7427 203.235 44.724 199.991V199.991C44.7152 198.475 44.8769 196.963 45.2062 195.481L55.9514 147.118C56.4732 144.769 57.5337 142.563 59.055 140.66C60.5764 138.757 62.5202 137.207 64.744 136.121C66.9679 135.036 69.4156 134.444 71.9078 134.388C74.4 134.332 76.8736 134.814 79.1475 135.798Z" fill="#63FF98"/>
</g>
<defs>
<clipPath id="clip0">
<rect width="735" height="507" fill="white"/>
</clipPath>
</defs>
</svg>
