<svg id="Layer_3" enable-background="new 0 0 64 64" height="512" viewBox="0 0 64 64" width="512" xmlns="http://www.w3.org/2000/svg"><g><path d="m54 62h-44c-1.105 0-2-.895-2-2v-56c0-1.105.895-2 2-2h44c1.105 0 2 .895 2 2v56c0 1.105-.895 2-2 2z" fill="#758190"/><path d="m8 4v28.681c12.36-1.278 22-11.723 22-24.421 0-2.164-.283-4.261-.808-6.26h-19.192c-1.105 0-2 .895-2 2z" fill="#8892a0"/><path d="m48 10h4v48h-40v-48h4" fill="#c7e2fc"/><path d="m29.931 10h-13.931-4v21.922c9.839-2.72 17.194-11.406 17.931-21.922z" fill="#ebf7fe"/><path d="m20 6h24v8h-24z" fill="#f2c351"/><path d="m20 14h9.318c.441-1.842.682-3.763.682-5.74 0-.762-.04-1.515-.108-2.26h-9.892z" fill="#f7d881"/><path d="m44 7h2c1.105 0 2 .895 2 2v4h-4" fill="#243242"/><path d="m20 7h-2c-1.105 0-2 .895-2 2v4h4" fill="#4d5d7a"/><g><path d="m14.999 17h27.999v2h-27.999z" fill="#8892a0"/></g><g><path d="m44.999 17h3.999v2h-3.999z" fill="#8892a0"/></g><g><path d="m14.999 21h27.999v2h-27.999z" fill="#8892a0"/></g><g><path d="m44.999 21h3.999v2h-3.999z" fill="#8892a0"/></g><g><path d="m20.999 25h28.001v2h-28.001z" fill="#8892a0"/></g><g><path d="m14.999 25h3.999v2h-3.999z" fill="#ebf7fe"/></g><g><path d="m20.999 29h28.001v2h-28.001z" fill="#8892a0"/></g><g><path d="m14.999 29h3.999v2h-3.999z" fill="#8892a0"/></g><g><path d="m32.999 51h15.999v2h-15.999z" fill="#8892a0"/></g><g><path d="m32.999 47h15.999v2h-15.999z" fill="#8892a0"/></g><g><path d="m32.999 43h15.999v2h-15.999z" fill="#8892a0"/></g><g><path d="m22.999 8h1.999v4h-1.999z" fill="#ebf7fe"/></g><g><path d="m26.999 8h1.999v4h-1.999z" fill="#ebf7fe"/></g><g><path d="m30.999 8h1.999v4h-1.999z" fill="#ebf7fe"/></g><g><path d="m34.999 8h1.999v4h-1.999z" fill="#ebf7fe"/></g><g><path d="m38.999 8h1.999v4h-1.999z" fill="#ebf7fe"/></g><g><path d="m19.999 55.999c-2.758 0-5-2.243-5-5s2.242-5 5-5c2.757 0 4.999 2.243 4.999 5s-2.242 5-4.999 5zm0-7.999c-1.654 0-3 1.346-3 3s1.346 3 3 3c1.653 0 2.999-1.346 2.999-3 0-1.655-1.346-3-2.999-3z" fill="#243242"/></g><g><path d="m19.999 53c-.257 0-.513-.099-.708-.293l-2-2 1.415-1.415 1.338 1.339 7.296-6.384 1.317 1.505-8 7c-.189.165-.424.248-.658.248z" fill="#669e4f"/></g><g><path d="m19.999 44.999c-2.758 0-5-2.243-5-5s2.242-5 5-5c2.757 0 4.999 2.243 4.999 5s-2.242 5-4.999 5zm0-7.999c-1.654 0-3 1.346-3 3s1.346 3 3 3c1.653 0 2.999-1.346 2.999-3 0-1.655-1.346-3-2.999-3z" fill="#243242"/></g><g><path d="m19.999 42c-.257 0-.513-.099-.708-.293l-2-2 1.415-1.415 1.338 1.339 7.296-6.384 1.317 1.505-8 7c-.189.165-.424.248-.658.248z" fill="#669e4f"/></g><g><path d="m32.999 39h3.999v2h-3.999z" fill="#8892a0"/></g><g><path d="m39 39h3.999v2h-3.999z" fill="#8892a0"/></g><g><path d="m45 39h3.999v2h-3.999z" fill="#8892a0"/></g><g fill="#a8b0bc"><path d="m28.392 17h-13.393v2h12.531c.317-.651.603-1.319.862-2z"/><path d="m20.999 25v2h.305c.738-.625 1.438-1.293 2.097-2z"/><path d="m26.44 21h-11.441v2h10.084c.484-.644.937-1.311 1.357-2z"/><path d="m14.999 29v1.886c1.252-.529 2.447-1.165 3.583-1.886z"/></g><g><path d="m51.999 9h-3c0-1.654-1.346-3-2.999-3h-1.001c0-.553-.447-1-1-1h-23.999c-.553 0-1 .447-1 1h-1c-1.654 0-3 1.346-3 3h-3c-.553 0-1 .447-1 1v48c0 .553.447 1 1 1h39.999c.553 0 1-.447 1-1v-48c0-.553-.447-1-1-1zm-5.999-1c.551 0 .999.448.999 1v3h-2v-4zm-25-1h21.999v6h-21.999zm-4 2c0-.552.448-1 1-1h1v4h-2zm33.999 47.999h-37.999v-45.999h2v2c0 .552.447 1 1 1h3c.001.552.447.999 1 .999h23.999c.553 0 1-.447 1-1h3c.553 0 1-.447 1-1v-2h2z"/><path d="m54 .999h-44.001c-1.653 0-3 1.346-3 3v56c0 1.654 1.347 3 3 3h44.001c1.653 0 3-1.346 3-3v-56c0-1.654-1.347-3-3-3zm1 59.001c0 .551-.449 1-1 1h-44.001c-.551 0-1-.449-1-1v-56c0-.551.449-1 1-1h44.001c.551 0 1 .449 1 1z"/><path d="m15 17h27.999v2h-27.999z"/><path d="m45 17h3.999v2h-3.999z"/><path d="m15 21h27.999v2h-27.999z"/><path d="m45 21h3.999v2h-3.999z"/><path d="m20.999 25h28.001v2h-28.001z"/><path d="m14.999 25h3.999v2h-3.999z"/><path d="m20.999 29h28.001v2h-28.001z"/><path d="m14.999 29h3.999v2h-3.999z"/><path d="m33 51h15.999v2h-15.999z"/><path d="m33 47h15.999v2h-15.999z"/><path d="m33 43h15.999v2h-15.999z"/><path d="m23 8h1.999v4h-1.999z"/><path d="m27 8h1.999v4h-1.999z"/><path d="m31 8h1.999v4h-1.999z"/><path d="m35 8h1.999v4h-1.999z"/><path d="m39 8h1.999v4h-1.999z"/><path d="m27.341 44.247-3.753 3.284c-.91-.941-2.179-1.531-3.588-1.531-2.758 0-5 2.243-5 5s2.242 5 5 5c2.757 0 4.999-2.243 4.999-5 0-.619-.128-1.206-.334-1.753l3.993-3.494zm-4.342 6.753c0 1.654-1.346 3-2.999 3-1.654 0-3-1.346-3-3s1.346-3 3-3c.809 0 1.542.326 2.082.849l-2.037 1.783-1.338-1.339-1.415 1.415 2 2c.195.193.451.292.708.292.234 0 .469-.082.658-.248l2.313-2.024c.009.091.028.178.028.272z"/><path d="m23.587 36.531c-.909-.94-2.178-1.531-3.587-1.531-2.758 0-5 2.243-5 5s2.242 5 5 5c2.757 0 4.999-2.243 4.999-5 0-.619-.128-1.206-.334-1.753l3.993-3.494-1.317-1.505zm-.588 3.469c0 1.654-1.346 3-2.999 3-1.654 0-3-1.346-3-3s1.346-3 3-3c.809 0 1.542.325 2.082.848l-2.037 1.782-1.338-1.339-1.415 1.415 2 2c.195.195.451.294.708.294.234 0 .469-.082.658-.248l2.313-2.024c.009.091.028.178.028.272z"/><path d="m33 39h3.999v2h-3.999z"/><path d="m39 39h3.999v2h-3.999z"/><path d="m45 39h3.999v2h-3.999z"/></g></g></svg>