<svg width="366" height="154" viewBox="0 0 366 154" fill="none" xmlns="http://www.w3.org/2000/svg">
<rect width="366" height="154" fill="#232323"/>
<path d="M111.67 51.49C111.675 51.3934 111.675 51.2966 111.67 51.2C111.675 51.1067 111.675 51.0133 111.67 50.92C111.612 50.3057 111.361 49.7255 110.953 49.2623C110.545 48.799 110.002 48.4762 109.4 48.34L108.97 48.29C101.36 47.36 79.58 43.92 68.75 33.89C68.4378 33.4596 68.0559 33.0844 67.62 32.78C66.6997 32.1264 65.5988 31.7752 64.47 31.7752C63.3412 31.7752 62.2403 32.1264 61.32 32.78C60.8847 33.0807 60.4999 33.4486 60.18 33.87C49.18 44.07 26.92 47.43 19.64 48.33C19.0032 48.4514 18.4252 48.782 17.9976 49.2694C17.5701 49.7567 17.3175 50.3728 17.28 51.02C17.2746 51.0832 17.2746 51.1468 17.28 51.21C17.2751 51.2766 17.2751 51.3434 17.28 51.41C17.28 51.8 17.28 52.21 17.28 52.6C17.2746 52.6732 17.2746 52.7468 17.28 52.82C17.2701 52.9732 17.2701 53.1268 17.28 53.28C18.36 132.43 64.47 137.73 64.47 137.73C64.47 137.73 110.57 132.43 111.66 53.34C111.67 53.1668 111.67 52.9932 111.66 52.82C111.665 52.7234 111.665 52.6266 111.66 52.53C111.68 52.19 111.67 51.83 111.67 51.49Z" fill="#3DC500"/>
<g style="mix-blend-mode:multiply">
<path d="M64.48 0H0V153.77H64.48V0Z" fill="#5B5E5A"/>
</g>
<path d="M64.35 138.3H64.01C63.5 138.3 51.35 136.73 39.11 124.96C28.07 114.31 14.8 92.87 14.18 51.04C14.18 50.83 14.18 50.63 14.18 50.42C14.18 50.21 14.18 50.22 14.18 50.11V49.18C14.18 49.06 14.18 48.94 14.18 48.81C14.1701 48.6535 14.1701 48.4965 14.18 48.34C14.2846 47.0681 14.7994 45.8646 15.647 44.9105C16.4947 43.9565 17.6292 43.3035 18.88 43.05L19.18 43C25.64 42.24 47.44 39 57.92 29.48C58.3731 28.9171 58.9014 28.4191 59.49 28C60.9121 26.9829 62.6166 26.4361 64.365 26.4361C66.1134 26.4361 67.8179 26.9829 69.24 28C69.8375 28.4232 70.3727 28.9281 70.83 29.5C81.18 38.92 102.8 42.19 109.18 42.97L109.88 43.06C111.094 43.3261 112.192 43.9714 113.015 44.9025C113.839 45.8337 114.345 47.0025 114.46 48.24C114.476 48.4297 114.476 48.6203 114.46 48.81C114.46 48.97 114.46 49.12 114.46 49.27V50.04C114.46 50.18 114.46 50.3 114.46 50.42C114.46 50.54 114.46 50.89 114.46 51.11C113.86 92.91 100.59 114.32 89.56 124.93C77.34 136.7 65.18 138.21 64.68 138.26L64.35 138.3ZM20.09 50.43C20.0851 50.4698 20.0851 50.5102 20.09 50.55V50.8C20.63 90.68 32.95 110.8 43.18 120.63C52.9 129.98 62.41 131.99 64.32 132.31C66.24 131.98 76.02 129.87 85.77 120.31C100.27 106.24 108.18 82.21 108.58 50.9V50.61C108.585 50.5468 108.585 50.4832 108.58 50.42V50.21V48.84H108.46C99.63 47.77 77.89 44.14 66.59 33.67L66.41 33.43L66.24 33.2C66.112 33.0262 65.9566 32.8742 65.78 32.75C65.3605 32.4575 64.8614 32.3006 64.35 32.3006C63.8386 32.3006 63.3395 32.4575 62.92 32.75C62.7435 32.8703 62.5881 33.019 62.46 33.19L62.3 33.43L62.09 33.62C50.79 44.12 29.18 47.75 20.09 48.83V50.43Z" fill="#DBDBDB"/>
<g style="mix-blend-mode:multiply">
<path d="M93.25 61.43C92.2253 61.4252 91.2313 61.7789 90.44 62.43L89.87 63.01L55.42 97.43L44.69 86.71C44.2575 86.1665 43.7026 85.7328 43.0707 85.4444C42.4388 85.1559 41.7477 85.0208 41.0537 85.0501C40.3597 85.0793 39.6825 85.2721 39.0771 85.6127C38.4717 85.9533 37.9553 86.432 37.57 87.01C37.0938 87.7278 36.8367 88.5686 36.83 89.43C36.8343 90.4379 37.1877 91.4132 37.83 92.19L38.5 92.87L49.18 103.63L52.06 106.5L52.72 107.16C53.6058 107.865 54.7356 108.19 55.8608 108.063C56.986 107.935 58.0145 107.366 58.72 106.48L61.57 103.63L96.04 69.2L96.66 68.58C97.1768 67.9345 97.5013 67.1565 97.5962 66.3351C97.6911 65.5137 97.5527 64.6822 97.1968 63.9358C96.8408 63.1895 96.2818 62.5586 95.5837 62.1154C94.8857 61.6722 94.0769 61.4346 93.25 61.43V61.43Z" fill="#BCBEC0"/>
</g>
<path d="M93.25 59.01C92.2253 59.0052 91.2313 59.3589 90.44 60.01L89.87 60.59L55.42 95.05L44.69 84.32C44.2772 83.8005 43.7527 83.3807 43.1554 83.0916C42.5582 82.8025 41.9035 82.6516 41.24 82.65C40.3718 82.6528 39.5235 82.9101 38.8 83.39C38.3139 83.7161 37.8961 84.1339 37.57 84.62C37.0901 85.3435 36.8328 86.1918 36.83 87.06C36.8343 88.0679 37.1877 89.0432 37.83 89.82L38.5 90.5L49.18 101.24L52.06 104.12L52.72 104.77C53.6058 105.475 54.7356 105.8 55.8608 105.673C56.986 105.545 58.0145 104.976 58.72 104.09L61.57 101.24L96.04 66.81L96.66 66.19C97.3074 65.4084 97.6612 64.4249 97.66 63.41C97.66 62.8313 97.5459 62.2584 97.3241 61.7239C97.1024 61.1894 96.7774 60.7039 96.3677 60.2952C95.9581 59.8865 95.4719 59.5626 94.9369 59.3421C94.4019 59.1215 93.8287 59.0087 93.25 59.01Z" fill="#E6E7E8"/>
<path d="M195.44 38.75C195.465 39.3029 195.357 39.8537 195.126 40.3564C194.894 40.8591 194.546 41.2993 194.11 41.64C193.037 42.3955 191.74 42.7656 190.43 42.69C189.108 42.7409 187.792 42.4913 186.58 41.96V39.82C187.22 40.1257 187.89 40.3637 188.58 40.53C189.234 40.6921 189.906 40.776 190.58 40.78C191.285 40.8379 191.989 40.6584 192.58 40.27C192.788 40.1086 192.954 39.9003 193.065 39.6621C193.176 39.4239 193.229 39.1627 193.22 38.9C193.223 38.6504 193.171 38.4033 193.07 38.1754C192.968 37.9476 192.818 37.7444 192.63 37.58C191.886 37.0265 191.059 36.5945 190.18 36.3C189.156 35.9516 188.238 35.3495 187.51 34.55C186.984 33.8737 186.709 33.0364 186.73 32.18C186.704 31.6562 186.803 31.1337 187.018 30.6555C187.234 30.1774 187.56 29.7574 187.97 29.43C188.923 28.7206 190.094 28.3669 191.28 28.43C192.66 28.4343 194.023 28.7308 195.28 29.3L194.56 31.15C193.493 30.6843 192.344 30.4394 191.18 30.43C190.584 30.3887 189.993 30.5586 189.51 30.91C189.327 31.0661 189.182 31.2613 189.085 31.4811C188.988 31.701 188.942 31.9398 188.95 32.18C188.941 32.5007 189.017 32.8181 189.17 33.1C189.361 33.395 189.617 33.6415 189.92 33.82C190.519 34.174 191.148 34.4751 191.8 34.72C192.589 35.0243 193.338 35.424 194.03 35.91C194.455 36.2399 194.798 36.6645 195.03 37.15C195.285 37.646 195.425 38.1927 195.44 38.75V38.75Z" fill="white"/>
<path d="M198.12 42.5V28.66H200.39V42.5H198.12Z" fill="white"/>
<path d="M208.82 42.5H206.56V30.6H202.49V28.66H212.9V30.6H208.82V42.5Z" fill="white"/>
<path d="M222.85 42.5H215.02V28.66H222.85V30.57H217.28V34.34H222.5V36.24H217.28V40.58H222.85V42.5Z" fill="white"/>
<path d="M238.86 38.75C238.885 39.3029 238.777 39.8536 238.546 40.3564C238.314 40.8591 237.966 41.2992 237.53 41.64C236.454 42.3963 235.153 42.7663 233.84 42.69C232.521 42.7407 231.208 42.4911 230 41.96V39.82C230.64 40.1257 231.31 40.3637 232 40.53C232.654 40.6922 233.326 40.7761 234 40.78C234.705 40.8371 235.409 40.6576 236 40.27C236.206 40.1075 236.372 39.899 236.483 39.6611C236.594 39.4231 236.648 39.1625 236.64 38.9C236.643 38.6504 236.591 38.4032 236.49 38.1754C236.388 37.9476 236.238 37.7444 236.05 37.58C235.315 37.0293 234.499 36.5973 233.63 36.3C232.604 35.9568 231.684 35.3539 230.96 34.55C230.434 33.8737 230.159 33.0364 230.18 32.18C230.15 31.6587 230.245 31.1377 230.455 30.6598C230.665 30.1819 230.986 29.7604 231.39 29.43C232.339 28.7206 233.507 28.3667 234.69 28.43C236.07 28.4321 237.434 28.7287 238.69 29.3L237.97 31.15C236.919 30.6906 235.787 30.4458 234.64 30.43C234.044 30.3869 233.452 30.5571 232.97 30.91C232.784 31.0636 232.635 31.2581 232.537 31.4784C232.438 31.6986 232.391 31.9387 232.4 32.18C232.394 32.5016 232.473 32.819 232.63 33.1C232.821 33.395 233.077 33.6415 233.38 33.82C233.977 34.1722 234.602 34.4733 235.25 34.72C236.042 35.0247 236.794 35.4243 237.49 35.91C237.915 36.2399 238.258 36.6645 238.49 37.15C238.731 37.6492 238.857 38.1958 238.86 38.75V38.75Z" fill="white"/>
<path d="M249.37 42.5H241.54V28.66H249.37V30.57H243.8V34.34H249.02V36.24H243.8V40.58H249.37V42.5Z" fill="white"/>
<path d="M258.03 35H263.12V42C262.338 42.2587 261.535 42.4494 260.72 42.57C259.896 42.6908 259.063 42.7476 258.23 42.74C257.337 42.7957 256.442 42.6584 255.607 42.3374C254.772 42.0165 254.016 41.5194 253.39 40.88C252.17 39.4126 251.559 37.5342 251.68 35.63C251.626 34.6725 251.77 33.7142 252.102 32.8146C252.434 31.9149 252.947 31.0931 253.61 30.4C254.314 29.7327 255.145 29.2143 256.054 28.8758C256.963 28.5373 257.931 28.3857 258.9 28.43C260.312 28.4259 261.71 28.7082 263.01 29.26L262.18 31.18C261.134 30.6919 259.994 30.4361 258.84 30.43C258.191 30.3991 257.543 30.5071 256.94 30.7468C256.336 30.9865 255.791 31.3524 255.34 31.82C254.434 32.8759 253.972 34.2411 254.05 35.63C253.961 36.991 254.362 38.3389 255.18 39.43C255.605 39.8827 256.125 40.2358 256.702 40.464C257.28 40.6922 257.9 40.7899 258.52 40.75C259.311 40.743 260.098 40.6525 260.87 40.48V36.94H258L258.03 35Z" fill="white"/>
<path d="M277.3 28.66V37.66C277.322 38.5961 277.094 39.5212 276.64 40.34C276.202 41.1097 275.539 41.7272 274.74 42.11C273.803 42.5509 272.775 42.7634 271.74 42.73C270.28 42.8185 268.844 42.3301 267.74 41.37C267.256 40.8776 266.878 40.2902 266.632 39.6448C266.386 38.9994 266.276 38.3099 266.31 37.62V28.66H268.59V37.43C268.514 38.3441 268.797 39.2518 269.38 39.96C269.711 40.2524 270.098 40.4748 270.517 40.614C270.937 40.7532 271.38 40.8063 271.82 40.77C273.96 40.77 275.02 39.65 275.02 37.41V28.66H277.3Z" fill="white"/>
<path d="M283.1 36.97V42.5H280.84V28.66H284.75C286.156 28.5511 287.56 28.9021 288.75 29.66C289.183 30.025 289.525 30.4866 289.747 31.0077C289.969 31.5287 290.066 32.0947 290.03 32.66C290.062 33.5003 289.813 34.3273 289.322 35.0101C288.831 35.6929 288.127 36.1926 287.32 36.43L291.23 42.55H288.65L285.34 37.02L283.1 36.97ZM283.1 35.1H284.67C285.478 35.1692 286.286 34.9611 286.96 34.51C287.205 34.295 287.397 34.0259 287.52 33.7238C287.644 33.4218 287.695 33.0952 287.67 32.77C287.698 32.4469 287.643 32.1219 287.51 31.8261C287.377 31.5302 287.17 31.2734 286.91 31.08C286.205 30.6927 285.403 30.5157 284.6 30.57H283.1V35.1Z" fill="white"/>
<path d="M305.53 35.56C305.648 37.4651 305.04 39.3441 303.83 40.82C303.217 41.4608 302.472 41.9602 301.647 42.2832C300.821 42.6062 299.935 42.745 299.05 42.69C298.16 42.7468 297.268 42.6099 296.436 42.2888C295.604 41.9677 294.851 41.47 294.23 40.83C293.025 39.3406 292.425 37.4518 292.55 35.54C292.42 33.6351 293.025 31.7529 294.24 30.28C294.866 29.6437 295.621 29.1493 296.454 28.8301C297.287 28.5109 298.179 28.3745 299.07 28.43C299.953 28.3758 300.838 28.515 301.662 28.838C302.485 29.161 303.229 29.6599 303.84 30.3C305.047 31.7773 305.65 33.6562 305.53 35.56V35.56ZM294.96 35.56C294.854 36.9284 295.206 38.2933 295.96 39.44C296.353 39.8533 296.826 40.1824 297.351 40.4072C297.875 40.6321 298.439 40.748 299.01 40.748C299.58 40.748 300.145 40.6321 300.669 40.4072C301.194 40.1824 301.667 39.8533 302.06 39.44C302.816 38.2868 303.168 36.9149 303.06 35.54C303.159 34.1785 302.807 32.8224 302.06 31.68C301.701 31.2376 301.241 30.8872 300.719 30.6577C300.198 30.4281 299.629 30.3261 299.06 30.36C298.479 30.3213 297.897 30.4208 297.362 30.6502C296.826 30.8796 296.353 31.2325 295.98 31.68C295.217 32.8236 294.858 34.1892 294.96 35.56V35.56Z" fill="white"/>
<path d="M182.54 56.43H154.18V64.85H174.3C173.3 76.65 163.49 81.68 154.22 81.68C151.283 81.6922 148.373 81.1194 145.66 79.995C142.947 78.8706 140.484 77.2172 138.417 75.1311C136.35 73.0451 134.718 70.5682 133.618 67.845C132.518 65.1218 131.971 62.2067 132.01 59.27C131.957 56.321 132.493 53.391 133.587 50.652C134.682 47.9131 136.312 45.4202 138.382 43.3197C140.453 41.2193 142.922 39.5535 145.645 38.4202C148.369 37.2869 151.291 36.7089 154.24 36.72C159.895 36.7076 165.333 38.891 169.41 42.81L175.3 36.7C175.3 36.7 167.74 28.28 153.94 28.28C136.38 28.28 122.79 43.11 122.79 59.12C122.874 67.4197 126.25 75.3465 132.175 81.1591C138.1 86.9717 146.09 90.1946 154.39 90.12C170.95 90.12 183.06 78.78 183.06 62.01C183.097 60.1369 182.926 58.2654 182.55 56.43H182.54Z" fill="#5C83EF"/>
<path d="M205.78 50.33C203.133 50.2799 200.502 50.7592 198.042 51.7396C195.583 52.7201 193.344 54.182 191.457 56.0396C189.57 57.8972 188.073 60.113 187.055 62.5569C186.036 65.0008 185.515 67.6237 185.524 70.2715C185.533 72.9192 186.07 75.5386 187.105 77.9758C188.14 80.4131 189.651 82.619 191.55 84.4642C193.449 86.3094 195.697 87.7566 198.163 88.721C200.629 89.6854 203.263 90.1474 205.91 90.08C208.522 90.1218 211.116 89.6384 213.538 88.6583C215.96 87.6782 218.16 86.2214 220.007 84.3746C221.855 82.5277 223.313 80.3284 224.294 77.9071C225.276 75.4859 225.761 72.8922 225.72 70.28C225.72 57.11 215.34 50.28 205.78 50.28V50.33ZM205.89 58.14C211.62 58.14 217.04 62.77 217.04 70.22C217.04 77.67 211.64 82.28 205.86 82.28C199.52 82.28 194.52 77.2 194.52 70.17C194.52 63.14 199.46 58.17 205.89 58.17V58.14Z" fill="#CA4539"/>
<path d="M249.23 50.33C246.583 50.2807 243.952 50.7607 241.493 51.7418C239.034 52.7229 236.795 54.1855 234.909 56.0435C233.023 57.9015 231.527 60.1177 230.508 62.5618C229.49 65.0059 228.97 67.6288 228.98 70.2766C228.989 72.9243 229.527 75.5435 230.563 77.9804C231.598 80.4173 233.11 82.6228 235.009 84.4675C236.908 86.3122 239.157 87.7589 241.623 88.7227C244.089 89.6865 246.723 90.148 249.37 90.08C251.983 90.1232 254.577 89.6407 256.999 88.6611C259.422 87.6815 261.622 86.2248 263.471 84.3777C265.319 82.5305 266.776 80.3306 267.757 77.9088C268.738 75.4869 269.222 72.8926 269.18 70.28C269.18 57.11 258.81 50.28 249.24 50.28L249.23 50.33ZM249.35 58.14C255.07 58.14 260.49 62.77 260.49 70.22C260.49 77.67 255.09 82.28 249.32 82.28C242.98 82.28 237.97 77.2 237.97 70.17C237.97 63.14 242.97 58.17 249.35 58.17V58.14Z" fill="#EABA2D"/>
<path d="M291.85 50.35C281.17 50.35 272.77 59.71 272.77 70.21C272.77 82.21 282.51 90.11 291.67 90.11C297.33 90.11 300.34 87.86 302.57 85.28V89.2C302.57 96.06 298.4 100.2 292.12 100.2C289.909 100.181 287.755 99.4964 285.939 98.2352C284.124 96.9741 282.73 95.195 281.94 93.13L274.31 96.32C277.02 102.05 282.47 108.03 292.18 108.03C302.8 108.03 310.9 101.34 310.9 87.3V51.55H302.57V54.92C301.216 53.433 299.558 52.2552 297.708 51.4666C295.858 50.678 293.86 50.2972 291.85 50.35ZM292.62 58.15C297.86 58.15 303.24 62.62 303.24 70.26C303.24 77.9 297.87 82.26 292.51 82.26C286.81 82.26 281.51 77.63 281.51 70.26C281.51 62.63 287.02 58.08 292.62 58.08V58.15Z" fill="#5C83EF"/>
<path d="M347.95 50.31C337.87 50.31 329.41 58.31 329.41 70.16C329.41 82.67 338.84 90.1 348.92 90.1C357.33 90.1 362.49 85.5 365.57 81.38L358.7 76.81C357.702 78.4985 356.275 79.8936 354.565 80.8541C352.855 81.8146 350.921 82.3065 348.96 82.28C343.37 82.28 340.8 79.22 339.21 76.28L365.86 65.28L364.48 62.03C361.9 55.69 355.9 50.39 347.95 50.39V50.31ZM348.3 57.95C349.802 57.8865 351.292 58.2526 352.594 59.0053C353.895 59.758 354.956 60.8662 355.65 62.2L337.86 69.64C337.09 63.88 342.54 57.95 348.3 57.95Z" fill="#CA4539"/>
<path d="M316.71 88.92H325.46V30.34H316.71V88.92Z" fill="#67A559"/>
</svg>
