<svg width="512" height="565" viewBox="0 0 512 565" fill="none" xmlns="http://www.w3.org/2000/svg">
<g clip-path="url(#clip0)">
<path d="M418.258 328.54L405.252 211.951L380.88 215.261L380.89 215.243L333.64 185.899C328.6 182.77 322.816 181.408 317.057 181.995L242.451 189.609C233.281 190.545 225.086 196.32 220.459 205.108L167.875 304.985C163.992 312.359 167.04 321.818 174.271 324.831L176.422 325.727C180.56 327.452 184.813 328.451 189.064 328.841L182.401 335.245L169.071 348.061L131.158 383.749C124.409 390.236 123.708 401.525 129.587 408.973L133.433 413.834C140.983 423.388 154.124 424.38 162.798 416.046L177.288 434.387C181.999 440.357 188.901 442.997 195.532 442.097C199.517 441.556 203.405 439.733 206.652 436.599L221.126 454.941C225.854 460.926 232.755 463.549 239.385 462.649C243.37 462.107 247.259 460.302 250.507 457.169L258.373 464.67C265.925 474.241 279.081 475.231 287.755 466.897L298.448 456.603L388.344 379.344L388.441 379.245L423.909 379.207L418.258 328.54Z" fill="#F29F5C"/>
<path d="M379.73 349.208L379.633 349.307L289.738 426.566L279.045 436.86C270.372 445.194 257.215 444.204 249.663 434.633L241.797 427.132C238.549 430.265 234.659 432.071 230.675 432.612C224.044 433.512 217.144 430.889 212.415 424.904L197.941 406.562C194.693 409.695 190.805 411.518 186.821 412.06C180.19 412.96 173.288 410.321 168.577 404.35L154.087 386.009C146.661 393.145 135.969 393.423 128.306 387.363C124.376 393.903 124.69 402.766 129.589 408.972L133.435 413.833C140.985 423.388 154.126 424.38 162.8 416.046L177.29 434.386C182.001 440.356 188.903 442.997 195.534 442.096C199.519 441.556 203.406 439.733 206.654 436.599L221.128 454.941C225.856 460.927 232.757 463.55 239.388 462.649C243.373 462.108 247.262 460.302 250.51 457.169L258.376 464.671C265.928 474.242 279.084 475.232 287.758 466.898L298.451 456.603L388.346 379.344L388.443 379.246L423.911 379.207L419.987 344.032L379.73 349.208Z" fill="#D37D42"/>
<path d="M396.101 399.639L347.936 353.811L334.542 341.076L324.958 331.968L283.751 292.771L288.51 248.068C290.12 232.949 281.495 218.794 268.199 214.734L178.375 187.306C168.871 184.404 158.826 189.27 154.33 198.956L143.034 223.288L94.5459 219.657L82.1259 336.324L76.7279 387.025L123.926 390.489L124.024 390.587L222.625 484.378L233.37 494.608C242.085 502.888 255.236 501.818 262.74 492.201L277.12 473.788C280.383 476.901 284.282 478.683 288.27 479.2C294.905 480.061 301.793 477.395 306.491 471.381L320.873 452.951C324.136 456.064 328.033 457.864 332.021 458.38C338.656 459.241 345.545 456.559 350.226 450.559L364.623 432.13C373.338 440.411 386.474 439.338 393.976 429.738L397.798 424.852C403.64 417.37 402.882 406.085 396.101 399.639Z" fill="#F9C295"/>
<path d="M396.101 399.639L381.43 385.68C386.198 392.657 386.1 402.583 380.719 409.476L376.662 414.661C368.698 424.852 354.754 425.991 345.502 417.2L330.218 436.763C325.249 443.132 317.936 445.979 310.892 445.066C306.659 444.518 302.522 442.608 299.058 439.303L283.79 458.868C278.803 465.252 271.492 468.081 264.448 467.169C260.215 466.62 256.076 464.728 252.612 461.423L237.346 480.97C234.47 484.657 230.807 487.141 226.872 488.421L233.371 494.609C242.086 502.889 255.237 501.819 262.741 492.202L277.121 473.789C280.384 476.902 284.283 478.684 288.271 479.201C294.906 480.061 301.794 477.396 306.492 471.382L320.874 452.952C324.137 456.065 328.034 457.865 332.022 458.381C338.657 459.242 345.546 456.559 350.227 450.56L364.624 432.131C373.339 440.412 386.475 439.339 393.977 429.738L397.799 424.853C403.64 417.369 402.882 406.085 396.101 399.639Z" fill="#E59F6A"/>
<path d="M126.386 390.372L120.672 398.697C114.451 407.762 116.067 420.676 124.282 427.542C132.497 434.407 144.2 432.624 150.422 423.559L156.135 415.234C162.356 406.168 160.74 393.254 152.525 386.388C144.31 379.523 132.607 381.306 126.386 390.372Z" fill="#F29F5C"/>
<path d="M161.181 407.88L150.422 423.558C144.201 432.623 145.817 445.537 154.032 452.404C162.247 459.268 173.95 457.485 180.172 448.42L190.931 432.742C197.152 423.677 195.536 410.762 187.321 403.896C179.105 397.031 167.402 398.815 161.181 407.88Z" fill="#F29F5C"/>
<path d="M194.834 427.053L180.171 448.42C173.95 457.485 175.566 470.4 183.781 477.266C191.996 484.131 203.699 482.347 209.921 473.282L224.584 451.916C230.805 442.85 229.189 429.936 220.974 423.07C212.759 416.205 201.056 417.988 194.834 427.053Z" fill="#F29F5C"/>
<path d="M225.435 450.676L209.921 473.282C203.7 482.347 205.316 495.262 213.531 502.128C221.746 508.993 233.449 507.209 239.671 498.144L255.185 475.539C261.406 466.473 259.79 453.559 251.575 446.693C243.359 439.828 231.656 441.611 225.435 450.676Z" fill="#F29F5C"/>
<path d="M380.891 215.243L333.641 185.899C328.601 182.77 322.817 181.408 317.058 181.995L242.452 189.609C233.281 190.545 225.086 196.32 220.459 205.108L167.875 304.985C163.992 312.361 167.04 321.818 174.271 324.832L176.422 325.728C195.697 333.761 217.465 326.925 230.018 308.897L250.165 279.963C250.165 279.963 298.594 341.84 351.914 269.579" fill="#F29F5C"/>
<path d="M479.787 174.275L504.5 395.807L446.712 403.658C435.79 405.141 425.847 396.574 424.502 384.522L404.658 206.634C403.314 194.581 411.077 183.609 421.999 182.125L479.787 174.275Z" fill="#5C9CEE"/>
<path d="M445.746 378.657C434.507 380.184 424.214 372.002 421.774 360.064L424.502 384.521C425.846 396.574 435.79 405.14 446.712 403.657L504.5 395.807L501.738 371.05L445.746 378.657Z" fill="#3580D3"/>
<path d="M32.215 174.276L7.50195 395.809L65.29 403.659C76.212 405.142 86.155 396.576 87.5 384.523L107.344 206.635C108.688 194.583 100.925 183.611 90.003 182.126L32.215 174.276Z" fill="#ED5575"/>
<path d="M66.6499 378.106L10.3299 370.455L7.50192 395.808L65.2899 403.658C76.2119 405.141 86.1549 396.575 87.4999 384.522L89.5959 365.731C84.9829 374.228 76.1329 379.395 66.6499 378.106Z" fill="#CC3A60"/>
<path d="M464.002 375.322C472.009 375.322 478.5 368.159 478.5 359.323C478.5 350.487 472.009 343.325 464.002 343.325C455.995 343.325 449.504 350.487 449.504 359.323C449.504 368.159 455.995 375.322 464.002 375.322Z" fill="#EBEEF2"/>
<path d="M47.1918 375.322C55.1988 375.322 61.6898 368.159 61.6898 359.323C61.6898 350.487 55.1988 343.325 47.1918 343.325C39.1848 343.325 32.6938 350.487 32.6938 359.323C32.6938 368.159 39.1848 375.322 47.1918 375.322Z" fill="#EBEEF2"/>
<path d="M256.102 440.095C249.997 434.992 242.499 433.306 235.505 434.745C234.406 427.432 230.878 420.966 225.502 416.472C219.931 411.817 213.053 409.835 206.13 410.889C204.415 411.15 202.749 411.591 201.147 412.199C199.629 406.456 196.492 401.181 191.847 397.299C184.196 390.904 174.36 389.881 166.068 393.644C164.417 388.161 161.316 383.354 157.052 379.789C151.482 375.134 144.6 373.153 137.68 374.206C132.067 375.061 126.973 377.831 122.997 382.124L95.5456 380.11L112.372 229.279L142.521 231.54C142.692 231.552 142.862 231.559 143.031 231.559C145.829 231.559 148.414 229.833 149.703 227.057L161.002 202.728C163.865 196.569 170.328 193.438 176.371 195.284L193.151 200.405C197.14 201.62 201.274 199.039 202.379 194.633C203.483 190.228 201.141 185.668 197.149 184.45L180.372 179.331C167.512 175.403 153.752 182.063 147.657 195.174L138.61 214.654L114.208 212.825L114.786 207.643C116.634 191.08 105.928 175.948 90.9186 173.908L33.1308 166.062C29.0128 165.506 25.2768 168.73 24.7708 173.265C24.2648 177.802 27.1878 181.932 31.2978 182.49L89.0856 190.341C92.3796 190.788 95.3186 192.624 97.3606 195.511C99.4026 198.397 100.305 201.989 99.8986 205.624L80.0546 383.51C79.2176 391.013 73.0037 396.362 66.2047 395.444L8.4169 387.593C4.30092 387.039 0.562933 390.259 0.0569354 394.796C-0.449063 399.333 2.47393 403.463 6.58391 404.021L64.3717 411.872C65.5037 412.025 66.6287 412.1 67.7417 412.1C77.8716 412.1 87.0106 405.89 91.7456 396.423L112.283 397.929C109.828 403.173 108.887 409.109 109.633 415.075C110.589 422.713 114.182 429.484 119.752 434.138C124.345 437.978 129.827 439.998 135.491 439.998C136.696 439.998 137.909 439.906 139.124 439.722C139.202 439.71 139.278 439.693 139.355 439.68C139.365 439.766 139.371 439.851 139.381 439.937C140.337 447.575 143.931 454.346 149.501 459C154.216 462.94 159.76 464.844 165.263 464.844C166.553 464.844 167.84 464.728 169.114 464.52C169.978 471.945 173.429 478.997 179.251 483.863C183.966 487.803 189.51 489.706 195.013 489.706C196.299 489.706 197.582 489.591 198.852 489.385C198.863 489.476 198.869 489.569 198.88 489.66C199.836 497.298 203.43 504.069 209.001 508.724C213.594 512.562 219.076 514.583 224.739 514.583C225.945 514.583 227.158 514.492 228.372 514.307C235.294 513.252 241.429 509.286 245.647 503.14L261.161 480.534C269.871 467.846 267.601 449.704 256.102 440.095ZM137.073 423.326C134.122 423.776 131.186 422.93 128.81 420.944C126.434 418.958 124.901 416.069 124.493 412.812C124.085 409.553 124.852 406.316 126.652 403.693L132.365 395.368C134.164 392.746 136.782 391.054 139.734 390.604C142.687 390.157 145.621 391 147.998 392.986C150.374 394.971 151.907 397.86 152.315 401.118C152.723 404.376 151.956 407.613 150.157 410.236L144.443 418.561C142.643 421.183 140.026 422.876 137.073 423.326ZM158.559 445.806C156.183 443.821 154.65 440.932 154.242 437.674C153.834 434.415 154.601 431.178 156.401 428.555L162.114 420.231C162.114 420.231 162.115 420.23 162.115 420.229L167.16 412.877C169.352 409.683 172.691 408.003 176.069 408.003C178.416 408.003 180.781 408.815 182.792 410.496C187.697 414.595 188.666 422.333 184.951 427.747L174.192 443.424C170.477 448.837 163.464 449.905 158.559 445.806ZM188.309 470.668C185.933 468.683 184.4 465.794 183.992 462.535C183.584 459.279 184.35 456.041 186.148 453.42C186.149 453.419 186.149 453.418 186.15 453.417L196.909 437.738L200.813 432.049C202.612 429.427 205.23 427.736 208.183 427.286C211.137 426.838 214.07 427.682 216.447 429.668C221.35 433.765 222.319 441.5 218.609 446.913L203.942 468.284C203.941 468.285 203.94 468.287 203.94 468.288C200.224 473.698 193.215 474.767 188.309 470.668ZM249.205 470.542L233.691 493.148C231.892 495.769 229.274 497.461 226.322 497.911C223.367 498.361 220.434 497.515 218.058 495.53C215.682 493.545 214.149 490.656 213.741 487.398C213.333 484.14 214.1 480.902 215.9 478.279L230.564 456.913C230.567 456.909 230.569 456.905 230.572 456.902L231.415 455.673C233.214 453.051 235.832 451.36 238.785 450.91C241.738 450.463 244.672 451.306 247.049 453.292C251.951 457.389 252.92 465.129 249.205 470.542Z" fill="black"/>
<path d="M511.945 394.796C511.439 390.261 507.7 387.039 503.585 387.593L445.798 395.444C438.989 396.367 432.785 391.013 431.948 383.51L431.356 378.201L431.219 376.972L412.105 205.624C411.699 201.989 412.601 198.399 414.643 195.511C416.685 192.624 419.624 190.788 422.918 190.341L480.706 182.49C484.817 181.932 487.739 177.801 487.233 173.265C486.727 168.73 482.988 165.508 478.873 166.062L421.085 173.913C406.962 175.832 396.652 189.344 397.023 204.733L382.45 206.712L337.324 178.689C330.934 174.716 323.69 173.01 316.375 173.752C316.36 173.753 316.345 173.757 316.33 173.758L302.747 175.144C298.622 175.565 295.588 179.596 295.97 184.148C296.351 188.699 299.998 192.041 304.129 191.626L317.75 190.236C322.012 189.801 326.236 190.796 329.964 193.112L376.751 222.167C378.215 223.233 379.997 223.721 381.799 223.477L398.725 221.178L411.14 332.46L415.433 370.944L388.436 370.968C386.636 370.969 384.898 371.685 383.539 372.982L381.45 374.776L313.672 310.313C329.161 305.399 343.926 293.513 357.731 274.806C360.346 271.261 359.863 266.048 356.651 263.161C353.439 260.276 348.714 260.809 346.099 264.353C330.669 285.265 314.445 296.028 297.877 296.344C273.74 296.845 256.006 274.759 255.843 274.553C254.368 272.67 252.206 271.629 249.952 271.689C247.698 271.76 245.593 272.947 244.219 274.919L224.072 303.853C213.457 319.099 195.374 324.78 179.073 317.985L176.922 317.088C175.033 316.3 174.263 314.671 173.973 313.77C173.683 312.868 173.347 311.068 174.361 309.141L226.945 209.266C230.346 202.806 236.402 198.539 243.144 197.85L274.276 194.673C278.401 194.252 281.435 190.22 281.053 185.67C280.671 181.119 277.018 177.772 272.894 178.191L241.762 181.368C230.197 182.549 219.809 189.869 213.974 200.951L161.39 300.826C158.43 306.45 157.864 313.189 159.839 319.317C161.814 325.445 166.109 330.276 171.621 332.573L173.772 333.471C180.116 336.115 186.653 337.391 193.103 337.391C209.556 337.39 225.426 329.076 235.966 313.939L250.997 292.353C259.052 300.013 274.078 311.359 293.26 312.753L391.205 405.907C392.966 407.581 394.031 409.912 394.203 412.47C394.375 415.028 393.635 417.507 392.12 419.448L388.303 424.334C383.508 430.463 375.079 431.143 369.515 425.854C369.204 425.559 368.873 425.305 368.534 425.075L343.108 400.882C339.973 397.898 335.236 398.284 332.53 401.746C329.825 405.208 330.176 410.434 333.313 413.419L353.975 433.079L344.55 445.149C341.654 448.856 337.296 450.729 332.897 450.158C330.264 449.816 327.799 448.614 325.769 446.682C325.733 446.648 325.694 446.619 325.658 446.586L302.033 424.107C298.896 421.124 294.161 421.51 291.455 424.971C288.75 428.433 289.101 433.659 292.238 436.644L310.292 453.823L300.811 465.974C297.914 469.681 293.546 471.554 289.146 470.982C285.031 470.446 281.305 473.697 280.822 478.236C280.339 482.776 283.281 486.888 287.395 487.421C288.506 487.565 289.614 487.637 290.718 487.637C298.908 487.637 306.747 483.722 312.175 476.778L322.311 463.789C325.08 465.245 328.057 466.198 331.145 466.598C340.505 467.812 349.758 463.834 355.912 455.957L366.065 442.954C377.293 448.832 391.161 446.012 399.661 435.146L403.483 430.254C407.615 424.96 409.632 418.208 409.163 411.242C408.694 404.274 405.793 397.926 400.999 393.369L394.843 387.515L417.344 387.494C419.803 401.796 431.208 412.101 444.259 412.101C445.371 412.101 446.498 412.026 447.629 411.873L505.417 404.022C509.528 403.463 512.451 399.334 511.945 394.796Z" fill="black"/>
<path d="M464.002 335.048C451.872 335.048 442.003 345.938 442.003 359.323C442.003 372.709 451.872 383.6 464.002 383.6C476.132 383.6 486 372.709 486 359.323C486 345.938 476.132 335.048 464.002 335.048ZM464.002 367.047C460.143 367.047 457.003 363.582 457.003 359.323C457.003 355.065 460.143 351.601 464.002 351.601C467.861 351.601 471 355.065 471 359.323C471 363.582 467.861 367.047 464.002 367.047Z" fill="black"/>
<path d="M69.1899 359.324C69.1899 345.939 59.3219 335.049 47.1919 335.049C35.0619 335.049 25.1939 345.939 25.1939 359.324C25.1939 372.71 35.0619 383.601 47.1919 383.601C59.3219 383.601 69.1899 372.71 69.1899 359.324ZM40.1939 359.324C40.1939 355.066 43.3329 351.602 47.1919 351.602C51.0509 351.602 54.1899 355.066 54.1899 359.324C54.1899 363.583 51.0509 367.048 47.1919 367.048C43.3329 367.048 40.1939 363.583 40.1939 359.324Z" fill="black"/>
<path d="M247.77 156C203.479 156 167.575 125.886 167.575 88.7395C167.575 51.5926 203.479 21.479 247.77 21.479C292.06 21.479 327.965 51.5926 327.965 88.7395C327.965 125.886 292.06 156 247.77 156Z" fill="#FDBC4B"/>
<path d="M247.77 137.344C215.764 137.344 189.818 115.583 189.818 88.7395C189.818 61.8957 215.764 40.1345 247.77 40.1345C279.776 40.1345 305.722 61.8957 305.722 88.7395C305.722 115.583 279.776 137.344 247.77 137.344Z" fill="#EC9922"/>
<g opacity="0.25">
<path opacity="0.25" d="M280.31 145.683C306.275 135.229 323.055 112.871 323.055 88.7248C323.055 53.91 289.28 25.5823 247.764 25.5823C229.202 25.5823 211.373 31.2977 197.558 41.6684C195.159 43.466 194.961 46.5582 197.104 48.5659C199.253 50.5736 202.928 50.7446 205.328 48.9469C217 40.1785 232.073 35.3522 247.764 35.3522C282.856 35.3522 311.406 59.2932 311.406 88.7248C311.406 109.139 297.218 128.039 275.266 136.876C272.366 138.043 271.143 140.959 272.535 143.392C273.938 145.839 277.439 146.846 280.31 145.683Z" fill="white"/>
</g>
<path d="M309.088 39.563C309.088 28.5133 317.137 21.7623 330.312 21.7623C317.137 21.7623 309.088 15.0114 309.088 3.96167C309.088 15.0114 301.039 21.7623 287.864 21.7623C301.039 21.7623 309.088 28.5133 309.088 39.563Z" fill="#FFDB70"/>
<path d="M327.447 18.4162C327.447 12.7008 331.611 9.20808 338.425 9.20808C331.611 9.20808 327.447 5.71536 327.447 0C327.447 5.71536 323.282 9.20808 316.468 9.20808C323.282 9.20808 327.447 12.7008 327.447 18.4162Z" fill="#FFDB70"/>
<path d="M305.722 88.7249C305.722 109.178 290.643 126.647 269.314 133.822H263.612C259.168 133.822 255.563 130.799 255.563 127.072C255.563 123.344 259.168 120.321 263.612 120.321H274.381C278.103 120.321 281.137 117.766 281.114 114.644V114.571C281.114 114.434 281.12 114.293 281.132 114.161C281.353 111.083 278.441 108.489 274.766 108.489H260.502C256.139 108.489 252.237 105.754 252.004 102.1C251.759 98.2065 255.452 94.9825 260.042 94.9825H264.456C268.202 94.9825 271.224 92.4276 271.207 89.2866V88.8958V88.8128C271.23 85.5106 268.027 82.8092 264.09 82.8092H258.388C254.031 82.8092 250.123 80.0737 249.89 76.4198C249.645 72.5265 253.338 69.3024 257.927 69.3024H278.505C282.395 69.3024 285.296 66.562 285.249 63.2988C285.249 63.2744 285.249 63.2451 285.249 63.2158C285.249 63.1865 285.249 63.1621 285.249 63.1328C285.296 59.8696 282.395 57.1292 278.505 57.1292H271.853C267.491 57.1292 263.589 54.3936 263.356 50.7397C263.14 47.3154 265.971 44.4186 269.78 43.764C290.864 51.0377 305.722 68.4182 305.722 88.7249Z" fill="#E48D25"/>
<path d="M251.398 110.673V92.4569C258.172 90.8352 263.14 88.378 266.303 85.0905C269.465 81.8029 271.044 77.8071 271.044 73.1127C271.044 68.3596 269.256 64.3686 265.68 61.1348C262.103 57.901 257.345 56.0399 251.398 55.5465V51.2429H243.885V55.5465C238.393 56.0985 234.018 57.6714 230.768 60.2653C227.518 62.8592 225.445 66.3275 224.548 70.6751L237.664 72.1112C238.457 68.6918 240.53 66.3715 243.885 65.1551V82.1547C235.591 84.0402 229.941 86.4778 226.936 89.482C223.931 92.4814 222.428 96.3307 222.428 101.025C222.428 106.272 224.321 110.692 228.101 114.283C231.881 117.873 237.146 120.081 243.885 120.892V126.207H251.398V121.107C257.374 120.496 262.232 118.63 265.965 115.499C269.698 112.368 272.08 107.947 273.117 102.241L259.587 101.025C259.034 103.345 257.997 105.343 256.477 107.024C254.957 108.704 253.262 109.921 251.398 110.673ZM251.398 65.0281C253.437 65.6094 255.062 66.5913 256.273 67.9835C257.485 69.3757 258.085 70.9096 258.085 72.59C258.085 74.1238 257.531 75.5551 256.425 76.874C255.318 78.193 253.641 79.2579 251.398 80.0688V65.0281ZM243.885 111.283C241.293 110.878 239.185 109.872 237.56 108.26C235.935 106.648 235.125 104.762 235.125 102.588C235.125 100.644 235.807 98.9734 237.175 97.5666C238.538 96.1597 240.781 95.0801 243.885 94.3279V111.283V111.283Z" fill="white"/>
</g>
<defs>
<clipPath id="clip0">
<rect width="512" height="565" fill="white"/>
</clipPath>
</defs>
</svg>
