<svg width="255" height="35" viewBox="0 0 255 35" fill="none" xmlns="http://www.w3.org/2000/svg">
<path d="M59.496 31.76V30.368H59.928C60.44 30.368 60.928 30.232 61.392 29.96C61.856 29.688 62.232 29.24 62.52 28.616C62.808 27.992 62.952 27.144 62.952 26.072V11.6C62.952 10.96 62.832 10.56 62.592 10.4C62.352 10.224 62.064 10.136 61.728 10.136H60.72V8.864H69V10.136H67.992C67.64 10.136 67.344 10.224 67.104 10.4C66.864 10.576 66.744 11.008 66.744 11.696V26.048C66.744 27.136 66.568 28.048 66.216 28.784C65.864 29.52 65.384 30.104 64.776 30.536C64.184 30.968 63.504 31.28 62.736 31.472C61.968 31.664 61.176 31.76 60.36 31.76H59.496ZM70.2111 26V24.728H71.2191C71.5551 24.728 71.8431 24.648 72.0831 24.488C72.3231 24.328 72.4431 23.928 72.4431 23.288V11.6C72.4431 10.96 72.3231 10.56 72.0831 10.4C71.8431 10.224 71.5551 10.136 71.2191 10.136H70.2111V8.864H78.4911V10.136H77.4831C77.1311 10.136 76.8351 10.224 76.5951 10.4C76.3551 10.576 76.2351 11.008 76.2351 11.696V17.288L79.9551 13.232C80.4671 12.672 80.8191 12.216 81.0111 11.864C81.2191 11.496 81.3231 11.144 81.3231 10.808C81.3231 10.536 81.2191 10.352 81.0111 10.256C80.8191 10.16 80.4751 10.112 79.9791 10.112V8.864H86.4831V10.112C85.8431 10.112 85.2431 10.312 84.6831 10.712C84.1391 11.096 83.5871 11.6 83.0271 12.224L79.8591 15.704L84.3231 22.784C84.8031 23.52 85.2431 24.032 85.6431 24.32C86.0591 24.592 86.5311 24.728 87.0591 24.728H87.1551V26H85.8591C84.6431 26 83.6991 25.92 83.0271 25.76C82.3711 25.6 81.8671 25.36 81.5151 25.04C81.1631 24.704 80.8351 24.288 80.5311 23.792L77.2911 18.272L76.2351 19.112V23.168C76.2351 23.856 76.3551 24.288 76.5951 24.464C76.8351 24.64 77.1311 24.728 77.4831 24.728H78.4911V26H70.2111ZM90.6921 26.192C90.1481 26.192 89.6841 26.056 89.3001 25.784C88.9161 25.496 88.7241 24.992 88.7241 24.272C88.7241 23.536 88.9161 23.032 89.3001 22.76C89.6841 22.488 90.1481 22.352 90.6921 22.352C91.2201 22.352 91.6761 22.488 92.0601 22.76C92.4601 23.032 92.6601 23.536 92.6601 24.272C92.6601 24.992 92.4601 25.496 92.0601 25.784C91.6761 26.056 91.2201 26.192 90.6921 26.192Z" fill="#00DC8D"/>
<path d="M100.549 26V24.728H100.837C101.269 24.728 101.629 24.616 101.917 24.392C102.221 24.168 102.501 23.696 102.757 22.976L107.965 8.864H111.253L116.269 23C116.509 23.672 116.773 24.128 117.061 24.368C117.365 24.608 117.709 24.728 118.093 24.728H118.525V26H110.605V24.728H111.541C111.781 24.728 112.013 24.656 112.237 24.512C112.461 24.368 112.573 24.128 112.573 23.792C112.573 23.6 112.549 23.416 112.501 23.24C112.453 23.048 112.405 22.888 112.357 22.76L111.517 20.36H105.685L104.989 22.424C104.925 22.616 104.861 22.848 104.797 23.12C104.733 23.376 104.701 23.6 104.701 23.792C104.701 24.096 104.813 24.328 105.037 24.488C105.261 24.648 105.509 24.728 105.781 24.728H106.789V26H100.549ZM106.189 18.896H111.037L109.765 14.96C109.605 14.416 109.421 13.808 109.213 13.136C109.021 12.464 108.861 11.848 108.733 11.288C108.589 11.8 108.413 12.384 108.205 13.04C107.997 13.68 107.797 14.28 107.605 14.84L106.189 18.896ZM124.859 26.24C123.435 26.24 122.307 26.072 121.475 25.736C120.659 25.384 120.083 24.952 119.747 24.44C119.411 23.912 119.243 23.392 119.243 22.88C119.243 22.336 119.371 21.904 119.627 21.584C119.883 21.248 120.219 21.008 120.635 20.864C121.051 20.72 121.491 20.648 121.955 20.648C121.955 22.008 122.259 23.04 122.867 23.744C123.491 24.448 124.283 24.8 125.243 24.8C126.187 24.8 126.915 24.552 127.427 24.056C127.955 23.56 128.219 22.944 128.219 22.208C128.219 21.392 127.883 20.736 127.211 20.24C126.555 19.744 125.555 19.224 124.211 18.68C123.091 18.216 122.203 17.736 121.547 17.24C120.891 16.728 120.419 16.168 120.131 15.56C119.859 14.936 119.723 14.232 119.723 13.448C119.723 12.472 119.979 11.624 120.491 10.904C121.003 10.184 121.699 9.624 122.579 9.224C123.475 8.824 124.483 8.624 125.603 8.624C127.363 8.624 128.651 8.896 129.467 9.44C130.299 9.968 130.715 10.624 130.715 11.408C130.715 11.968 130.467 12.44 129.971 12.824C129.491 13.208 128.755 13.4 127.763 13.4C127.763 12.952 127.675 12.472 127.499 11.96C127.339 11.448 127.075 11.008 126.707 10.64C126.339 10.272 125.843 10.088 125.219 10.088C124.579 10.088 124.019 10.28 123.539 10.664C123.075 11.032 122.843 11.576 122.843 12.296C122.843 12.744 122.947 13.16 123.155 13.544C123.363 13.928 123.755 14.312 124.331 14.696C124.907 15.064 125.731 15.464 126.803 15.896C128.451 16.568 129.627 17.288 130.331 18.056C131.035 18.824 131.387 19.8 131.387 20.984C131.387 22.008 131.115 22.92 130.571 23.72C130.043 24.504 129.291 25.12 128.315 25.568C127.339 26.016 126.187 26.24 124.859 26.24ZM138.922 26.24C137.498 26.24 136.37 26.072 135.538 25.736C134.722 25.384 134.146 24.952 133.81 24.44C133.474 23.912 133.306 23.392 133.306 22.88C133.306 22.336 133.434 21.904 133.69 21.584C133.946 21.248 134.282 21.008 134.698 20.864C135.114 20.72 135.554 20.648 136.018 20.648C136.018 22.008 136.322 23.04 136.93 23.744C137.554 24.448 138.346 24.8 139.306 24.8C140.25 24.8 140.978 24.552 141.49 24.056C142.018 23.56 142.282 22.944 142.282 22.208C142.282 21.392 141.946 20.736 141.274 20.24C140.618 19.744 139.618 19.224 138.274 18.68C137.154 18.216 136.266 17.736 135.61 17.24C134.954 16.728 134.482 16.168 134.194 15.56C133.922 14.936 133.786 14.232 133.786 13.448C133.786 12.472 134.042 11.624 134.554 10.904C135.066 10.184 135.762 9.624 136.642 9.224C137.538 8.824 138.546 8.624 139.666 8.624C141.426 8.624 142.714 8.896 143.53 9.44C144.362 9.968 144.778 10.624 144.778 11.408C144.778 11.968 144.53 12.44 144.034 12.824C143.554 13.208 142.818 13.4 141.826 13.4C141.826 12.952 141.738 12.472 141.562 11.96C141.402 11.448 141.138 11.008 140.77 10.64C140.402 10.272 139.906 10.088 139.282 10.088C138.642 10.088 138.082 10.28 137.602 10.664C137.138 11.032 136.906 11.576 136.906 12.296C136.906 12.744 137.01 13.16 137.218 13.544C137.426 13.928 137.818 14.312 138.394 14.696C138.97 15.064 139.794 15.464 140.866 15.896C142.514 16.568 143.69 17.288 144.394 18.056C145.098 18.824 145.45 19.8 145.45 20.984C145.45 22.008 145.178 22.92 144.634 23.72C144.106 24.504 143.354 25.12 142.378 25.568C141.402 26.016 140.25 26.24 138.922 26.24ZM147.32 26V24.728H148.328C148.664 24.728 148.952 24.648 149.192 24.488C149.432 24.328 149.552 23.928 149.552 23.288V11.696C149.552 11.008 149.432 10.576 149.192 10.4C148.968 10.224 148.68 10.136 148.328 10.136H147.32V8.864H160.64L160.736 13.28H159.056L158.936 12.152C158.872 11.56 158.72 11.112 158.48 10.808C158.256 10.488 157.896 10.328 157.4 10.328H153.368V16.328H159.056V17.768H153.368V24.536H158.168C158.648 24.536 159 24.368 159.224 24.032C159.464 23.68 159.624 23.24 159.704 22.712L159.896 21.584H161.552L161.384 26H147.32ZM168.664 26.24C167.24 26.24 166.112 26.072 165.28 25.736C164.464 25.384 163.888 24.952 163.552 24.44C163.216 23.912 163.048 23.392 163.048 22.88C163.048 22.336 163.176 21.904 163.432 21.584C163.688 21.248 164.024 21.008 164.44 20.864C164.856 20.72 165.296 20.648 165.76 20.648C165.76 22.008 166.064 23.04 166.672 23.744C167.296 24.448 168.088 24.8 169.048 24.8C169.992 24.8 170.72 24.552 171.232 24.056C171.76 23.56 172.024 22.944 172.024 22.208C172.024 21.392 171.688 20.736 171.016 20.24C170.36 19.744 169.36 19.224 168.016 18.68C166.896 18.216 166.008 17.736 165.352 17.24C164.696 16.728 164.224 16.168 163.936 15.56C163.664 14.936 163.528 14.232 163.528 13.448C163.528 12.472 163.784 11.624 164.296 10.904C164.808 10.184 165.504 9.624 166.384 9.224C167.28 8.824 168.288 8.624 169.408 8.624C171.168 8.624 172.456 8.896 173.272 9.44C174.104 9.968 174.52 10.624 174.52 11.408C174.52 11.968 174.272 12.44 173.776 12.824C173.296 13.208 172.56 13.4 171.568 13.4C171.568 12.952 171.48 12.472 171.304 11.96C171.144 11.448 170.88 11.008 170.512 10.64C170.144 10.272 169.648 10.088 169.024 10.088C168.384 10.088 167.824 10.28 167.344 10.664C166.88 11.032 166.648 11.576 166.648 12.296C166.648 12.744 166.752 13.16 166.96 13.544C167.168 13.928 167.56 14.312 168.136 14.696C168.712 15.064 169.536 15.464 170.608 15.896C172.256 16.568 173.432 17.288 174.136 18.056C174.84 18.824 175.192 19.8 175.192 20.984C175.192 22.008 174.92 22.92 174.376 23.72C173.848 24.504 173.096 25.12 172.12 25.568C171.144 26.016 169.992 26.24 168.664 26.24ZM182.727 26.24C181.303 26.24 180.175 26.072 179.343 25.736C178.527 25.384 177.951 24.952 177.615 24.44C177.279 23.912 177.111 23.392 177.111 22.88C177.111 22.336 177.239 21.904 177.495 21.584C177.751 21.248 178.087 21.008 178.503 20.864C178.919 20.72 179.359 20.648 179.823 20.648C179.823 22.008 180.127 23.04 180.735 23.744C181.359 24.448 182.151 24.8 183.111 24.8C184.055 24.8 184.783 24.552 185.295 24.056C185.823 23.56 186.087 22.944 186.087 22.208C186.087 21.392 185.751 20.736 185.079 20.24C184.423 19.744 183.423 19.224 182.079 18.68C180.959 18.216 180.071 17.736 179.415 17.24C178.759 16.728 178.287 16.168 177.999 15.56C177.727 14.936 177.591 14.232 177.591 13.448C177.591 12.472 177.847 11.624 178.359 10.904C178.871 10.184 179.567 9.624 180.447 9.224C181.343 8.824 182.351 8.624 183.471 8.624C185.231 8.624 186.519 8.896 187.335 9.44C188.167 9.968 188.583 10.624 188.583 11.408C188.583 11.968 188.335 12.44 187.839 12.824C187.359 13.208 186.623 13.4 185.631 13.4C185.631 12.952 185.543 12.472 185.367 11.96C185.207 11.448 184.943 11.008 184.575 10.64C184.207 10.272 183.711 10.088 183.087 10.088C182.447 10.088 181.887 10.28 181.407 10.664C180.943 11.032 180.711 11.576 180.711 12.296C180.711 12.744 180.815 13.16 181.023 13.544C181.231 13.928 181.623 14.312 182.199 14.696C182.775 15.064 183.599 15.464 184.671 15.896C186.319 16.568 187.495 17.288 188.199 18.056C188.903 18.824 189.255 19.8 189.255 20.984C189.255 22.008 188.983 22.92 188.439 23.72C187.911 24.504 187.159 25.12 186.183 25.568C185.207 26.016 184.055 26.24 182.727 26.24ZM199.909 26.24C198.085 26.24 196.573 25.872 195.373 25.136C194.173 24.4 193.269 23.368 192.661 22.04C192.069 20.712 191.773 19.16 191.773 17.384C191.773 15.608 192.069 14.064 192.661 12.752C193.269 11.44 194.173 10.424 195.373 9.704C196.589 8.968 198.109 8.6 199.933 8.6C201.661 8.6 203.125 8.968 204.325 9.704C205.541 10.424 206.461 11.448 207.085 12.776C207.709 14.088 208.021 15.632 208.021 17.408C208.021 19.184 207.701 20.736 207.061 22.064C206.437 23.376 205.525 24.4 204.325 25.136C203.125 25.872 201.653 26.24 199.909 26.24ZM199.909 24.68C201.413 24.68 202.469 24.04 203.077 22.76C203.685 21.48 203.989 19.696 203.989 17.408C203.989 15.12 203.685 13.344 203.077 12.08C202.469 10.8 201.421 10.16 199.933 10.16C198.429 10.16 197.365 10.8 196.741 12.08C196.117 13.344 195.805 15.12 195.805 17.408C195.805 19.696 196.117 21.48 196.741 22.76C197.365 24.04 198.421 24.68 199.909 24.68ZM210.016 26V24.728H211.024C211.344 24.728 211.624 24.648 211.864 24.488C212.12 24.328 212.248 23.928 212.248 23.288V11.6C212.248 10.96 212.12 10.56 211.864 10.4C211.624 10.224 211.344 10.136 211.024 10.136H210.016V8.864H217.744C220.016 8.864 221.68 9.248 222.736 10.016C223.792 10.768 224.32 11.864 224.32 13.304C224.32 14.152 224.16 14.872 223.84 15.464C223.52 16.056 223.112 16.544 222.616 16.928C222.12 17.312 221.6 17.616 221.056 17.84L223.912 22.76C224.328 23.448 224.72 23.952 225.088 24.272C225.456 24.576 225.864 24.728 226.312 24.728H226.408V26H225.616C224.656 26 223.856 25.944 223.216 25.832C222.576 25.72 222.04 25.512 221.608 25.208C221.192 24.888 220.816 24.432 220.48 23.84L217.624 18.56H216.04V23.288C216.04 23.928 216.16 24.328 216.4 24.488C216.656 24.648 216.944 24.728 217.264 24.728H218.296V26H210.016ZM217.384 17.168C218.488 17.168 219.248 16.872 219.664 16.28C220.08 15.688 220.288 14.808 220.288 13.64C220.288 12.424 220.064 11.56 219.616 11.048C219.168 10.536 218.408 10.28 217.336 10.28H216.04V17.168H217.384ZM226.985 26V24.728H227.993C228.345 24.728 228.633 24.64 228.857 24.464C229.097 24.288 229.217 23.856 229.217 23.168V11.696C229.217 11.008 229.097 10.576 228.857 10.4C228.633 10.224 228.345 10.136 227.993 10.136H226.985V8.864H235.265V10.136H234.257C233.905 10.136 233.609 10.224 233.368 10.4C233.145 10.576 233.033 11.008 233.033 11.696V23.168C233.033 23.856 233.145 24.288 233.368 24.464C233.609 24.64 233.905 24.728 234.257 24.728H235.265V26H226.985ZM236.041 26V24.728H236.329C236.761 24.728 237.121 24.616 237.409 24.392C237.713 24.168 237.993 23.696 238.249 22.976L243.457 8.864H246.745L251.761 23C252.001 23.672 252.265 24.128 252.553 24.368C252.857 24.608 253.201 24.728 253.585 24.728H254.017V26H246.097V24.728H247.033C247.273 24.728 247.505 24.656 247.729 24.512C247.953 24.368 248.065 24.128 248.065 23.792C248.065 23.6 248.041 23.416 247.993 23.24C247.945 23.048 247.897 22.888 247.849 22.76L247.009 20.36H241.177L240.481 22.424C240.417 22.616 240.353 22.848 240.289 23.12C240.225 23.376 240.193 23.6 240.193 23.792C240.193 24.096 240.305 24.328 240.529 24.488C240.753 24.648 241.001 24.728 241.273 24.728H242.281V26H236.041ZM241.681 18.896H246.529L245.257 14.96C245.097 14.416 244.913 13.808 244.705 13.136C244.513 12.464 244.353 11.848 244.225 11.288C244.081 11.8 243.905 12.384 243.697 13.04C243.489 13.68 243.289 14.28 243.097 14.84L241.681 18.896Z" fill="white"/>
<g clip-path="url(#clip0)">
<path d="M28.9372 2.81633L19.654 12.4743L15.4597 8.11621C11.9831 4.4845 6.3302 4.29807 2.7814 7.81599C1.91511 8.67544 1.22275 9.70601 0.74496 10.8472C0.267166 11.9885 0.0135573 13.2174 -0.000984949 14.4618C-0.0155272 15.7062 0.20929 16.9412 0.660275 18.0941C1.11126 19.247 1.77933 20.2948 2.62528 21.1758L13.2903 32.2671C14.1245 33.1342 15.1149 33.8221 16.205 34.2914C17.2951 34.7607 18.4635 35.0023 19.6435 35.0023C20.8234 35.0023 21.9918 34.7607 23.0819 34.2914C24.172 33.8221 25.1624 33.1342 25.9966 32.2671L28.2848 29.8895L41.753 15.8953C42.5982 15.0155 43.2659 13.9692 43.717 12.8178C44.1682 11.6664 44.3936 10.433 44.3801 9.18992C44.3667 7.94684 44.1146 6.71905 43.6387 5.57848C43.1628 4.43791 42.4726 3.40749 41.6086 2.54759C38.0574 -0.984856 32.3975 -0.788743 28.9372 2.81633Z" fill="#01943C"/>
<path d="M16.0873 24.0686L16.1106 24.0903C16.7822 24.7877 17.6928 25.1795 18.6423 25.1795C19.5918 25.1795 20.5024 24.7877 21.174 24.0903L21.9453 23.2889C22.616 22.5904 23.5261 22.1968 24.4758 22.1946C25.092 22.1948 25.6975 22.3617 26.2327 22.6788C26.5215 22.8437 26.7859 23.0508 27.018 23.2938C27.6909 23.9946 28.0688 24.9441 28.0688 25.934C28.0688 26.924 27.6909 27.8735 27.018 28.5743L24.7298 30.9519C23.3811 32.3515 21.5528 33.1377 19.6466 33.1377C17.7404 33.1377 15.9121 32.3515 14.5634 30.9519L3.89132 19.8606C2.57121 18.4541 1.83755 16.5639 1.84929 14.5993C1.86103 12.6347 2.61721 10.7541 3.95403 9.36474C5.29085 7.9754 7.10065 7.18926 8.99137 7.17661C10.8821 7.16396 12.7015 7.92583 14.0554 9.29718L19.6477 15.1079L16.0873 18.8098C15.4162 19.5072 15.0393 20.453 15.0393 21.4392C15.0393 22.4254 15.4162 23.3712 16.0873 24.0686V24.0686Z" fill="white"/>
<path d="M40.4932 4.01185C41.8409 5.41293 42.5979 7.31271 42.5979 9.29357C42.5979 11.2744 41.8409 13.1742 40.4932 14.5753L27.025 28.5695C27.359 28.2229 27.624 27.8114 27.8048 27.3583C27.9856 26.9053 28.0787 26.4197 28.0787 25.9292C28.0787 25.4388 27.9856 24.9531 27.8048 24.5001C27.624 24.0471 27.359 23.6355 27.025 23.289C26.7929 23.046 26.5285 22.8389 26.2397 22.674C25.7045 22.3568 25.099 22.19 24.4828 22.1898C24.0106 22.1893 23.5429 22.2857 23.1067 22.4735C22.6704 22.6613 22.2741 22.9368 21.9406 23.2841L21.1693 24.0952C20.4978 24.7926 19.5871 25.1844 18.6376 25.1844C17.6882 25.1844 16.7775 24.7926 16.1059 24.0952L16.0826 24.0734C15.4116 23.376 15.0346 22.4302 15.0346 21.4441C15.0346 20.4579 15.4116 19.5121 16.0826 18.8147L30.3245 4.01669C30.9917 3.32238 31.7841 2.77147 32.6563 2.39544C33.5286 2.01942 34.4636 1.82564 35.4079 1.82519C36.3522 1.82474 37.2874 2.01763 38.1599 2.39282C39.0325 2.76801 39.8253 3.31817 40.4932 4.01185Z" fill="#00D971"/>
</g>
<defs>
<clipPath id="clip0">
<rect width="177" height="35" fill="white"/>
</clipPath>
</defs>
</svg>
