<svg width="225" height="75" viewBox="0 0 225 75" fill="none" xmlns="http://www.w3.org/2000/svg">
<path fill-rule="evenodd" clip-rule="evenodd" d="M22.752 15.0643C22.752 41.5084 23.0198 54.6995 47.6495 67.416C72.4892 54.5963 72.6572 40.9719 72.6572 15.0643C60.2085 15.0643 57.0582 12.392 47.6495 7.58401C37.7577 12.6603 34.3292 15.0643 22.752 15.0643ZM37.8627 36.3238L47.9225 46.6414L47.6495 60.8488C31.0109 52.2439 28.4592 38.3564 28.4592 20.6719C36.5606 20.0838 44.1369 17.2 47.6495 15.0643V37.5052L42.105 32.6404L37.8627 36.3238ZM47.9225 45.1918L47.6495 38.408L58.0348 28.8487L60.9383 32.0523L47.9225 45.1918Z" fill="white"/>
<path d="M92.9291 39.6461H83.7566L81.7772 43.9692H79.9658L87.4949 27.786H89.2118L96.7409 43.9692H94.9085L92.9291 39.6461ZM92.2938 38.2635L88.3402 29.5709L84.3919 38.2635H92.2938Z" fill="white"/>
<path d="M110.035 36.9222V43.9692H108.365V37.0821C108.365 34.5027 107 33.1975 104.648 33.1975C101.991 33.1975 100.316 34.8174 100.316 37.5929V43.9692H98.6468V31.8305H100.248V34.0745C101.141 32.594 102.81 31.7376 104.974 31.7376C107.966 31.717 110.035 33.4297 110.035 36.9222Z" fill="white"/>
<path d="M120.625 43.2314C119.882 43.8157 118.951 44.1195 118 44.0878C115.669 44.0878 114.372 42.7929 114.372 40.5489V33.1975H112.161V31.8304H114.372V29.153H116.068V31.8304H119.832V33.2182H116.068V40.4766C116.068 41.9108 116.818 42.7001 118.205 42.7001C118.873 42.715 119.525 42.4935 120.042 42.0759L120.625 43.2314Z" fill="white"/>
<path d="M122.814 27.9716C122.823 27.6597 122.956 27.3634 123.185 27.1471C123.414 26.9308 123.72 26.8119 124.038 26.8161C124.194 26.8113 124.35 26.8368 124.496 26.8913C124.642 26.9459 124.776 27.0282 124.89 27.1337C125.003 27.2391 125.095 27.3656 125.158 27.5059C125.222 27.6462 125.257 27.7974 125.261 27.951C125.261 28.2696 125.132 28.5751 124.902 28.8003C124.673 29.0255 124.362 29.1521 124.038 29.1521C123.713 29.1521 123.402 29.0255 123.173 28.8003C122.944 28.5751 122.815 28.2696 122.814 27.951V27.9716ZM123.187 31.8098H124.862V43.9692H123.187V31.8098Z" fill="white"/>
<path d="M130.953 30.3757V31.8305H134.764V33.2182H131V43.9898H129.33V33.1976H127.12V31.8305H129.33V30.3086C129.33 28.1368 130.648 26.6974 133.074 26.6974C133.961 26.6692 134.831 26.9384 135.541 27.461L134.969 28.6888C134.447 28.284 133.796 28.0722 133.132 28.0903C131.709 28.0903 130.953 28.8745 130.953 30.3757V30.3757Z" fill="white"/>
<path d="M144.672 31.717V33.311C144.53 33.311 144.388 33.311 144.273 33.311C141.684 33.311 140.109 34.9309 140.109 37.794V43.9846H138.434V31.8305H140.01V34.2138C140.813 32.5733 142.388 31.717 144.672 31.717Z" fill="white"/>
<path d="M156.533 36.4373V43.9691H154.921V42.0759C154.17 43.3243 152.71 44.0878 150.663 44.0878C147.864 44.0878 146.142 42.6537 146.142 40.5488C146.142 38.6762 147.365 37.1028 150.92 37.1028H154.852V36.365C154.852 34.3015 153.65 33.1511 151.345 33.1511C149.843 33.1316 148.383 33.6403 147.229 34.5852L146.483 33.3781C147.918 32.2756 149.698 31.6959 151.518 31.7376C154.721 31.7169 156.533 33.2904 156.533 36.4373V36.4373ZM154.863 40.3167V38.3306H150.978C148.578 38.3306 147.801 39.254 147.801 40.5024C147.801 41.9159 148.956 42.7929 150.951 42.7929C151.786 42.8388 152.614 42.6239 153.317 42.1791C154.019 41.7343 154.561 41.0823 154.863 40.3167V40.3167Z" fill="white"/>
<path d="M171.754 31.8304V43.9898H170.178V41.7715C169.72 42.5191 169.064 43.1309 168.28 43.5423C167.496 43.9537 166.614 44.1493 165.726 44.1084C162.576 44.1084 160.507 42.3751 160.507 38.8825V31.8304H162.177V38.7226C162.177 41.302 163.542 42.6278 165.894 42.6278C168.483 42.6278 170.094 40.9873 170.094 38.2119V31.8304H171.754Z" fill="white"/>
<path d="M187.263 26.8161V43.9692H185.662V41.5652C185.166 42.3655 184.462 43.0213 183.622 43.4648C182.782 43.9083 181.837 44.1233 180.884 44.0878C177.356 44.0878 174.72 41.5652 174.72 37.8972C174.72 34.2293 177.345 31.7067 180.884 31.7067C181.816 31.6736 182.74 31.8776 183.568 32.2988C184.396 32.72 185.099 33.3441 185.609 34.1107V26.8161H187.263ZM185.615 37.8921C185.615 35.0496 183.635 33.1511 181.026 33.1511C178.416 33.1511 176.416 35.0496 176.416 37.8921C176.416 40.7346 178.39 42.633 181.026 42.633C183.661 42.633 185.615 40.7346 185.615 37.8921Z" fill="white"/>
<path d="M202.227 38.3977H191.873C192.062 40.941 194.036 42.633 196.746 42.633C197.457 42.6555 198.165 42.5238 198.82 42.2475C199.474 41.9711 200.058 41.5568 200.531 41.0338L201.476 42.1017C200.877 42.7568 200.138 43.2744 199.312 43.6176C198.487 43.9609 197.594 44.1214 196.698 44.0878C192.839 44.0878 190.204 41.5084 190.204 37.8972C190.204 34.2861 192.766 31.7067 196.252 31.7067C199.738 31.7067 202.248 34.2293 202.248 37.8972C202.248 38.0211 202.227 38.2171 202.227 38.3977V38.3977ZM191.873 37.175H200.652C200.575 36.0828 200.079 35.0599 199.264 34.3129C198.45 33.5659 197.377 33.1504 196.263 33.1504C195.148 33.1504 194.075 33.5659 193.261 34.3129C192.446 35.0599 191.95 36.0828 191.873 37.175Z" fill="white"/>
</svg>
