<svg width="594" height="552" viewBox="0 0 594 552" fill="none" xmlns="http://www.w3.org/2000/svg">
<path d="M170.172 132.503L174.779 121.861C175.284 120.687 174.89 119.356 173.781 118.56L163.794 111.388L161.773 100.13C161.55 98.8861 160.447 97.9154 159.043 97.7178L146.332 95.9277L138.241 87.0759C137.349 86.0936 135.813 85.7449 134.521 86.1924L122.499 90.2783L110.484 86.1982C109.152 85.7449 107.662 86.1052 106.763 87.0817L98.6655 95.9335L85.9548 97.7236C84.557 97.9212 83.4546 98.8977 83.2315 100.136L81.2104 111.394L71.2164 118.566C70.114 119.356 69.7137 120.687 70.219 121.861L74.8255 132.503L70.219 143.145C69.7071 144.319 70.114 145.65 71.2164 146.441L81.2104 153.607L83.2315 164.865C83.4546 166.109 84.5505 167.085 85.9548 167.283L98.6655 169.073L106.763 177.919C107.662 178.907 109.165 179.256 110.49 178.802L122.499 174.728L134.514 178.808C134.895 178.936 135.288 179 135.689 179C136.653 179 137.605 178.622 138.241 177.919L146.332 169.073L159.043 167.283C160.447 167.085 161.55 166.109 161.773 164.865L163.794 153.607L173.781 146.441C174.89 145.644 175.284 144.319 174.779 143.145L170.172 132.503Z" fill="#45AF49"/>
<path d="M114.843 128.439C109.416 128.439 105 124.528 105 119.721C105 114.914 109.416 111.003 114.843 111.003C120.27 111.003 124.686 114.914 124.686 119.721C124.686 124.528 120.27 128.439 114.843 128.439ZM114.843 116.815C113.032 116.815 111.562 118.117 111.562 119.721C111.562 121.325 113.032 122.627 114.843 122.627C116.654 122.627 118.124 121.325 118.124 119.721C118.124 118.117 116.654 116.815 114.843 116.815Z" fill="#FAFAFA"/>
<path d="M134.529 157.5C129.102 157.5 124.686 153.588 124.686 148.782C124.686 143.975 129.102 140.064 134.529 140.064C139.956 140.064 144.372 143.975 144.372 148.782C144.372 153.588 139.956 157.5 134.529 157.5ZM134.529 145.876C132.725 145.876 131.248 147.184 131.248 148.782C131.248 150.38 132.725 151.688 134.529 151.688C136.334 151.688 137.81 150.38 137.81 148.782C137.81 147.184 136.334 145.876 134.529 145.876Z" fill="#FAFAFA"/>
<path d="M108.281 157.5C107.618 157.5 106.955 157.326 106.378 156.96C104.901 156.024 104.56 154.21 105.616 152.903L138.427 112.218C139.483 110.91 141.53 110.608 143.007 111.544C144.483 112.474 144.818 114.293 143.768 115.595L110.958 156.279C110.308 157.076 109.304 157.5 108.281 157.5Z" fill="#FAFAFA"/>
<path d="M449.29 47.5056V94.9436C449.29 104.387 446.537 113.188 441.772 120.57C433.341 133.692 418.615 142.382 401.852 142.382C385.101 142.382 370.375 133.692 361.944 120.57H361.932C357.167 113.188 354.414 104.387 354.414 94.9436V47.5056L401.852 65.6756L449.29 47.5056Z" fill="#B4734C"/>
<path d="M441.772 120.57C433.341 133.692 418.615 142.382 401.852 142.382C385.101 142.382 370.375 133.692 361.944 120.57C364.931 119.644 368.104 119.138 371.387 119.138H432.317C435.613 119.138 438.785 119.644 441.772 120.57Z" fill="#946142"/>
<path d="M449.29 150.923V151.096C449.241 155.713 447.352 159.885 444.328 162.922C441.254 165.996 437.008 167.897 432.317 167.897H371.387C362.08 167.897 354.513 160.392 354.414 151.097V150.924C354.414 146.233 356.315 141.987 359.389 138.926C362.463 135.852 366.709 133.951 371.387 133.951H432.317C441.698 133.95 449.29 141.542 449.29 150.923Z" fill="#1D9B94"/>
<path d="M449.29 151.096C449.241 155.713 447.352 159.885 444.328 162.922C441.254 165.996 437.008 167.897 432.317 167.897H371.387C362.08 167.897 354.513 160.392 354.414 151.097C356.043 151.048 357.685 151.023 359.327 151.023H444.377C446.018 151.022 447.66 151.047 449.29 151.096Z" fill="#007C75"/>
<path d="M586.072 307.534V399.361C586.072 407.534 584.749 415.395 582.293 422.739C578.454 434.257 571.857 444.501 563.289 452.695C550.044 465.394 532.04 473.184 512.258 473.184H291.447C250.671 473.184 217.634 440.127 217.634 399.361V307.534C217.634 293.188 219.766 279.347 223.726 266.304C226.262 257.959 229.545 249.937 233.496 242.319C251.257 208.13 282.536 182.095 320.251 171.294C332.668 167.738 345.771 165.838 359.33 165.838H444.378C522.635 165.839 586.072 229.266 586.072 307.534Z" fill="#B4734C"/>
<path d="M582.294 422.739C578.455 434.257 571.858 444.501 563.29 452.695C550.045 465.394 532.041 473.184 512.259 473.184H417.674C415.724 469.658 415.057 466.193 415.057 463.101V432.489C415.057 430.367 415.4 428.246 416.077 426.185C419.391 415.981 430.423 408.141 448.851 402.897C463.117 398.836 481.251 396.603 499.902 396.603C522.674 396.603 543.679 399.775 559.035 405.544C572.433 410.555 579.152 416.819 582.294 422.739Z" fill="#946142"/>
<path d="M311.219 218.294C311.027 218.597 310.805 218.89 310.603 219.183C316.513 224.346 320.251 231.923 320.251 240.369V240.662C320.17 248.047 317.25 255.009 312.037 260.242C306.703 265.576 299.63 268.506 292.114 268.506H234.607C230.758 268.506 227.08 267.718 223.726 266.304C226.262 257.959 229.545 249.937 233.496 242.319C251.257 208.13 282.536 182.095 320.251 171.294V187.54C320.251 198.502 317.129 209.14 311.219 218.294Z" fill="#946142"/>
<path d="M401.858 445.941C335.524 445.941 281.556 391.974 281.556 325.64C281.556 259.306 335.523 205.338 401.858 205.338C468.193 205.338 522.16 259.306 522.16 325.64C522.16 391.974 468.192 445.941 401.858 445.941Z" fill="#946142"/>
<path d="M509.309 325.639C509.309 353.18 498.953 378.296 481.92 397.3C472.797 407.504 461.744 415.94 449.338 422.053C438.78 427.266 427.233 430.802 415.058 432.287C410.724 432.823 406.319 433.095 401.853 433.095C342.508 433.095 294.407 384.984 294.407 325.639C294.407 293.471 308.541 264.606 330.94 244.915C349.853 228.265 374.676 218.182 401.853 218.182C461.209 218.183 509.309 266.294 509.309 325.639Z" fill="#EFAE2E"/>
<path d="M481.92 397.3C472.797 407.504 461.744 415.94 449.338 422.053C438.78 427.266 427.233 430.802 415.058 432.287C415.078 430.236 415.422 428.185 416.078 426.185C419.392 415.981 430.424 408.141 448.852 402.897C458.461 400.159 469.827 398.26 481.92 397.3Z" fill="#E59120"/>
<path d="M449.338 388.167V422.053C435.022 429.125 418.897 433.096 401.854 433.096C342.509 433.096 294.408 384.985 294.408 325.64C294.408 293.472 308.542 264.607 330.941 244.916C398.287 257.787 449.338 317.132 449.338 388.167Z" fill="#E59120"/>
<path d="M482.759 325.639C482.759 352.574 469.595 376.437 449.338 391.137C436.002 400.826 419.595 406.534 401.854 406.534C357.178 406.534 320.959 370.314 320.959 325.639C320.959 295.188 337.781 268.668 362.644 254.867C374.263 248.411 387.629 244.744 401.854 244.744C446.539 244.744 482.759 280.963 482.759 325.639Z" fill="#FFD243"/>
<path d="M449.338 388.167V391.137C436.002 400.826 419.595 406.534 401.854 406.534C357.178 406.534 320.959 370.314 320.959 325.639C320.959 295.188 337.781 268.668 362.644 254.867C413.674 277.589 449.338 328.791 449.338 388.167Z" fill="#EFAE2E"/>
<path d="M308.127 142.767V187.536C308.127 196.448 305.529 204.754 301.032 211.72C293.075 224.103 279.178 232.305 263.358 232.305C247.55 232.305 233.652 224.104 225.695 211.72H225.683C221.186 204.754 218.588 196.447 218.588 187.536V142.767L263.357 159.915L308.127 142.767Z" fill="#B4734C"/>
<path d="M301.032 211.721C293.075 224.104 279.178 232.306 263.358 232.306C247.55 232.306 233.652 224.105 225.695 211.721C228.514 210.847 231.508 210.37 234.607 210.37H292.109C295.219 210.369 298.213 210.847 301.032 211.721Z" fill="#946142"/>
<path d="M308.127 240.367V240.53C308.08 244.887 306.298 248.824 303.444 251.69C300.543 254.591 296.536 256.385 292.109 256.385H234.607C225.823 256.385 218.682 249.302 218.589 240.53V240.367C218.589 235.94 220.383 231.933 223.284 229.044C226.185 226.143 230.192 224.349 234.607 224.349H292.109C300.962 224.349 308.127 231.513 308.127 240.367Z" fill="#1D9B94"/>
<path d="M308.127 240.53C308.08 244.887 306.298 248.824 303.444 251.69C300.543 254.591 296.536 256.385 292.109 256.385H234.607C225.823 256.385 218.682 249.302 218.589 240.53C220.127 240.483 221.676 240.46 223.225 240.46H303.49C305.04 240.46 306.589 240.483 308.127 240.53Z" fill="#007C75"/>
<path d="M437.214 388.167V474.821C437.214 494.613 428.97 512.485 415.715 525.165C411.29 529.408 406.299 533.065 400.874 536.026C390.973 541.431 379.617 544.502 367.554 544.502H159.167C120.684 544.502 89.4961 513.304 89.4961 474.821V388.167C89.4961 314.304 149.367 254.443 223.22 254.443H303.49C377.343 254.443 437.214 314.303 437.214 388.167Z" fill="#B4734C"/>
<path d="M437.214 406.969V474.821C437.214 494.613 428.97 512.485 415.715 525.165C411.29 529.408 406.299 533.065 400.874 536.026C395.732 530.57 394.398 525.034 394.398 520.74V490.128C394.398 482.894 398.156 472.973 415.17 465.224C415.099 464.497 415.059 432.49 415.059 432.49C415.059 430.368 415.402 428.247 416.079 426.186C418.624 418.355 425.717 411.909 437.214 406.969Z" fill="#946142"/>
<path d="M263.364 518.787C200.762 518.787 149.83 467.856 149.83 405.254C149.83 342.652 200.761 291.72 263.364 291.72C325.967 291.72 376.898 342.652 376.898 405.254C376.898 467.856 325.966 518.787 263.364 518.787Z" fill="#946142"/>
<path d="M263.364 506.664C319.371 506.664 364.774 461.261 364.774 405.254C364.774 349.246 319.371 303.844 263.364 303.844C207.357 303.844 161.954 349.246 161.954 405.254C161.954 461.261 207.357 506.664 263.364 506.664Z" fill="#EFAE2E"/>
<path d="M263.364 481.598C305.528 481.598 339.708 447.417 339.708 405.254C339.708 363.09 305.528 328.91 263.364 328.91C221.2 328.91 187.02 363.09 187.02 405.254C187.02 447.417 221.2 481.598 263.364 481.598Z" fill="#FFD243"/>
<path d="M551.968 490.125V520.739C551.968 533.859 519.406 544.498 479.239 544.498C453.123 544.498 430.22 540.001 417.397 533.245C410.499 529.616 406.516 525.329 406.516 520.739V490.125H551.968V490.125Z" fill="#EFAE2E"/>
<path d="M551.968 490.125C551.968 503.251 519.406 513.89 479.239 513.89C464.903 513.89 451.535 512.531 440.269 510.187C419.978 505.975 406.516 498.568 406.516 490.125C406.516 484.164 413.234 478.711 424.338 474.536C433.141 471.23 444.716 468.717 457.867 467.402C464.623 466.726 471.8 466.36 479.238 466.36C516.831 466.36 547.761 475.678 551.564 487.632C551.831 488.45 551.968 489.281 551.968 490.125Z" fill="#FFE28F"/>
<path d="M572.631 432.489V463.103C572.631 476.223 540.069 486.862 499.908 486.862C482.743 486.862 466.962 484.914 454.518 481.664C437.856 477.315 427.186 470.616 427.186 463.103V432.489H572.631V432.489Z" fill="#EFAE2E"/>
<path d="M572.631 432.489C572.631 445.609 540.069 456.248 499.908 456.248C484.796 456.248 470.752 454.741 459.121 452.166C439.847 447.886 427.186 440.671 427.186 432.489C427.186 431.633 427.329 430.783 427.602 429.946C429.593 423.823 438.7 418.395 452.168 414.561C464.941 410.926 481.64 408.724 499.909 408.724C521.807 408.724 541.447 411.888 554.778 416.894C565.9 421.062 572.631 426.521 572.631 432.489Z" fill="#FFE28F"/>
<path d="M593.579 307.533C593.579 276.09 583.905 246.011 565.602 220.547C563.185 217.184 558.499 216.417 555.135 218.834C551.772 221.251 551.005 225.938 553.423 229.301C569.881 252.198 578.58 279.251 578.58 307.533V399.363C578.58 406.649 577.396 413.791 575.112 420.566C562.922 407.356 530.494 401.224 499.909 401.224C495.961 401.224 492.057 401.327 488.219 401.522C506.564 380.688 516.815 353.883 516.815 325.64C516.815 262.253 465.246 210.685 401.859 210.685C369.774 210.685 339.161 224.121 317.422 247.639C316.467 247.544 315.513 247.451 314.555 247.376C315.259 245.13 315.632 242.768 315.632 240.362C315.632 231.807 311.038 224.306 304.19 220.191C311.555 211.028 315.632 199.622 315.632 187.534V180.612C329.652 175.784 344.334 173.334 359.331 173.334H394.359V182.997C394.359 187.14 397.717 190.497 401.859 190.497C406.001 190.497 409.359 187.14 409.359 182.997V173.334H444.38C476.295 173.334 507.225 184.736 531.472 205.439C532.885 206.646 534.616 207.236 536.339 207.236C538.457 207.236 540.563 206.343 542.046 204.606C544.736 201.456 544.362 196.722 541.213 194.033C517.079 173.425 486.991 161.114 455.496 158.757C456.34 156.263 456.796 153.622 456.796 150.918C456.796 141.835 451.818 133.897 444.45 129.674C452.398 119.975 456.796 107.824 456.796 94.9396V47.5006C456.796 45.0316 455.581 42.7206 453.546 41.3206C451.511 39.9216 448.919 39.6126 446.613 40.4966L401.856 57.6396L357.098 40.4976C354.793 39.6136 352.2 39.9236 350.165 41.3216C348.131 42.7206 346.915 45.0326 346.915 47.5016V94.9406C346.915 107.859 351.316 119.987 359.264 129.674C351.895 133.896 346.915 141.834 346.915 150.919C346.915 153.625 347.36 156.262 348.197 158.75C337.108 159.566 326.214 161.604 315.631 164.845V142.764C315.631 140.295 314.416 137.984 312.381 136.584C310.346 135.185 307.755 134.875 305.448 135.76L263.36 151.88L221.272 135.76C218.965 134.875 216.374 135.185 214.339 136.584C212.305 137.983 211.089 140.295 211.089 142.764V187.535C211.089 199.644 215.168 211.035 222.532 220.191C215.683 224.306 211.089 231.807 211.089 240.363C211.089 242.783 211.461 245.138 212.153 247.372C139.436 253.038 82 314.019 82 388.166V405.913C82 410.056 85.358 413.413 89.5 413.413C93.642 413.413 97 410.056 97 405.913V388.166C97 318.563 153.625 261.938 223.228 261.938H255.864V270.636C255.864 274.779 259.222 278.136 263.364 278.136C267.506 278.136 270.864 274.779 270.864 270.636V261.938H303.492C339.333 261.938 373.617 277.268 397.553 303.998C400.317 307.084 405.058 307.347 408.144 304.582C411.229 301.819 411.491 297.077 408.728 293.992C396.572 280.418 382.026 269.482 366.018 261.575C376.898 255.452 389.098 252.245 401.858 252.245C442.328 252.245 475.254 285.17 475.254 325.64C475.254 349.659 463.775 371.609 444.679 385.269C444.256 363.838 439.151 343.326 429.463 324.263C427.587 320.571 423.07 319.1 419.379 320.975C415.686 322.852 414.214 327.367 416.091 331.06C425.135 348.855 429.72 368.068 429.72 388.165V416.288C421.759 421.859 419.683 427.811 419.683 432.487V463.099C419.683 464.806 419.948 466.438 420.451 467.998C402.994 474.873 399.017 483.606 399.017 490.123V520.735C399.017 523.149 399.546 525.414 400.534 527.535C390.669 533.737 379.369 536.993 367.553 536.993H159.167C124.888 536.993 97 509.105 97 474.827V440.088C97 435.945 93.642 432.588 89.5 432.588C85.358 432.588 82 435.945 82 440.088V474.827C82 517.377 116.617 551.993 159.167 551.993H367.553C383.343 551.993 398.395 547.309 411.284 538.414C426.477 547.656 453.511 551.997 479.241 551.997C499.436 551.997 518.526 549.393 532.994 544.666C554.872 537.518 559.465 527.706 559.465 520.734V490.122C559.465 488.742 559.268 487.067 558.664 485.228C576.246 478.297 580.131 469.5 580.131 463.097V444.145C588.925 430.843 593.578 415.379 593.578 399.36V307.533H593.579ZM365.482 158.326C363.215 156.514 361.915 153.814 361.915 150.919C361.915 145.695 366.165 141.446 371.388 141.446H432.321C437.544 141.446 441.794 145.695 441.794 150.919C441.794 153.823 440.45 156.54 438.189 158.334H365.491C365.488 158.331 365.485 158.328 365.482 158.326ZM361.915 58.4056L399.171 72.6756C400.899 73.3376 402.809 73.3376 404.536 72.6756L441.793 58.4056V94.9406C441.793 107.343 436.182 118.812 426.397 126.446H409.354V106.789C409.354 102.646 405.996 99.2886 401.854 99.2886C397.712 99.2886 394.354 102.646 394.354 106.789V126.446H377.328C367.53 118.815 361.916 107.382 361.916 94.9406V58.4056H361.915ZM549.001 422.813C562.261 427.146 565.131 431.613 565.131 432.487C565.131 433.361 562.261 437.829 549.001 442.161C535.997 446.411 518.562 448.751 499.907 448.751C481.252 448.751 463.817 446.411 450.813 442.161C437.553 437.829 434.683 433.361 434.683 432.487C434.683 431.613 437.553 427.146 450.813 422.813C463.817 418.564 481.252 416.224 499.907 416.224C518.562 416.224 535.998 418.564 549.001 422.813ZM229.192 246.938C227.232 245.328 226.09 242.942 226.09 240.362C226.09 235.666 229.911 231.844 234.608 231.844H292.113C296.81 231.844 300.631 235.665 300.631 240.362C300.631 242.915 299.465 245.324 297.503 246.938H229.192ZM226.089 153.667L260.677 166.915C262.405 167.577 264.315 167.577 266.042 166.915L300.63 153.668V187.534C300.63 199.06 295.434 209.721 286.371 216.845H270.86V198.716C270.86 194.573 267.502 191.216 263.36 191.216C259.218 191.216 255.86 194.573 255.86 198.716V216.845H240.357C231.287 209.722 226.089 199.083 226.089 187.534V153.667ZM335.739 250.691C352.035 236.323 372.62 227.61 394.358 225.972V237.555C377.975 238.913 362.559 244.74 349.276 254.599C344.837 253.075 340.32 251.769 335.739 250.691ZM409.358 237.566V225.966C458.508 229.629 497.87 268.991 501.533 318.141H489.932C486.321 275.37 452.128 241.177 409.358 237.566ZM444.72 402.959C470.706 388.565 487.476 362.531 489.929 333.14H501.527C499.504 360.328 486.54 385.444 465.246 402.93C464.786 403.308 464.389 403.732 464.044 404.186C457.562 405.332 451.538 406.796 446.155 408.555C445.665 408.715 445.194 408.878 444.721 409.041V402.959H444.72ZM430.993 480.181C445.987 489.835 473.627 494.363 499.907 494.363C516.007 494.363 531.397 492.704 544.31 489.637C544.42 489.862 544.466 490.03 544.466 490.125C544.466 490.999 541.596 495.466 528.336 499.799C515.333 504.048 497.898 506.388 479.242 506.388C460.586 506.388 443.151 504.048 430.148 499.799C416.888 495.466 414.018 490.999 414.018 490.125C414.018 488.832 418.112 484.251 430.993 480.181ZM528.335 530.411C515.332 534.66 497.897 537 479.241 537C460.585 537 443.15 534.66 430.147 530.411C416.887 526.078 414.017 521.611 414.017 520.737V509.351C429.579 517.532 454.99 521.388 479.241 521.388C499.436 521.388 518.526 518.784 532.994 514.057C537.525 512.577 541.304 510.981 544.465 509.321V520.738C544.465 521.611 541.595 526.078 528.335 530.411ZM549.001 472.774C535.998 477.023 518.562 479.363 499.907 479.363C481.252 479.363 463.817 477.023 450.813 472.774C437.553 468.441 434.683 463.974 434.683 463.1V451.714C450.245 459.895 475.655 463.751 499.907 463.751C520.102 463.751 539.192 461.147 553.66 456.42C558.191 454.94 561.97 453.344 565.131 451.684V463.101C565.131 463.974 562.261 468.441 549.001 472.774Z" fill="black"/>
<path d="M263.364 514.165C323.417 514.165 372.274 465.309 372.274 405.255C372.274 345.201 323.417 296.345 263.364 296.345C203.311 296.345 154.454 345.201 154.454 405.254C154.454 465.307 203.311 514.165 263.364 514.165ZM169.753 412.754H179.872C183.46 453.01 215.607 485.157 255.863 488.745V498.864C210.05 495.227 173.391 458.568 169.753 412.754ZM263.364 336.41C301.325 336.41 332.208 367.294 332.208 405.255C332.208 443.216 301.325 474.099 263.364 474.099C225.403 474.099 194.52 443.216 194.52 405.255C194.52 367.294 225.403 336.41 263.364 336.41ZM270.864 498.865V488.746C311.12 485.158 343.268 453.011 346.855 412.755H356.974C353.337 458.568 316.678 495.227 270.864 498.865ZM356.974 397.754H346.855C343.267 357.497 311.12 325.35 270.864 321.762V311.644C316.678 315.282 353.337 351.94 356.974 397.754ZM255.864 311.644V321.762C215.608 325.35 183.46 357.497 179.873 397.754H169.753C173.391 351.94 210.05 315.282 255.864 311.644Z" fill="black"/>
<path d="M262.688 412.737C262.861 412.749 263.035 412.755 263.211 412.755C265.347 412.755 267.085 414.493 267.085 416.629C267.085 418.765 265.347 420.503 263.211 420.503C262.042 420.503 260.946 419.982 260.205 419.072C257.588 415.86 252.864 415.379 249.653 417.997C246.442 420.614 245.961 425.338 248.578 428.549C250.595 431.024 253.155 432.906 256.017 434.085V434.818C256.017 438.961 259.375 442.318 263.517 442.318C267.659 442.318 271.017 438.961 271.017 434.818V433.793C277.535 430.816 282.085 424.251 282.085 416.629C282.085 406.499 274.064 398.208 264.04 397.773C263.867 397.761 263.693 397.755 263.517 397.755C261.381 397.755 259.643 396.017 259.643 393.881C259.643 391.745 261.381 390.007 263.517 390.007C264.686 390.007 265.783 390.528 266.524 391.438C269.141 394.648 273.865 395.128 277.076 392.511C280.286 389.894 280.766 385.169 278.149 381.959C276.205 379.575 273.754 377.745 271.017 376.561V375.692C271.017 371.549 267.659 368.192 263.517 368.192C259.375 368.192 256.017 371.549 256.017 375.692V376.57C249.333 379.477 244.643 386.139 244.643 393.881C244.643 404.01 252.664 412.301 262.688 412.737Z" fill="black"/>
<path d="M299.964 412.754C304.106 412.754 307.464 409.397 307.464 405.254C307.464 401.111 304.106 397.754 299.964 397.754H299.897C295.755 397.754 292.43 401.111 292.43 405.254C292.43 409.397 295.822 412.754 299.964 412.754Z" fill="black"/>
<path d="M226.831 412.754C230.973 412.754 234.331 409.397 234.331 405.254C234.331 401.111 230.973 397.754 226.831 397.754H226.764C222.622 397.754 219.298 401.111 219.298 405.254C219.298 409.397 222.688 412.754 226.831 412.754Z" fill="black"/>
<path fill-rule="evenodd" clip-rule="evenodd" d="M278.376 59.0628C278.376 67.8927 277.324 75.8483 275.176 82.9588C273.028 90.0693 269.522 96.1308 264.7 101.143C259.834 106.155 253.566 110.002 245.807 112.654C238.048 115.335 228.536 116.676 217.314 116.676C205.917 116.676 196.492 115.393 189.041 112.8C181.589 110.206 175.671 106.476 171.331 101.609C166.948 96.7426 163.879 90.7977 162.126 83.7746C160.373 76.7515 159.496 68.7957 159.496 59.9367C159.496 51.1651 160.592 43.2093 162.783 36.0698C164.975 28.93 168.482 22.8687 173.304 17.8563C178.169 12.8438 184.438 8.99726 192.197 6.34533C199.956 3.66434 209.424 2.32373 220.558 2.32373C231.955 2.32373 241.379 3.606 248.875 6.1996C256.371 8.79319 262.332 12.5233 266.672 17.39C271.056 22.2567 274.08 28.2016 275.79 35.2247C277.499 42.248 278.376 50.2036 278.376 59.0628ZM244.448 60.2284C244.448 54.9829 244.229 50.3786 243.79 46.3863C243.352 42.3647 242.694 38.8969 241.818 35.9245C240.897 32.9813 239.758 30.4751 238.442 28.4352C237.127 26.3954 235.505 24.7343 233.577 23.5394C231.691 22.3155 229.544 21.4411 227.133 20.9168C224.722 20.4213 222.048 20.1591 219.111 20.1591C214.07 20.1591 209.862 20.9749 206.53 22.5779C203.199 24.2097 200.613 26.6285 198.64 29.8924C196.712 33.1271 195.352 37.1487 194.607 41.9861C193.818 46.8237 193.424 52.4481 193.424 58.8592C193.424 66.6983 193.906 73.1968 194.827 78.3257C195.791 83.4838 197.281 87.5635 199.298 90.6234C201.314 93.6541 203.944 95.7815 207.1 97.0054C210.3 98.2294 214.114 98.8413 218.629 98.8413C221.96 98.8413 224.941 98.4915 227.527 97.7631C230.114 97.0638 232.349 95.9856 234.322 94.5866C236.25 93.1586 237.872 91.3811 239.143 89.1954C240.459 87.0389 241.511 84.5327 242.299 81.706C243.132 78.8503 243.702 75.6447 244.009 72.0603C244.317 68.5047 244.448 64.5414 244.448 60.2284Z" fill="#0DEB80"/>
<path d="M279.241 34.8538C277.463 27.549 274.243 21.2717 269.68 16.2052C265.036 10.9977 258.58 6.93779 250.489 4.13804C242.553 1.39221 232.483 0 220.558 0C208.894 0 198.809 1.44102 190.598 4.27865C182.381 7.08701 175.574 11.2313 170.359 16.6042C165.322 21.8391 161.621 28.2321 159.358 35.6052C157.13 42.8644 156 51.0508 156 59.937C156 68.8915 156.901 77.0399 158.677 84.1553C160.495 91.4341 163.743 97.7083 168.324 102.794C172.973 108.008 179.397 112.067 187.419 114.858C195.314 117.606 205.372 118.999 217.314 118.999C229.065 118.999 239.194 117.558 247.405 114.721C255.622 111.912 262.429 107.768 267.645 102.395C272.7 97.1407 276.387 90.7552 278.604 83.416C280.772 76.2369 281.872 68.0434 281.872 59.0626C281.872 50.1715 280.987 42.0263 279.241 34.8538V34.8538ZM271.749 82.5012C269.703 89.2732 266.341 95.124 261.762 99.8828C257.227 104.555 251.321 108.156 244.195 110.592C236.975 113.086 227.931 114.351 217.314 114.351C206.513 114.351 197.546 113.136 190.662 110.741C183.808 108.355 178.316 104.884 174.331 100.415C170.194 95.8224 167.248 90.096 165.575 83.3944C163.862 76.5298 162.993 68.6377 162.993 59.9372C162.993 51.3624 164.075 43.4887 166.21 36.5349C168.3 29.7237 171.678 23.8609 176.242 19.1172C180.777 14.4455 186.683 10.8441 193.81 8.40833C201.028 5.91328 210.028 4.64844 220.558 4.64844C231.347 4.64844 240.332 5.864 247.261 8.26144C254.177 10.6547 259.696 14.125 263.673 18.5845C267.787 23.1522 270.703 28.8759 272.339 35.5963C274.025 42.5241 274.88 50.4193 274.88 59.0628C274.88 67.7368 273.826 75.6226 271.749 82.5012V82.5012Z" fill="black"/>
<path d="M245.249 35.4774C245.246 35.4688 245.243 35.46 245.241 35.4514C244.285 32.3955 243.079 29.7268 241.656 27.5195C240.13 25.1525 238.224 23.2478 235.991 21.8577C233.735 20.3986 231.121 19.3387 228.221 18.7077C228.202 18.7035 228.184 18.6998 228.165 18.6958C225.384 18.1245 222.337 17.8347 219.112 17.8347C213.349 17.8347 208.426 18.7969 204.457 20.7063C200.602 22.5947 197.639 25.3161 195.391 29.0358C193.331 32.4903 191.897 36.7678 191.132 41.7354C190.801 43.7672 190.534 45.9668 190.339 48.2734C190.231 49.5552 191.707 50.6522 193.634 50.724C195.564 50.7938 197.212 49.815 197.321 48.5335C197.508 46.3071 197.765 44.1886 198.086 42.2227C198.787 37.6663 200.068 33.8061 201.885 30.759C203.628 27.8739 205.826 25.8098 208.58 24.4606C211.308 23.1483 214.851 22.4832 219.111 22.4832C221.625 22.4832 223.967 22.7012 226.072 23.1314C227.974 23.5481 229.63 24.2256 231.134 25.202C231.154 25.2148 231.173 25.2271 231.193 25.2394C232.724 26.188 234.081 27.5711 235.229 29.3505C236.467 31.2703 237.53 33.6368 238.391 36.3845C239.238 39.2603 239.881 42.6818 240.303 46.5553C240.733 50.4735 240.952 55.0738 240.952 60.2285C240.952 64.7282 240.81 68.5547 240.519 71.9279C240.223 75.3777 239.668 78.5187 238.863 81.2817C238.115 83.9594 237.12 86.3283 235.904 88.322C235.897 88.3336 235.89 88.3455 235.883 88.3569C234.807 90.2062 233.415 91.7735 231.745 93.0153C230.052 94.212 228.241 95.0608 226.21 95.6098C226.195 95.614 226.179 95.6182 226.163 95.6228C224.058 96.2162 221.523 96.517 218.629 96.517C214.73 96.517 211.529 96.0177 208.862 94.9976C206.331 94.0156 204.188 92.2276 202.5 89.6907C200.624 86.8431 199.209 82.9231 198.298 78.0503C197.833 75.4593 197.481 72.4838 197.252 69.2069C197.162 67.9247 195.527 66.9336 193.597 66.9933C191.668 67.0531 190.177 68.141 190.267 69.4231C190.504 72.8113 190.87 75.8993 191.357 78.6123C192.368 84.0173 193.918 88.2511 196.101 91.5638C198.402 95.0216 201.51 97.5278 205.357 99.0199C209.079 100.444 213.545 101.165 218.629 101.165C222.456 101.165 225.9 100.743 228.868 99.9096C231.813 99.1106 234.506 97.8545 236.873 96.1762C236.89 96.1639 236.907 96.1518 236.924 96.1393C239.168 94.4779 241.009 92.4294 242.395 90.051C243.782 87.7719 244.907 85.1071 245.733 82.1484C246.593 79.1994 247.187 75.8493 247.5 72.1933C247.799 68.7316 247.945 64.8181 247.945 60.2285C247.945 54.9616 247.72 50.2476 247.278 46.2183C246.828 42.0958 246.165 38.5826 245.249 35.4774V35.4774Z" fill="black"/>
<path d="M193.424 61.183C195.355 61.183 196.92 60.1422 196.92 58.8588C196.92 57.5753 195.355 56.5345 193.424 56.5345H193.422C191.491 56.5345 189.927 57.5753 189.927 58.8588C189.927 60.1422 191.493 61.183 193.424 61.183Z" fill="black"/>
</svg>
