<svg width="531" height="554" viewBox="0 0 531 554" fill="none" xmlns="http://www.w3.org/2000/svg">
<path d="M100.172 118.503L104.779 107.861C105.284 106.687 104.89 105.356 103.781 104.56L93.7938 97.3879L91.7727 86.1298C91.5496 84.8861 90.4472 83.9154 89.0429 83.7178L76.3322 81.9277L68.2412 73.0759C67.3488 72.0936 65.8132 71.7449 64.5205 72.1924L52.4988 76.2783L40.4837 72.1982C39.1516 71.7449 37.662 72.1052 36.763 73.0817L28.6655 81.9335L15.9548 83.7236C14.557 83.9212 13.4546 84.8977 13.2315 86.1357L11.2104 97.3937L1.21639 104.566C0.113969 105.356 -0.286316 106.687 0.218962 107.861L4.82552 118.503L0.218962 129.145C-0.292878 130.319 0.113969 131.65 1.21639 132.441L11.2104 139.607L13.2315 150.865C13.4546 152.109 14.5505 153.085 15.9548 153.283L28.6655 155.073L36.763 163.919C37.662 164.907 39.1647 165.256 40.4903 164.802L52.4988 160.728L64.514 164.808C64.8946 164.936 65.2883 165 65.6886 165C66.6532 165 67.6047 164.622 68.2412 163.919L76.3322 155.073L89.0429 153.283C90.4472 153.085 91.5496 152.109 91.7727 150.865L93.7938 139.607L103.781 132.441C104.89 131.644 105.284 130.319 104.779 129.145L100.172 118.503Z" fill="#45AF49"/>
<path d="M41.8431 115.439C36.4163 115.439 32 111.528 32 106.721C32 101.914 36.4163 98.0028 41.8431 98.0028C47.2699 98.0028 51.6862 101.914 51.6862 106.721C51.6862 111.528 47.2699 115.439 41.8431 115.439ZM41.8431 103.815C40.032 103.815 38.5621 105.117 38.5621 106.721C38.5621 108.325 40.032 109.627 41.8431 109.627C43.6542 109.627 45.1241 108.325 45.1241 106.721C45.1241 105.117 43.6542 103.815 41.8431 103.815Z" fill="#FAFAFA"/>
<path d="M61.5292 144.5C56.1024 144.5 51.6862 140.588 51.6862 135.782C51.6862 130.975 56.1024 127.064 61.5292 127.064C66.9561 127.064 71.3723 130.975 71.3723 135.782C71.3723 140.588 66.9561 144.5 61.5292 144.5ZM61.5292 132.876C59.7247 132.876 58.2482 134.184 58.2482 135.782C58.2482 137.38 59.7247 138.688 61.5292 138.688C63.3338 138.688 64.8103 137.38 64.8103 135.782C64.8103 134.184 63.3338 132.876 61.5292 132.876Z" fill="#FAFAFA"/>
<path d="M35.2805 144.5C34.6178 144.5 33.955 144.326 33.3775 143.96C31.9011 143.024 31.5599 141.21 32.6163 139.903L65.4266 99.218C66.4831 97.9102 68.5304 97.608 70.0069 98.5437C71.4834 99.4737 71.818 101.293 70.7681 102.595L37.9579 143.279C37.3082 144.076 36.3042 144.5 35.2805 144.5Z" fill="#FAFAFA"/>
<path d="M386.29 49.5056V96.9436C386.29 106.387 383.537 115.188 378.772 122.57C370.341 135.692 355.615 144.382 338.852 144.382C322.101 144.382 307.375 135.692 298.944 122.57H298.932C294.167 115.188 291.414 106.387 291.414 96.9436V49.5056L338.852 67.6756L386.29 49.5056Z" fill="#B4734C"/>
<path d="M378.772 122.57C370.341 135.692 355.615 144.382 338.852 144.382C322.101 144.382 307.375 135.692 298.944 122.57C301.931 121.644 305.104 121.138 308.387 121.138H369.317C372.613 121.138 375.785 121.644 378.772 122.57Z" fill="#946142"/>
<path d="M386.29 152.923V153.096C386.241 157.713 384.352 161.885 381.328 164.922C378.254 167.996 374.008 169.897 369.317 169.897H308.387C299.08 169.897 291.513 162.392 291.414 153.097V152.924C291.414 148.233 293.315 143.987 296.389 140.926C299.463 137.852 303.709 135.951 308.387 135.951H369.317C378.698 135.95 386.29 143.542 386.29 152.923Z" fill="#1D9B94"/>
<path d="M386.29 153.096C386.241 157.713 384.352 161.885 381.328 164.922C378.254 167.996 374.008 169.897 369.317 169.897H308.387C299.08 169.897 291.513 162.392 291.414 153.097C293.043 153.048 294.685 153.023 296.327 153.023H381.377C383.018 153.022 384.66 153.047 386.29 153.096Z" fill="#007C75"/>
<path d="M523.072 309.534V401.361C523.072 409.534 521.749 417.395 519.293 424.739C515.454 436.257 508.857 446.501 500.289 454.695C487.044 467.394 469.04 475.184 449.258 475.184H228.447C187.671 475.184 154.634 442.127 154.634 401.361V309.534C154.634 295.188 156.766 281.347 160.726 268.304C163.262 259.959 166.545 251.937 170.496 244.319C188.257 210.13 219.536 184.095 257.251 173.294C269.668 169.738 282.771 167.838 296.33 167.838H381.378C459.635 167.839 523.072 231.266 523.072 309.534Z" fill="#B4734C"/>
<path d="M519.294 424.739C515.455 436.257 508.858 446.501 500.29 454.695C487.045 467.394 469.041 475.184 449.259 475.184H354.674C352.724 471.658 352.057 468.193 352.057 465.101V434.489C352.057 432.367 352.4 430.246 353.077 428.185C356.391 417.981 367.423 410.141 385.851 404.897C400.117 400.836 418.251 398.603 436.902 398.603C459.674 398.603 480.679 401.775 496.035 407.544C509.433 412.555 516.152 418.819 519.294 424.739Z" fill="#946142"/>
<path d="M248.219 220.294C248.027 220.597 247.805 220.89 247.603 221.183C253.513 226.346 257.251 233.923 257.251 242.369V242.662C257.17 250.047 254.25 257.009 249.037 262.242C243.703 267.576 236.63 270.506 229.114 270.506H171.607C167.758 270.506 164.08 269.718 160.726 268.304C163.262 259.959 166.545 251.937 170.496 244.319C188.257 210.13 219.536 184.095 257.251 173.294V189.54C257.251 200.502 254.129 211.14 248.219 220.294Z" fill="#946142"/>
<path d="M338.858 447.941C272.524 447.941 218.556 393.974 218.556 327.64C218.556 261.306 272.523 207.338 338.858 207.338C405.193 207.338 459.16 261.306 459.16 327.64C459.16 393.974 405.192 447.941 338.858 447.941Z" fill="#946142"/>
<path d="M446.309 327.639C446.309 355.18 435.953 380.296 418.92 399.3C409.797 409.504 398.744 417.94 386.338 424.053C375.78 429.266 364.233 432.802 352.058 434.287C347.724 434.823 343.319 435.095 338.853 435.095C279.508 435.095 231.407 386.984 231.407 327.639C231.407 295.471 245.541 266.606 267.94 246.915C286.853 230.265 311.676 220.182 338.853 220.182C398.209 220.183 446.309 268.294 446.309 327.639Z" fill="#EFAE2E"/>
<path d="M418.92 399.3C409.797 409.504 398.744 417.94 386.338 424.053C375.78 429.266 364.233 432.802 352.058 434.287C352.078 432.236 352.422 430.185 353.078 428.185C356.392 417.981 367.424 410.141 385.852 404.897C395.461 402.159 406.827 400.26 418.92 399.3Z" fill="#E59120"/>
<path d="M386.338 390.167V424.053C372.022 431.125 355.897 435.096 338.854 435.096C279.509 435.096 231.408 386.985 231.408 327.64C231.408 295.472 245.542 266.607 267.941 246.916C335.287 259.787 386.338 319.132 386.338 390.167Z" fill="#E59120"/>
<path d="M419.759 327.639C419.759 354.574 406.595 378.437 386.338 393.137C373.002 402.826 356.595 408.534 338.854 408.534C294.178 408.534 257.959 372.314 257.959 327.639C257.959 297.188 274.781 270.668 299.644 256.867C311.263 250.411 324.629 246.744 338.854 246.744C383.539 246.744 419.759 282.963 419.759 327.639Z" fill="#FFD243"/>
<path d="M386.338 390.167V393.137C373.002 402.826 356.595 408.534 338.854 408.534C294.178 408.534 257.959 372.314 257.959 327.639C257.959 297.188 274.781 270.668 299.644 256.867C350.674 279.589 386.338 330.791 386.338 390.167Z" fill="#EFAE2E"/>
<path d="M245.127 144.767V189.536C245.127 198.448 242.529 206.754 238.032 213.72C230.075 226.103 216.178 234.305 200.358 234.305C184.55 234.305 170.652 226.104 162.695 213.72H162.683C158.186 206.754 155.588 198.447 155.588 189.536V144.767L200.357 161.915L245.127 144.767Z" fill="#B4734C"/>
<path d="M238.032 213.721C230.075 226.104 216.178 234.306 200.358 234.306C184.55 234.306 170.652 226.105 162.695 213.721C165.514 212.847 168.508 212.37 171.607 212.37H229.109C232.219 212.369 235.213 212.847 238.032 213.721Z" fill="#946142"/>
<path d="M245.127 242.367V242.53C245.08 246.887 243.298 250.824 240.444 253.69C237.543 256.591 233.536 258.385 229.109 258.385H171.607C162.823 258.385 155.682 251.302 155.589 242.53V242.367C155.589 237.94 157.383 233.933 160.284 231.044C163.185 228.143 167.192 226.349 171.607 226.349H229.109C237.962 226.349 245.127 233.513 245.127 242.367Z" fill="#1D9B94"/>
<path d="M245.127 242.53C245.08 246.887 243.298 250.824 240.444 253.69C237.543 256.591 233.536 258.385 229.109 258.385H171.607C162.823 258.385 155.682 251.302 155.589 242.53C157.127 242.483 158.676 242.46 160.225 242.46H240.49C242.04 242.46 243.589 242.483 245.127 242.53Z" fill="#007C75"/>
<path d="M374.214 390.167V476.821C374.214 496.613 365.97 514.485 352.715 527.165C348.29 531.408 343.299 535.065 337.874 538.026C327.973 543.431 316.617 546.502 304.554 546.502H96.1671C57.6841 546.502 26.4961 515.304 26.4961 476.821V390.167C26.4961 316.304 86.3671 256.443 160.22 256.443H240.49C314.343 256.443 374.214 316.303 374.214 390.167Z" fill="#B4734C"/>
<path d="M374.214 408.969V476.821C374.214 496.613 365.97 514.485 352.715 527.165C348.29 531.408 343.299 535.065 337.874 538.026C332.732 532.57 331.398 527.034 331.398 522.74V492.128C331.398 484.894 335.156 474.973 352.17 467.224C352.099 466.497 352.059 434.49 352.059 434.49C352.059 432.368 352.402 430.247 353.079 428.186C355.624 420.355 362.717 413.909 374.214 408.969Z" fill="#946142"/>
<path d="M200.364 520.787C137.762 520.787 86.8301 469.856 86.8301 407.254C86.8301 344.652 137.761 293.72 200.364 293.72C262.967 293.72 313.898 344.652 313.898 407.254C313.898 469.856 262.966 520.787 200.364 520.787Z" fill="#946142"/>
<path d="M200.364 508.664C256.371 508.664 301.774 463.261 301.774 407.254C301.774 351.246 256.371 305.844 200.364 305.844C144.357 305.844 98.9541 351.246 98.9541 407.254C98.9541 463.261 144.357 508.664 200.364 508.664Z" fill="#EFAE2E"/>
<path d="M200.364 483.598C242.528 483.598 276.708 449.417 276.708 407.254C276.708 365.09 242.528 330.91 200.364 330.91C158.2 330.91 124.02 365.09 124.02 407.254C124.02 449.417 158.2 483.598 200.364 483.598Z" fill="#FFD243"/>
<path d="M488.968 492.125V522.739C488.968 535.859 456.406 546.498 416.239 546.498C390.123 546.498 367.22 542.001 354.397 535.245C347.499 531.616 343.516 527.329 343.516 522.739V492.125H488.968V492.125Z" fill="#EFAE2E"/>
<path d="M488.968 492.125C488.968 505.251 456.406 515.89 416.239 515.89C401.903 515.89 388.535 514.531 377.269 512.187C356.978 507.975 343.516 500.568 343.516 492.125C343.516 486.164 350.234 480.711 361.338 476.536C370.141 473.23 381.716 470.717 394.867 469.402C401.623 468.726 408.8 468.36 416.238 468.36C453.831 468.36 484.761 477.678 488.564 489.632C488.831 490.45 488.968 491.281 488.968 492.125Z" fill="#FFE28F"/>
<path d="M509.631 434.489V465.103C509.631 478.223 477.069 488.862 436.908 488.862C419.743 488.862 403.962 486.914 391.518 483.664C374.856 479.315 364.186 472.616 364.186 465.103V434.489H509.631V434.489Z" fill="#EFAE2E"/>
<path d="M509.631 434.489C509.631 447.609 477.069 458.248 436.908 458.248C421.796 458.248 407.752 456.741 396.121 454.166C376.847 449.886 364.186 442.671 364.186 434.489C364.186 433.633 364.329 432.783 364.602 431.946C366.593 425.823 375.7 420.395 389.168 416.561C401.941 412.926 418.64 410.724 436.909 410.724C458.807 410.724 478.447 413.888 491.778 418.894C502.9 423.062 509.631 428.521 509.631 434.489Z" fill="#FFE28F"/>
<path d="M530.579 309.533C530.579 278.09 520.905 248.011 502.602 222.547C500.185 219.184 495.499 218.417 492.135 220.834C488.772 223.251 488.005 227.938 490.423 231.301C506.881 254.198 515.58 281.251 515.58 309.533V401.363C515.58 408.649 514.396 415.791 512.112 422.566C499.922 409.356 467.494 403.224 436.909 403.224C432.961 403.224 429.057 403.327 425.219 403.522C443.564 382.688 453.815 355.883 453.815 327.64C453.815 264.253 402.246 212.685 338.859 212.685C306.774 212.685 276.161 226.121 254.422 249.639C253.467 249.544 252.513 249.451 251.555 249.376C252.259 247.13 252.632 244.768 252.632 242.362C252.632 233.807 248.038 226.306 241.19 222.191C248.555 213.028 252.632 201.622 252.632 189.534V182.612C266.652 177.784 281.334 175.334 296.331 175.334H331.359V184.997C331.359 189.14 334.717 192.497 338.859 192.497C343.001 192.497 346.359 189.14 346.359 184.997V175.334H381.38C413.295 175.334 444.225 186.736 468.472 207.439C469.885 208.646 471.616 209.236 473.339 209.236C475.457 209.236 477.563 208.343 479.046 206.606C481.736 203.456 481.362 198.722 478.213 196.033C454.079 175.425 423.991 163.114 392.496 160.757C393.34 158.263 393.796 155.622 393.796 152.918C393.796 143.835 388.818 135.897 381.45 131.674C389.398 121.975 393.796 109.824 393.796 96.9396V49.5006C393.796 47.0316 392.581 44.7206 390.546 43.3206C388.511 41.9216 385.919 41.6126 383.613 42.4966L338.856 59.6396L294.098 42.4976C291.793 41.6136 289.2 41.9236 287.165 43.3216C285.131 44.7206 283.915 47.0326 283.915 49.5016V96.9406C283.915 109.859 288.316 121.987 296.264 131.674C288.895 135.896 283.915 143.834 283.915 152.919C283.915 155.625 284.36 158.262 285.197 160.75C274.108 161.566 263.214 163.604 252.631 166.845V144.764C252.631 142.295 251.416 139.984 249.381 138.584C247.346 137.185 244.755 136.875 242.448 137.76L200.36 153.88L158.272 137.76C155.965 136.875 153.374 137.185 151.339 138.584C149.305 139.983 148.089 142.295 148.089 144.764V189.535C148.089 201.644 152.168 213.035 159.532 222.191C152.683 226.306 148.089 233.807 148.089 242.363C148.089 244.783 148.461 247.138 149.153 249.372C76.436 255.038 19 316.019 19 390.166V407.913C19 412.056 22.358 415.413 26.5 415.413C30.642 415.413 34 412.056 34 407.913V390.166C34 320.563 90.625 263.938 160.228 263.938H192.864V272.636C192.864 276.779 196.222 280.136 200.364 280.136C204.506 280.136 207.864 276.779 207.864 272.636V263.938H240.492C276.333 263.938 310.617 279.268 334.553 305.998C337.317 309.084 342.058 309.347 345.144 306.582C348.229 303.819 348.491 299.077 345.728 295.992C333.572 282.418 319.026 271.482 303.018 263.575C313.898 257.452 326.098 254.245 338.858 254.245C379.328 254.245 412.254 287.17 412.254 327.64C412.254 351.659 400.775 373.609 381.679 387.269C381.256 365.838 376.151 345.326 366.463 326.263C364.587 322.571 360.07 321.1 356.379 322.975C352.686 324.852 351.214 329.367 353.091 333.06C362.135 350.855 366.72 370.068 366.72 390.165V418.288C358.759 423.859 356.683 429.811 356.683 434.487V465.099C356.683 466.806 356.948 468.438 357.451 469.998C339.994 476.873 336.017 485.606 336.017 492.123V522.735C336.017 525.149 336.546 527.414 337.534 529.535C327.669 535.737 316.369 538.993 304.553 538.993H96.167C61.888 538.993 34 511.105 34 476.827V442.088C34 437.945 30.642 434.588 26.5 434.588C22.358 434.588 19 437.945 19 442.088V476.827C19 519.377 53.617 553.993 96.167 553.993H304.553C320.343 553.993 335.395 549.309 348.284 540.414C363.477 549.656 390.511 553.997 416.241 553.997C436.436 553.997 455.526 551.393 469.994 546.666C491.872 539.518 496.465 529.706 496.465 522.734V492.122C496.465 490.742 496.268 489.067 495.664 487.228C513.246 480.297 517.131 471.5 517.131 465.097V446.145C525.925 432.843 530.578 417.379 530.578 401.36V309.533H530.579ZM302.482 160.326C300.215 158.514 298.915 155.814 298.915 152.919C298.915 147.695 303.165 143.446 308.388 143.446H369.321C374.544 143.446 378.794 147.695 378.794 152.919C378.794 155.823 377.45 158.54 375.189 160.334H302.491C302.488 160.331 302.485 160.328 302.482 160.326ZM298.915 60.4056L336.171 74.6756C337.899 75.3376 339.809 75.3376 341.536 74.6756L378.793 60.4056V96.9406C378.793 109.343 373.182 120.812 363.397 128.446H346.354V108.789C346.354 104.646 342.996 101.289 338.854 101.289C334.712 101.289 331.354 104.646 331.354 108.789V128.446H314.328C304.53 120.815 298.916 109.382 298.916 96.9406V60.4056H298.915ZM486.001 424.813C499.261 429.146 502.131 433.613 502.131 434.487C502.131 435.361 499.261 439.829 486.001 444.161C472.997 448.411 455.562 450.751 436.907 450.751C418.252 450.751 400.817 448.411 387.813 444.161C374.553 439.829 371.683 435.361 371.683 434.487C371.683 433.613 374.553 429.146 387.813 424.813C400.817 420.564 418.252 418.224 436.907 418.224C455.562 418.224 472.998 420.564 486.001 424.813ZM166.192 248.938C164.232 247.328 163.09 244.942 163.09 242.362C163.09 237.666 166.911 233.844 171.608 233.844H229.113C233.81 233.844 237.631 237.665 237.631 242.362C237.631 244.915 236.465 247.324 234.503 248.938H166.192ZM163.089 155.667L197.677 168.915C199.405 169.577 201.315 169.577 203.042 168.915L237.63 155.668V189.534C237.63 201.06 232.434 211.721 223.371 218.845H207.86V200.716C207.86 196.573 204.502 193.216 200.36 193.216C196.218 193.216 192.86 196.573 192.86 200.716V218.845H177.357C168.287 211.722 163.089 201.083 163.089 189.534V155.667ZM272.739 252.691C289.035 238.323 309.62 229.61 331.358 227.972V239.555C314.975 240.913 299.559 246.74 286.276 256.599C281.837 255.075 277.32 253.769 272.739 252.691ZM346.358 239.566V227.966C395.508 231.629 434.87 270.991 438.533 320.141H426.932C423.321 277.37 389.128 243.177 346.358 239.566ZM381.72 404.959C407.706 390.565 424.476 364.531 426.929 335.14H438.527C436.504 362.328 423.54 387.444 402.246 404.93C401.786 405.308 401.389 405.732 401.044 406.186C394.562 407.332 388.538 408.796 383.155 410.555C382.665 410.715 382.194 410.878 381.721 411.041V404.959H381.72ZM367.993 482.181C382.987 491.835 410.627 496.363 436.907 496.363C453.007 496.363 468.397 494.704 481.31 491.637C481.42 491.862 481.466 492.03 481.466 492.125C481.466 492.999 478.596 497.466 465.336 501.799C452.333 506.048 434.898 508.388 416.242 508.388C397.586 508.388 380.151 506.048 367.148 501.799C353.888 497.466 351.018 492.999 351.018 492.125C351.018 490.832 355.112 486.251 367.993 482.181ZM465.335 532.411C452.332 536.66 434.897 539 416.241 539C397.585 539 380.15 536.66 367.147 532.411C353.887 528.078 351.017 523.611 351.017 522.737V511.351C366.579 519.532 391.99 523.388 416.241 523.388C436.436 523.388 455.526 520.784 469.994 516.057C474.525 514.577 478.304 512.981 481.465 511.321V522.738C481.465 523.611 478.595 528.078 465.335 532.411ZM486.001 474.774C472.998 479.023 455.562 481.363 436.907 481.363C418.252 481.363 400.817 479.023 387.813 474.774C374.553 470.441 371.683 465.974 371.683 465.1V453.714C387.245 461.895 412.655 465.751 436.907 465.751C457.102 465.751 476.192 463.147 490.66 458.42C495.191 456.94 498.97 455.344 502.131 453.684V465.101C502.131 465.974 499.261 470.441 486.001 474.774Z" fill="black"/>
<path d="M200.364 516.165C260.417 516.165 309.274 467.309 309.274 407.255C309.274 347.201 260.417 298.345 200.364 298.345C140.311 298.345 91.454 347.201 91.454 407.254C91.454 467.307 140.311 516.165 200.364 516.165ZM106.753 414.754H116.872C120.46 455.01 152.607 487.157 192.863 490.745V500.864C147.05 497.227 110.391 460.568 106.753 414.754ZM200.364 338.41C238.325 338.41 269.208 369.294 269.208 407.255C269.208 445.216 238.325 476.099 200.364 476.099C162.403 476.099 131.52 445.216 131.52 407.255C131.52 369.294 162.403 338.41 200.364 338.41ZM207.864 500.865V490.746C248.12 487.158 280.268 455.011 283.855 414.755H293.974C290.337 460.568 253.678 497.227 207.864 500.865ZM293.974 399.754H283.855C280.267 359.497 248.12 327.35 207.864 323.762V313.644C253.678 317.282 290.337 353.94 293.974 399.754ZM192.864 313.644V323.762C152.608 327.35 120.46 359.497 116.873 399.754H106.753C110.391 353.94 147.05 317.282 192.864 313.644Z" fill="black"/>
<path d="M199.688 414.737C199.861 414.749 200.035 414.755 200.211 414.755C202.347 414.755 204.085 416.493 204.085 418.629C204.085 420.765 202.347 422.503 200.211 422.503C199.042 422.503 197.946 421.982 197.205 421.072C194.588 417.86 189.864 417.379 186.653 419.997C183.442 422.614 182.961 427.338 185.578 430.549C187.595 433.024 190.155 434.906 193.017 436.085V436.818C193.017 440.961 196.375 444.318 200.517 444.318C204.659 444.318 208.017 440.961 208.017 436.818V435.793C214.535 432.816 219.085 426.251 219.085 418.629C219.085 408.499 211.064 400.208 201.04 399.773C200.867 399.761 200.693 399.755 200.517 399.755C198.381 399.755 196.643 398.017 196.643 395.881C196.643 393.745 198.381 392.007 200.517 392.007C201.686 392.007 202.783 392.528 203.524 393.438C206.141 396.648 210.865 397.128 214.076 394.511C217.286 391.894 217.766 387.169 215.149 383.959C213.205 381.575 210.754 379.745 208.017 378.561V377.692C208.017 373.549 204.659 370.192 200.517 370.192C196.375 370.192 193.017 373.549 193.017 377.692V378.57C186.333 381.477 181.643 388.139 181.643 395.881C181.643 406.01 189.664 414.301 199.688 414.737Z" fill="black"/>
<path d="M236.964 414.754C241.106 414.754 244.464 411.397 244.464 407.254C244.464 403.111 241.106 399.754 236.964 399.754H236.897C232.755 399.754 229.43 403.111 229.43 407.254C229.43 411.397 232.822 414.754 236.964 414.754Z" fill="black"/>
<path d="M163.831 414.754C167.973 414.754 171.331 411.397 171.331 407.254C171.331 403.111 167.973 399.754 163.831 399.754H163.764C159.622 399.754 156.298 403.111 156.298 407.254C156.298 411.397 159.688 414.754 163.831 414.754Z" fill="black"/>
<path fill-rule="evenodd" clip-rule="evenodd" d="M225.223 60.0555C225.223 69.0338 224.086 77.1231 221.765 84.3531C219.444 91.583 215.656 97.7465 210.446 102.843C205.189 107.94 198.416 111.851 190.033 114.547C181.65 117.273 171.372 118.636 159.247 118.636C146.934 118.636 136.75 117.333 128.699 114.695C120.647 112.058 114.253 108.265 109.565 103.317C104.828 98.3685 101.513 92.3237 99.6187 85.1826C97.7243 78.0414 96.777 69.9519 96.777 60.944C96.777 52.025 97.9612 43.9355 100.329 36.676C102.697 29.4162 106.486 23.253 111.696 18.1564C116.953 13.0597 123.726 9.14848 132.109 6.45198C140.492 3.72593 150.722 2.36279 162.752 2.36279C175.066 2.36279 185.249 3.66661 193.348 6.3038C201.447 8.94099 207.888 12.7338 212.577 17.6823C217.313 22.6308 220.581 28.6756 222.428 35.8167C224.275 42.9581 225.223 51.0473 225.223 60.0555ZM188.565 61.2406C188.565 55.9069 188.328 51.2253 187.854 47.1659C187.38 43.0767 186.67 39.5507 185.723 36.5283C184.728 33.5357 183.497 30.9873 182.076 28.9131C180.655 26.8391 178.902 25.15 176.818 23.9351C174.782 22.6906 172.461 21.8015 169.856 21.2683C167.251 20.7645 164.362 20.4979 161.189 20.4979C155.742 20.4979 151.196 21.3274 147.596 22.9574C143.997 24.6166 141.202 27.0761 139.071 30.3949C136.987 33.6838 135.519 37.773 134.714 42.6917C133.861 47.6106 133.435 53.3296 133.435 59.8484C133.435 67.8193 133.956 74.427 134.951 79.6421C135.992 84.8869 137.603 89.0352 139.781 92.1465C141.96 95.2282 144.802 97.3913 148.212 98.6358C151.669 99.8803 155.79 100.503 160.668 100.503C164.267 100.503 167.488 100.147 170.282 99.4062C173.077 98.6951 175.492 97.5988 177.623 96.1763C179.707 94.7243 181.46 92.9169 182.833 90.6945C184.254 88.5018 185.391 85.9535 186.243 83.0793C187.143 80.1755 187.758 76.916 188.09 73.2714C188.422 69.656 188.565 65.6262 188.565 61.2406Z" fill="#0DEB80"/>
<path d="M226.157 35.4395C224.236 28.012 220.757 21.6292 215.826 16.4775C210.809 11.1826 203.833 7.0544 195.092 4.20759C186.517 1.41561 175.636 0 162.752 0C150.15 0 139.254 1.46523 130.382 4.35057C121.504 7.20612 114.149 11.4201 108.514 16.8833C103.072 22.2061 99.0737 28.7065 96.6282 36.2036C94.2205 43.5848 93 51.9088 93 60.9443C93 70.0493 93.9734 78.3347 95.8927 85.5697C97.8562 92.9708 101.366 99.3505 106.316 104.522C111.338 109.823 118.28 113.95 126.947 116.789C135.477 119.583 146.345 120.999 159.247 120.999C171.944 120.999 182.888 119.534 191.76 116.649C200.637 113.793 207.992 109.579 213.628 104.116C219.089 98.7734 223.073 92.2805 225.469 84.8179C227.812 77.5182 229 69.187 229 60.0552C229 51.0147 228.044 42.7326 226.157 35.4395V35.4395ZM218.062 83.8878C215.851 90.7736 212.219 96.7227 207.272 101.562C202.372 106.312 195.991 109.974 188.291 112.45C180.491 114.987 170.719 116.273 159.248 116.273C147.578 116.273 137.889 115.038 130.451 112.602C123.045 110.176 117.111 106.647 112.806 102.103C108.336 97.4329 105.153 91.6102 103.346 84.796C101.494 77.816 100.555 69.7913 100.555 60.9445C100.555 52.2257 101.725 44.2196 104.031 37.1489C106.29 30.2233 109.94 24.2619 114.871 19.4385C119.77 14.6883 126.152 11.0264 133.852 8.54964C141.651 6.01266 151.375 4.72656 162.752 4.72656C174.41 4.72656 184.117 5.96256 191.604 8.40028C199.076 10.8338 205.039 14.3624 209.336 18.8968C213.782 23.5414 216.932 29.3612 218.699 36.1946C220.521 43.2388 221.445 51.2667 221.445 60.0555C221.445 68.8752 220.307 76.8936 218.062 83.8878V83.8878Z" fill="black"/>
<path d="M189.43 36.0737C189.427 36.065 189.424 36.056 189.421 36.0472C188.389 32.94 187.085 30.2265 185.548 27.9821C183.899 25.5753 181.84 23.6386 179.427 22.2251C176.989 20.7415 174.165 19.6638 171.032 19.0222C171.012 19.0179 170.992 19.0141 170.972 19.0101C167.966 18.4292 164.675 18.1345 161.19 18.1345C154.963 18.1345 149.644 19.1129 145.355 21.0544C141.191 22.9745 137.989 25.7417 135.56 29.5239C133.334 33.0364 131.786 37.3858 130.959 42.4369C130.601 44.5028 130.313 46.7394 130.102 49.0848C129.986 50.3881 131.58 51.5036 133.663 51.5766C135.748 51.6475 137.528 50.6523 137.645 49.3492C137.848 47.0854 138.126 44.9313 138.472 42.9324C139.23 38.2995 140.613 34.3743 142.576 31.276C144.46 28.3425 146.835 26.2436 149.811 24.8718C152.758 23.5375 156.586 22.8611 161.189 22.8611C163.905 22.8611 166.436 23.0828 168.71 23.5202C170.765 23.9439 172.554 24.6328 174.179 25.6256C174.2 25.6386 174.222 25.6512 174.243 25.6637C175.897 26.6282 177.364 28.0345 178.604 29.8439C179.941 31.7959 181.09 34.2022 182.02 36.9961C182.935 39.9202 183.63 43.3992 184.087 47.3378C184.551 51.3218 184.787 55.9995 184.787 61.2408C184.787 65.8161 184.634 69.707 184.319 73.1368C184 76.6446 183.4 79.8384 182.53 82.6478C181.722 85.3706 180.646 87.7792 179.333 89.8065C179.326 89.8183 179.318 89.8303 179.31 89.8419C178.148 91.7224 176.644 93.3159 174.84 94.5786C173.01 95.7955 171.053 96.6586 168.86 97.2168C168.843 97.221 168.826 97.2253 168.809 97.23C166.534 97.8333 163.795 98.1392 160.668 98.1392C156.455 98.1392 152.997 97.6315 150.115 96.5943C147.38 95.5958 145.065 93.7777 143.242 91.1982C141.214 88.3027 139.686 84.3168 138.702 79.3622C138.199 76.7276 137.819 73.7021 137.571 70.3701C137.474 69.0663 135.707 68.0586 133.622 68.1193C131.538 68.1801 129.927 69.2863 130.024 70.5899C130.281 74.0351 130.676 77.175 131.202 79.9336C132.294 85.4294 133.969 89.7344 136.328 93.1028C138.813 96.6186 142.172 99.1669 146.329 100.684C150.35 102.132 155.175 102.866 160.669 102.866C164.803 102.866 168.524 102.436 171.731 101.589C174.913 100.776 177.823 99.4992 180.38 97.7927C180.399 97.7802 180.417 97.7679 180.435 97.7551C182.86 96.0658 184.848 93.9829 186.347 91.5645C187.845 89.2471 189.061 86.5376 189.953 83.5291C190.882 80.5306 191.524 77.1241 191.862 73.4067C192.185 69.8868 192.342 65.9075 192.342 61.2408C192.342 55.8853 192.1 51.0921 191.622 46.9951C191.136 42.8034 190.419 39.2311 189.43 36.0737V36.0737Z" fill="black"/>
<path d="M133.435 62.2113C135.522 62.2113 137.213 61.153 137.213 59.848C137.213 58.543 135.522 57.4847 133.435 57.4847H133.433C131.346 57.4847 129.657 58.543 129.657 59.848C129.657 61.153 131.349 62.2113 133.435 62.2113Z" fill="black"/>
</svg>
