<svg width="2500" height="2500" viewBox="0 0 2500 2500" fill="none" xmlns="http://www.w3.org/2000/svg">
<path d="M178.702 872.331V685.502H248.765C262.772 685.502 274.445 687.253 282.629 690.755C291.383 694.84 298.387 700.676 303.069 708.277C308.322 716.448 310.657 724.619 310.657 732.803C310.657 740.974 308.322 748.561 304.237 755.565C299.567 762.568 293.16 768.405 284.38 772.49C295.469 776.005 304.237 781.841 310.657 789.429C316.493 797.6 319.411 806.951 319.411 818.04C319.475 826.501 317.682 834.873 314.158 842.566C310.073 849.569 305.987 855.406 300.138 859.504C294.11 864.1 287.131 867.291 279.711 868.842C271.54 871.177 261.605 872.344 249.932 872.344L178.702 872.331V872.331ZM203.228 763.735H243.512C254.601 763.735 262.189 763.152 267.441 761.388C273.291 759.637 277.96 756.719 281.462 752.05C284.38 747.964 286.131 742.698 286.131 735.695C286.131 729.858 284.38 724.022 281.462 719.353C278.543 714.684 274.458 711.766 269.205 710.015C263.369 708.264 254.031 707.097 240.594 707.097H203.228V763.735V763.735ZM203.228 850.153H249.958C257.545 850.153 263.382 849.569 266.3 848.986C272.136 847.818 276.805 846.651 280.891 843.733C284.393 841.398 287.895 837.897 290.229 833.811C292.564 829.142 293.744 823.889 293.744 818.053C293.744 811.036 291.993 804.616 288.491 799.947C284.989 794.694 280.32 791.192 273.9 788.858C267.467 787.107 258.129 785.94 246.456 785.94H203.254V850.153H203.228V850.153ZM644.628 872.331L716.442 685.502H743.302L819.201 872.331H791.173L769.566 815.692H691.332L670.892 872.331H644.628V872.331ZM698.349 795.265H761.991L742.135 743.308C737.325 730.646 733.041 717.791 729.295 704.775C726.96 717.031 723.458 728.717 718.789 740.39L698.349 795.265V795.265ZM1150.84 872.331V685.502H1175.95L1274.04 832.047V685.502H1298.01V872.331H1272.3L1174.2 725.202V872.331H1150.84ZM1784.31 806.367L1808.85 812.787C1803.62 833.227 1794.25 848.402 1780.83 859.504C1767.42 870.01 1751.04 875.262 1731.81 875.262C1711.37 875.262 1695.02 871.177 1682.18 863.006C1669.93 854.835 1659.99 843.149 1653.56 827.391C1646.97 811.47 1643.59 794.404 1643.61 777.172C1643.61 757.912 1647.7 740.974 1654.69 726.37C1662.29 711.779 1672.79 700.676 1686.83 693.089C1700.25 685.502 1715.42 682 1731.81 682C1750.46 682 1766.24 686.669 1779.09 696.591C1791.92 705.929 1800.7 719.366 1805.93 736.291L1781.4 742.128C1776.75 728.704 1770.88 718.769 1762.71 712.349C1754.55 706.513 1744.06 703.011 1731.2 703.011C1717.19 703.011 1704.93 706.526 1695.58 713.542C1685.65 720.559 1679.24 729.884 1675.14 740.986C1671.19 752.642 1669.22 764.878 1669.32 777.185C1669.32 792.943 1671.66 806.964 1676.31 818.636C1680.99 830.309 1687.98 839.66 1697.92 845.497C1707.86 851.333 1718.36 854.251 1729.47 854.251C1743.48 854.251 1755.14 850.166 1764.5 841.995C1774.41 834.395 1780.83 822.125 1784.31 806.367V806.367ZM2143.4 781.258C2143.4 750.312 2151.58 725.786 2168.52 708.277C2184.89 690.755 2206.5 682 2232.76 682C2250.27 682 2265.46 686.085 2279.48 694.256C2293.25 702.261 2304.24 714.279 2311 728.704C2318.6 743.295 2322.09 760.234 2322.09 778.923C2322.09 797.587 2318.57 814.538 2310.41 829.726C2302.84 844.9 2292.32 856.002 2278.31 863.59C2264.31 871.177 2249.1 875.262 2232.76 875.262C2215.21 875.262 2199.48 871.177 2185.48 862.422C2172.05 854.251 2161.53 842.566 2153.93 827.975C2146.9 812.787 2143.4 797.6 2143.4 781.258V781.258ZM2169.07 781.258C2169.07 804.033 2174.92 821.542 2187.17 834.395C2199.43 847.818 2214.61 854.238 2232.72 854.238C2251.39 854.238 2266.59 847.818 2278.27 834.395C2290.53 821.542 2296.38 802.865 2296.38 778.923C2296.38 763.748 2294.03 750.312 2288.81 739.21C2284.06 728.359 2276.37 719.054 2266.61 712.349C2256.39 706.212 2244.69 702.983 2232.76 703.011C2215.21 703.011 2200.62 709.444 2187.78 721.117C2174.96 733.373 2169.07 753.23 2169.07 781.258V781.258ZM500.417 1482.47L503.932 1483.05L506.85 1484.82L509.768 1485.98L512.103 1487.75L515.034 1490.09L517.369 1492.43L519.703 1494.78L521.454 1497.71L523.205 1500.63L524.372 1503.56L525.54 1506.49L526.123 1510L526.707 1513.52L527.291 1517.03L526.707 1520.55L526.123 1524.06L525.54 1527.01L524.372 1530.51L523.205 1533.45L521.454 1536.37L519.703 1538.73L517.369 1541.65L515.034 1544L512.103 1545.76L509.768 1548.09L506.85 1549.26L503.932 1551.03L500.417 1551.62L496.902 1552.79L492.817 1553.37H433.26V1480.98H492.817L496.902 1481.56L500.417 1482.47ZM500.417 1203.38L503.932 1204.55L506.85 1205.72L509.768 1207.47L512.103 1209.22L515.034 1211.56L517.369 1213.89L519.703 1216.22L521.454 1219.14L523.205 1222.06L524.372 1224.98L525.54 1227.91L526.123 1231.41L526.707 1234.91L527.291 1238.42L526.707 1241.93L526.123 1245.45L525.54 1248.36L524.372 1251.87L523.205 1254.8L521.454 1257.73L519.703 1260.08L517.369 1262.99L515.034 1265.35L512.103 1267.1L509.768 1268.86L506.85 1270.63L503.932 1271.8L500.417 1272.97L496.902 1273.55L492.817 1274.13H433.26V1202.32H492.817L496.902 1202.9L500.417 1203.38V1203.38ZM492.817 1511.07L493.401 1511.65H493.971L494.555 1512.25H495.138V1512.84L495.722 1513.41L496.306 1514L496.889 1514.59V1519.26H496.306V1519.86L495.722 1520.44L495.138 1521.04V1521.62H494.555L493.971 1522.21H493.401L492.817 1522.79H463.038V1511.12H492.817V1511.07V1511.07ZM492.817 1232.58H493.401L493.971 1233.16H494.555L495.138 1233.75V1234.33L495.722 1234.9H496.306V1235.48L496.889 1236.07V1240.17L496.306 1240.74V1241.32L495.722 1241.9V1242.49H495.138L494.555 1243.07L493.971 1243.66H492.817V1244.24H463.038V1231.98H491.066L492.233 1232.57L492.817 1232.58V1232.58ZM402.91 1450.95H495.735C530.183 1453.9 557.043 1482.48 557.043 1516.93C557.043 1551.38 530.196 1579.97 495.735 1582.34V1582.92H402.898L402.91 1450.95V1450.95ZM402.91 1172.45H495.735C530.183 1175.37 557.043 1203.4 557.043 1238.42C557.043 1272.86 530.196 1301.47 495.735 1303.81V1304.39H402.898L402.91 1172.45V1172.45ZM2117.72 1288.63H2115.97L2112.46 1287.45L2108.95 1286.88L2105.44 1285.69L2101.94 1285.11L2098.43 1283.94L2094.92 1282.77H2094.34L2092.59 1282.19L2087.93 1280.42L2085.57 1279.84L2083.23 1279.24L2080.9 1278.66L2077.97 1278.08L2075.62 1277.49L2073.26 1276.91L2070.93 1276.33H2068.59L2065.67 1275.74H2063.33L2060.95 1275.15H2055.7L2052.78 1274.56H2051.03L2044.01 1275.15H2038.19L2031.76 1276.33L2025.93 1276.91L2020.67 1278.08L2014.84 1279.84L2009.58 1281.01L2004.34 1283.36L1999.67 1285.11L1995.03 1287.45L1990.37 1289.8L1985.69 1292.72L1981.62 1295.66L1977.53 1298.61L1973.47 1302.11L1969.4 1305.61L1965.88 1309.13L1962.38 1312.64L1959.46 1316.7L1955.96 1321.37L1952.99 1325.44L1950.07 1330.11L1947.74 1335.36L1945.4 1340.01L1943.04 1345.26L1941.28 1351.08L1939.53 1356.34L1937.77 1362.17L1936.6 1368.59L1935.43 1375.01L1934.26 1381.43V1387.85L1933.68 1394.87V1400.69L1934.26 1407.11L1934.85 1412.95L1936.01 1418.79L1937.18 1424.01L1938.93 1429.27L1940.7 1434.52L1942.49 1439.77L1944.82 1444.44L1947.16 1449.1L1950.07 1453.75L1952.99 1458.41L1956.51 1462.49L1959.42 1466.58L1962.94 1470.08L1967.03 1473.6L1970.54 1477.1L1974.59 1480.03L1979.27 1482.96L1983.34 1485.89L1988 1488.24L1992.68 1489.99L1997.91 1492.34L2003.16 1494.09L2008.4 1495.27L2013.66 1496.44L2018.32 1497.02L2011.3 1491.2L2004.9 1484.18L1999.63 1476.59L1994.39 1468.42L1990.33 1459.65L1986.82 1450.89L1984.47 1441.55L1983.3 1431.6L1982.72 1423.42V1384.97L1983.3 1376.21L1984.47 1366.87L1986.82 1357.5L1990.33 1348.17L1994.39 1339.4L1999.63 1331.81L2004.9 1324.22L2011.3 1317.22L2018.32 1310.8L2025.92 1305.53L2033.5 1300.31L2042.26 1296.22L2051.61 1292.71L2060.94 1290.36L2070.3 1289.19L2079.07 1288.61L2117.72 1288.63V1288.63ZM2050.6 1011.87C2097.32 1011.87 2142.23 1020.06 2183.72 1034.65L2183.14 1035.23C2202.24 1042.59 2218.66 1055.58 2230.23 1072.46C2241.8 1089.35 2247.97 1109.35 2247.94 1129.82C2247.94 1185.88 2201.79 1231.41 2145.77 1231.41C2133.36 1231.52 2121.05 1229.14 2109.58 1224.41V1224.99C2090.6 1218.45 2070.67 1215.09 2050.6 1215.07C1953.64 1215.07 1880.1 1283.97 1874.25 1384.97C1868.4 1485.39 1945.47 1566.55 2050.02 1557.21C2074.54 1556.62 2096.13 1551.38 2115.39 1542.61V1459.69H2080.37C2059.93 1459.69 2042.41 1442.75 2042.41 1421.73V1386.13C2042.41 1365.69 2059.93 1348.17 2080.37 1348.17H2253.79C2263.91 1348.16 2273.93 1350.15 2283.28 1354.02C2292.63 1357.89 2301.13 1363.57 2308.28 1370.73C2315.44 1377.88 2321.11 1386.38 2324.98 1395.74C2328.84 1405.09 2330.83 1415.11 2330.81 1425.23V1627.81C2330.81 1696.14 2272.42 1731.76 2211.12 1746.35C2149.24 1760.95 2078.58 1757.43 2050.56 1757.43C1837.44 1757.43 1663.44 1589.86 1663.44 1384.92C1663.47 1179.46 1837.47 1011.87 2050.6 1011.87V1011.87ZM1706.68 1646.55C1706.68 1704.35 1658.82 1752.21 1600.43 1752.21C1548.47 1752.21 1504.67 1713.67 1496.48 1664.04L1435.74 1428.73L1373.3 1648.29C1368.63 1665.22 1364.51 1677.47 1355.75 1692.64C1335.33 1727.67 1292.71 1752.21 1244.23 1752.21C1194.6 1752.21 1151.4 1726.53 1130.97 1689.75C1123.38 1675.74 1119.88 1661.72 1115.79 1645.96L1055.07 1434.01L996.096 1671.06H995.512C989.99 1694.17 976.849 1714.74 958.206 1729.46C939.564 1744.18 916.507 1752.2 892.753 1752.21C834.946 1752.21 787.088 1704.35 787.088 1646.55C787.088 1636.61 788.255 1629.03 790.59 1619.7L898.018 1121.68H898.602C903.855 1065.04 964.579 1020.67 1038.14 1020.67C1100.61 1020.67 1154.33 1052.78 1171.86 1096.57C1176.53 1107.65 1178.88 1120.51 1182.38 1131.6L1244.27 1349.96L1305 1137.43C1309.06 1124 1312.6 1109.99 1317.84 1096.57C1335.37 1052.78 1388.47 1020.67 1450.96 1020.67C1507.6 1020.67 1556.64 1046.93 1578.83 1084.31C1581.75 1089.56 1584.05 1094.83 1585.84 1100.07C1591.07 1114.66 1594 1130.43 1597.5 1145.62L1699.08 1597.55C1702.6 1615.59 1706.68 1629.03 1706.68 1646.55V1646.55ZM595.006 1013.64H224.239C210.164 1013.68 196.68 1019.3 186.727 1029.25C176.775 1039.2 171.163 1052.69 171.115 1066.76V1696.75C171.163 1710.83 176.774 1724.32 186.726 1734.28C196.677 1744.23 210.162 1749.85 224.239 1749.9H613.682C714.107 1749.9 795.842 1660.56 795.842 1551.38C795.842 1468.46 749.125 1397.23 683.161 1367.45C722.278 1331.84 747.387 1274.03 747.387 1208.64C747.387 1101.21 679.076 1013.64 595.006 1013.64V1013.64ZM1535.61 1798.35L1529.2 1795.42L1522.77 1792.48L1516.36 1788.98L1510.52 1784.9L1504.69 1780.82L1498.84 1776.75L1493.02 1772.1L1487.75 1767.43L1483.11 1762.76L1477.88 1757.52L1473.2 1752.27L1469.13 1746.43L1465.06 1740.61L1460.97 1734.76L1456.91 1728.35L1453.98 1722.51L1450.47 1715.51L1447.55 1709.09L1445.2 1702.08L1442.85 1695.67L1440.49 1688.08L1438.74 1681.06V1679.89L1432.92 1657.72L1430.58 1665.3L1430 1668.22L1428.83 1671.74L1428.22 1674.65L1427.06 1678.17L1425.89 1681.68L1424.71 1685.2L1423.54 1688.71L1422.36 1692.23L1420.61 1696.3L1419.44 1699.82L1417.69 1703.33L1415.91 1707.42L1414.16 1711.48L1411.83 1714.99L1409.48 1719.06L1407.13 1723.15L1404.19 1728.37L1400.69 1733.04L1397.77 1738.3L1393.7 1742.95L1390.18 1747.03L1386.11 1751.69L1382.06 1755.78L1377.96 1760.44L1373.31 1764.51L1368.63 1768.02L1363.97 1771.54L1359.33 1775.61L1354.66 1778.55L1349.42 1782.06L1344.74 1785L1339.5 1787.93L1333.65 1790.85L1328.42 1793.78L1323.18 1796.13L1317.34 1798.46L1312.1 1800.23L1306.25 1802.57L1300.43 1804.33L1294 1806.08L1288.17 1807.26L1282.33 1808.42L1275.92 1809.6L1270.08 1810.19L1263.67 1811.36H1257.24L1250.81 1811.94H1237.96L1231.54 1811.36H1225.12L1218.7 1810.19L1212.28 1809.6L1205.86 1808.42L1200.02 1807.26L1193.6 1805.49L1187.76 1803.74L1181.34 1801.99L1175.51 1799.64L1169.67 1797.88L1163.83 1794.95L1158.58 1792.61L1152.74 1789.68L1147.49 1786.75L1142.24 1783.82L1136.99 1780.31L1131.73 1776.79L1127.06 1773.28L1122.4 1769.76L1117.73 1765.7L1113.06 1761.62L1108.39 1757.54L1104.3 1752.89L1100.22 1748.81L1096.13 1744.15L1092.63 1738.89L1088.54 1734.24L1085.63 1729L1082.11 1723.73L1079.19 1718.49L1076.86 1714.42L1074.52 1710.33L1072.77 1706.27L1071.02 1702.19L1069.85 1698.1L1068.1 1694.6L1066.94 1691.09L1065.77 1687.01L1064.6 1683.51L1063.43 1680.57L1062.27 1677.07L1061.68 1674.12L1060.52 1670.62L1059.93 1668.26L1059.35 1665.34L1053.51 1687.52L1050.01 1698.6L1047.68 1705.61L1045.34 1711.44L1042.42 1717.87L1039.51 1724.29L1035.99 1730.13L1032.49 1735.95L1028.4 1741.2L1024.32 1747.03L1020.23 1752.28L1016.15 1757.52L1011.48 1762.19L1006.23 1766.86L1001.56 1771.51L996.303 1775.58L991.05 1779.66L985.214 1783.74L979.378 1787.26L973.541 1790.77L967.705 1794.29L961.285 1797.22L955.448 1799.55L948.445 1802.5L942.025 1804.25L935.605 1806.6L928.588 1808.35L921.571 1809.53L914.568 1810.69L907.564 1811.28L900.56 1811.86H884.802L876.047 1811.28L867.877 1810.11L859.706 1808.35L851.535 1806.6L843.714 1804.18L836.127 1801.85L828.539 1798.9L820.952 1795.39L813.935 1791.87L806.932 1787.8L800.512 1783.73L794.092 1779.07L787.672 1773.82L781.835 1768.57L775.999 1763.32L770.746 1757.48L765.493 1752.24L760.24 1756.9L750.902 1763.91L740.98 1770.9L731.058 1777.34L720.54 1783.16L709.451 1788.41L698.362 1793.08L687.273 1797.74L675.6 1801.25L663.343 1804.17L651.087 1806.52L638.83 1808.28L626.574 1809.45H212.566L201.477 1807.7L190.388 1804.75L180.453 1800.68L170.531 1796.02L161.193 1790.19L152.438 1783.77L144.267 1776.76L137.264 1768.58L130.844 1759.83L125.007 1750.48L120.338 1740.54L116.253 1730.02L113.335 1719.49L111.584 1707.83L111 1697.88V1065.01L111.584 1055.09L113.335 1044L116.253 1032.92L120.338 1022.39L125.007 1012.47L130.844 1003.13L137.264 994.96L144.267 986.789L152.438 979.202L161.193 972.782L170.531 967.529L180.453 962.277L190.388 958.775L201.477 955.857L212.566 954.106L222.488 953.522H596.173L606.678 954.106L618.351 955.273L629.44 957.024L640.53 959.358L651.619 962.86L662.137 966.336L672.656 971.005L682.578 976.258L692.512 981.511L701.851 987.931L710.605 994.364L719.36 1001.37L727.531 1008.95L735.118 1017.13L742.705 1025.3L749.709 1033.47L756.713 1042.81L763.146 1052.14L768.982 1061.48L774.235 1071.4L779.488 1081.92L784.157 1091.86L788.242 1102.95L792.328 1114.04L795.829 1125.12L798.748 1136.21L801.082 1147.89L803.417 1159.56L805.168 1171.82L806.335 1183.49L806.919 1195.75L807.502 1208V1216.17L806.919 1223.19L806.335 1230.78L805.777 1238.42L805.194 1246.02L804.026 1253.02L802.859 1260.61L801.692 1267.61L799.941 1274.61L798.774 1281.62L796.439 1288.63L794.688 1295.64L792.354 1302.06L790.019 1309.06L787.685 1315.48L785.35 1321.89L782.432 1328.32L779.514 1334.73L776.582 1341.15L773.081 1347.58L769.579 1353.42L774.831 1358.66L781.251 1365.07L783.586 1367.43L839.641 1108.19L840.809 1104.1L841.976 1098.26L844.31 1090.09L846.645 1081.34L849.576 1073.17L853.078 1065.58L857.164 1057.99L861.833 1050.41L866.502 1043.39L871.171 1036.39L876.424 1029.97L882.26 1023.55L888.096 1017.71L894.516 1011.86L900.937 1006.61L907.356 1001.35L914.36 996.685L921.364 992.016L928.951 987.931L936.538 983.845L944.126 980.343L951.713 976.842L959.884 973.924L968.055 971.005L976.81 968.671L984.981 966.92L993.735 964.585L1002.49 963.418L1011.24 962.251L1020.01 961.083L1029.35 960.5H1046.29L1053.88 961.083L1061.46 961.667L1069.05 962.834L1076.64 963.418L1083.65 965.169L1091.24 966.336L1098.26 968.087L1105.26 970.422L1112.28 972.756L1119.28 975.091L1126.29 977.438L1132.72 980.356L1139.14 983.275L1145.56 986.777L1151.98 990.278L1157.82 993.78L1164.24 997.866L1170.07 1001.95L1175.32 1006.62L1181.16 1010.71L1186.41 1015.37L1191.67 1020.63L1196.34 1025.88L1201 1031.13L1205.67 1036.39L1209.76 1042.22L1213.85 1048.64L1217.93 1054.48L1221.43 1060.91L1224.35 1067.33L1227.28 1073.75L1228.45 1077.84L1229.62 1080.76L1230.78 1084.27L1231.95 1087.19L1233.12 1090.11L1233.7 1093.02L1234.29 1095.94L1235.45 1098.28L1236.04 1101.2L1236.62 1103.53L1237.2 1105.86L1237.79 1108.2L1238.37 1109.95V1111.7L1238.95 1113.45L1239.55 1115.2L1244.22 1132.14L1247.72 1121.05L1248.31 1118.72L1248.89 1116.38L1249.46 1114.05L1250.04 1111.71L1251.21 1108.8L1251.79 1105.88L1252.37 1103.54L1253.53 1100.61L1254.12 1097.11L1255.28 1094.18L1255.87 1091.26L1257.05 1087.75L1258.21 1084.83L1259.37 1081.33L1260.54 1077.82L1262.29 1073.74L1265.24 1067.32L1268.18 1060.9L1271.68 1054.47L1275.78 1048.63L1279.84 1042.21L1283.89 1036.37L1288.58 1031.12L1293.23 1025.87L1297.92 1020.61L1303.14 1015.36L1308.37 1010.69L1314.22 1006.61L1319.46 1001.94L1325.31 997.853L1331.13 993.767L1337.56 990.265L1343.97 986.764L1350.4 983.262L1356.81 980.343L1363.24 977.425L1370.26 975.078L1377.25 972.743L1383.67 970.409L1391.26 968.074L1398.26 966.323L1405.88 965.156L1412.85 963.405L1420.47 962.821L1428.04 961.654L1435.64 961.07L1443.24 960.487H1457.83L1464.85 961.07L1471.84 961.654L1478.86 962.238L1485.25 962.821L1492.27 963.989L1498.67 965.156L1505.69 966.907L1512.12 968.658L1518.52 970.409L1524.92 972.16L1530.77 974.494L1537.21 976.829L1543.03 979.163L1548.88 982.094L1554.7 985.013L1560.55 987.931L1566.38 991.446L1571.6 994.947L1576.86 998.449L1582.1 1001.96L1587.36 1006.04L1592.6 1010.12L1597.28 1014.21L1601.93 1018.29L1606.57 1022.96L1610.67 1027.63L1614.74 1032.88L1618.81 1037.55L1622.9 1042.81L1626.41 1048.64L1629.92 1053.9L1631.69 1057.4L1633.44 1060.32L1635.19 1063.23L1636.37 1066.74L1638.12 1069.65L1639.31 1073.17L1640.47 1076.09L1642.22 1079.6L1643.39 1083.69L1644.58 1087.19L1645.75 1091.27L1646.92 1094.78L1648.09 1098.29L1648.67 1101.79L1649.84 1105.29L1650.43 1108.8L1651.02 1112.3L1652.18 1115.22L1652.77 1118.13L1653.36 1121.05L1653.95 1123.97L1655.12 1129.81L1655.7 1132.14L1663.88 1168.92L1669.15 1160.16L1680.81 1142.05L1693.64 1125.12L1706.48 1108.77L1720.48 1093.6L1735.66 1078.42L1750.83 1064.4L1767.21 1050.39L1784.15 1038.14L1801.69 1025.88L1819.78 1014.79L1838.47 1004.27L1857.72 994.934L1877.56 986.18L1897.42 978.593L1918.4 971.576L1939.43 965.74L1961.03 961.07L1982.64 957.556L2004.83 954.637L2027.61 952.887L2049.81 952.303H2060.28L2065.54 952.887H2075.47L2080.11 953.47H2085.34L2090.02 954.054L2095.26 954.637L2099.94 955.221L2104.6 955.805L2109.85 956.388L2114.49 956.972L2119.15 957.556L2123.83 958.139L2129.07 959.307L2133.75 959.89L2138.39 961.057L2143.04 961.641L2147.72 962.808L2152.38 963.976L2157.03 965.143L2161.7 966.31L2166.34 967.478L2171.03 968.645L2175.68 969.812L2180.36 970.979L2185.01 972.73L2189.65 973.898L2193.75 975.648L2198.41 976.816L2206.01 979.734L2216.52 984.403L2221.18 987.321L2226.42 990.239L2231.69 993.158L2236.33 996.076L2241.6 999.578L2246.24 1003.66L2250.89 1007.16L2254.99 1011.25L2259.07 1015.34L2263.11 1019.42L2267.21 1024.09L2271.28 1028.18L2274.78 1032.85L2278.3 1038.1L2281.8 1042.77L2284.72 1048.02L2287.65 1053.27L2290.61 1058.53L2292.94 1063.78L2295.28 1069.03L2297.61 1074.87L2299.36 1080.7L2301.15 1086.54L2302.92 1092.38L2304.08 1098.21L2305.25 1104.63L2305.83 1110.47L2306.42 1116.89L2307 1123.31V1137.9L2306.42 1146.07L2305.25 1154.24L2303.5 1161.83L2301.74 1170L2299.96 1177.59L2297.03 1185.17L2294.11 1192.19L2291.19 1199.78L2287.09 1206.78L2283.59 1213.2L2279.52 1219.62L2274.84 1226.04L2270.18 1232.48L2264.95 1238.31L2259.7 1243.56L2253.88 1248.82L2248.03 1254.07L2242.2 1258.74L2235.77 1263.4L2229.36 1267.47L2222.35 1271.54L2215.33 1275.06L2208.34 1277.99L2200.74 1280.9L2193.75 1283.85L2185.57 1286.2L2177.97 1287.96L2173.31 1288.54H2260.3L2267.31 1289.13L2274.3 1290.29L2280.74 1291.46L2287.73 1292.63L2294.16 1294.99L2300.59 1296.74L2306.42 1299.67L2312.85 1302.02L2318.67 1304.94L2324.52 1308.45L2329.75 1311.97L2334.98 1316.03L2340.24 1320.11L2344.9 1324.2L2350.17 1328.84L2354.24 1333.51L2358.88 1338.17L2362.97 1343.42L2366.48 1348.67L2370 1353.91L2373.51 1359.76L2376.44 1365.58L2379.36 1372L2381.69 1377.84L2384.06 1384.26L2385.81 1390.68L2386.99 1397.67L2388.15 1404.1L2389.33 1411.1L2389.92 1418.11V1637.05L2388.74 1646.42L2387.57 1655.76L2385.81 1665.11L2383.45 1673.88L2380.53 1682.64L2377.61 1690.81L2374.09 1698.99L2370.01 1707.17L2365.35 1714.17L2360.7 1721.76L2355.43 1728.18L2350.2 1734.6L2344.35 1741.03L2338.54 1746.86L2332.69 1752.1L2326.87 1757.35L2320.44 1762.02L2314.03 1766.67L2307.6 1770.75L2300.61 1774.82L2294.17 1778.9L2287.16 1782.42L2280.17 1785.35L2273.73 1788.87L2266.74 1791.21L2259.73 1794.13L2252.71 1796.48L2245.72 1798.83L2238.7 1801.17L2231.71 1802.92L2224.7 1804.69L2217.7 1805.86L2210.69 1807.62L2203.67 1808.79L2197.26 1809.95L2190.25 1811.12L2183.27 1812.31L2176.84 1812.9L2169.85 1813.48L2163.41 1814.65L2156.99 1815.23H2150.59L2144.15 1815.82L2137.75 1816.4H2131.31L2125.49 1816.98H2119.64L2113.82 1817.57H2061.95L2058.44 1816.98H2049.66L2027.46 1816.4L2004.69 1815.23L1982.5 1812.31L1960.89 1808.23L1939.28 1803.56L1918.26 1797.74L1897.26 1791.32L1877.4 1783.13L1857.56 1774.96L1838.33 1765.03L1819.64 1755.09L1801.54 1743.42L1784 1731.75L1767.06 1718.92L1754.22 1707.84L1753.05 1710.76L1749.54 1718.36L1746.02 1725.37L1741.96 1732.37L1737.29 1738.78L1732.64 1745.21L1727.98 1751.62L1722.71 1757.45L1717.47 1763.29L1711.64 1768.54L1705.81 1773.79L1699.39 1779.03L1692.99 1783.7L1685.97 1787.79L1679.54 1791.85L1671.96 1795.36L1664.95 1798.88L1657.37 1801.81L1649.77 1804.14L1641.59 1806.5L1634.01 1808.26L1625.82 1810.01L1617.05 1811.17L1608.88 1811.76H1592.51L1585.52 1811.17L1577.92 1810.59L1570.32 1809.42L1563.33 1807.67L1555.73 1805.91L1548.74 1803.56L1542.3 1801.23L1535.61 1798.35V1798.35ZM1666.98 1227.91L1659.41 1246.02L1654.14 1261.19L1626.71 1139.16L1626.13 1136.24L1624.96 1130.4L1624.38 1127.49L1623.79 1124.54L1623.21 1121.62L1622.04 1118.69L1621.46 1115.77L1620.84 1112.26L1620.28 1109.34L1619.09 1106.41L1618.49 1102.89L1617.32 1099.39L1616.15 1096.47L1614.99 1092.97L1613.82 1090.05L1613.24 1087.14L1612.07 1084.22L1610.9 1081.88L1609.73 1079.55L1608.54 1076.62L1607.37 1074.28L1605.61 1071.35L1604.43 1069.02L1601.51 1064.35L1598.59 1060.26L1595.67 1055.59L1592.16 1051.51L1588.66 1047.42L1585.14 1043.92L1581.06 1039.84L1577.54 1036.33L1573.48 1032.83L1568.8 1029.33L1564.73 1025.83L1560.05 1022.88L1555.99 1019.97L1551.34 1017.05L1546.08 1014.13L1541.42 1011.78L1536.16 1008.86L1531.5 1006.53L1526.27 1004.78L1521.02 1002.44L1515.2 1000.69L1509.93 998.942L1504.11 997.191L1498.84 996.024L1493.02 994.857L1487.17 993.689L1481.36 992.522L1475.51 991.939L1469.7 991.355L1463.27 990.771H1457.44L1451.01 990.188L1444.6 990.771H1437.59L1431.18 991.355L1424.16 991.939L1417.76 993.106L1411.32 994.273L1404.89 995.44L1399.07 997.191L1392.63 998.942L1386.82 1000.69L1380.97 1003.03L1375.16 1005.36L1369.34 1007.71L1363.49 1010.04L1358.22 1012.96L1352.98 1015.88L1347.74 1019.38L1342.49 1022.3L1337.85 1025.82L1332.58 1029.89L1327.93 1033.4L1323.85 1037.48L1319.76 1041.56L1315.71 1045.65L1311.64 1050.32L1307.54 1054.98L1304.04 1059.65L1301.12 1064.32L1298.19 1069.58L1295.23 1074.83L1292.31 1080.08L1289.98 1085.33L1288.81 1088.25L1287.64 1091.2L1286.48 1094.11L1285.88 1097.05L1284.69 1099.96L1284.1 1102.88L1282.92 1105.81L1282.34 1108.73L1281.17 1111.07L1280.59 1113.98L1280 1116.9L1279.42 1119.24L1278.25 1122.15L1277.67 1124.49L1277.09 1126.82L1276.5 1129.16L1244.38 1240.67L1211.1 1123.32L1210.51 1121.57L1209.93 1119.24L1209.34 1117.49L1208.76 1115.15L1208.18 1113.4L1207.59 1111.07L1207.01 1108.73L1206.43 1106.4L1205.84 1103.48L1205.26 1101.14L1204.68 1098.81L1203.51 1095.89L1202.92 1093.56L1201.76 1090.64L1200.59 1088.3L1200.01 1085.39L1197.67 1080.13L1194.75 1074.88L1191.84 1069.63L1188.92 1064.37L1185.42 1059.71L1181.91 1055.04L1178.4 1050.37L1174.33 1045.7L1170.24 1041.61L1166.16 1037.53L1161.49 1033.44L1156.82 1029.93L1152.15 1025.85L1147.48 1022.34L1142.23 1019.42L1136.97 1015.92L1131.72 1013L1126.47 1010.08L1120.63 1007.75L1114.79 1005.4L1108.96 1003.07L1103.12 1000.73L1097.29 998.981L1090.87 997.23L1084.45 995.479L1078.01 994.312L1071.59 993.145L1065.17 991.977L1058.74 991.394L1052.32 990.81H1045.32L1038.31 990.226L1030.72 990.81H1022.55L1014.97 991.977L1006.8 992.561L999.208 994.312L992.205 995.479L984.617 997.814L977.601 999.565L970.013 1001.91L963.593 1004.83L956.577 1007.76L950.157 1010.68L943.737 1014.19L937.317 1017.7L931.48 1021.78L925.644 1025.87L919.807 1029.95L914.555 1034.62L909.302 1039.29L904.049 1043.96L899.38 1049.21L895.295 1055.05L891.209 1060.3L887.124 1066.14L883.622 1071.97L880.704 1078.39L877.785 1084.81L874.867 1091.25L873.116 1098.25L871.365 1104.67L870.198 1109.92L868.966 1115.2L798.903 1439.25L797.736 1437.5L794.234 1430.49L789.565 1423.47L785.48 1417.06L780.811 1410.04L776.141 1403.64L770.889 1397.8L765.636 1391.38L760.383 1385.54L754.547 1380.29L748.71 1375.05L742.277 1369.8L736.441 1364.55L730.021 1359.9L730.605 1358.72L734.106 1354.07L737.608 1348.81L741.11 1343.56L744.041 1338.32L746.959 1333.07L749.878 1327.82L752.796 1321.99L755.13 1316.74L757.465 1310.92L759.799 1305.07L762.134 1299.26L764.469 1292.82L766.22 1287L767.97 1280.57L769.721 1274.73L770.889 1268.31L772.64 1261.9L773.807 1255.47L774.974 1249.05L775.558 1242.05L776.141 1235.63L776.725 1229.19L777.309 1222.19V1215.07L777.892 1208.05L777.309 1196.96L776.725 1185.89L775.558 1175.38L774.39 1164.29L772.056 1153.78L769.721 1143.27L767.387 1133.33L763.885 1123.41L760.37 1113.49L756.868 1104.15L752.783 1094.81L748.114 1085.48L742.861 1076.71L738.192 1068.54L732.342 1059.78L726.506 1052.2L720.086 1044.61L713.666 1037.59L707.246 1030.59L699.659 1024.16L692.655 1018.32L685.068 1012.48L676.884 1007.23L668.713 1002.56L659.958 998.475L651.204 994.39L642.449 990.888L633.111 988.553L623.76 986.219L614.421 984.468L605.083 983.884L595.745 983.301H223.655L216.068 983.884L207.313 985.051L199.713 987.386L192.126 990.304L184.539 993.806L177.535 997.892L171.115 1002.56L165.265 1007.81L160.013 1013.65L155.344 1020.07L151.258 1027.07L147.756 1034.08L144.838 1041.66L142.504 1049.84L141.336 1058.01V1704.93L142.504 1713.12L144.838 1721.28L147.756 1728.88L151.258 1736.48L155.344 1742.89L160.013 1749.32L165.265 1755.14L171.115 1760.98L177.535 1765.65L184.539 1769.71L192.126 1773.22L199.713 1776.16L207.313 1777.92L216.068 1779.67H624.771L635.86 1778.5L646.366 1777.34L656.884 1774.99L667.39 1772.64L677.325 1769.13L687.247 1765.61L697.181 1761.54L706.52 1756.88L715.858 1751.62L724.613 1745.79L733.367 1739.96L741.538 1733.54L749.709 1726.53L757.296 1719.53L764.3 1711.93L770.72 1704.93L773.638 1710.76L777.14 1716.61L780.655 1722.43L784.157 1727.67L788.242 1732.34L792.328 1737.6L796.997 1742.25L801.666 1746.91L806.919 1750.98L811.588 1755.07L816.841 1758.58L822.677 1762.1L828.513 1765.61L834.35 1768.54L840.199 1771.47L846.035 1773.82L852.456 1776.16L858.876 1777.92L865.879 1779.09L872.299 1780.25L879.303 1781.43L885.736 1782.02H898.576L904.412 1781.43L910.249 1780.85L916.085 1780.25L921.922 1779.09L927.758 1777.34L933.011 1776.16L938.263 1774.4L943.516 1772.06L948.769 1769.71L954.022 1767.37L958.691 1765.03L963.944 1762.1L968.613 1759.16L972.698 1755.65L977.367 1752.14L981.453 1748.62L985.538 1745.11L989.624 1741.03L993.709 1736.96L997.211 1732.88L1000.73 1728.82L1003.64 1724.15L1007.16 1719.48L1010.08 1714.82L1012.41 1710.15L1015.33 1704.9L1017.66 1699.66L1019.42 1694.42L1021.75 1689.17L1024.67 1679.23L1056.78 1549.63L1086.56 1654.14L1087.73 1657.08L1088.3 1660L1089.47 1662.93L1090.05 1665.86L1091.22 1668.79L1091.8 1671.72L1092.97 1674.64L1093.55 1677.57L1094.72 1681.09L1095.89 1684.02L1097.05 1687.53L1098.22 1690.46L1099.97 1693.98L1101.72 1697.48L1102.89 1701L1105.22 1704.51L1107.56 1708.57L1109.89 1712.66L1112.81 1717.3L1115.73 1721.38L1119.23 1724.9L1122.15 1728.98L1125.65 1732.49L1129.15 1736.57L1133.24 1740.07L1136.74 1743.02L1140.83 1746.52L1144.91 1749.45L1149 1752.97L1153.08 1755.3L1157.75 1758.23L1161.84 1761.16L1166.51 1763.5L1171.17 1765.86L1175.84 1768.19L1180.51 1769.94L1185.77 1771.72L1190.43 1773.47L1195.7 1775.22L1200.95 1776.39L1206.21 1778.17L1211.46 1779.33L1216.71 1779.92L1221.96 1781.08L1227.8 1781.67H1233.05L1238.89 1782.25H1249.98L1255.23 1781.67H1260.48L1265.75 1781.08L1270.99 1779.92L1276.26 1779.33L1281.48 1778.17L1286.74 1777L1291.39 1775.81L1296.63 1774.05L1301.31 1772.3L1306.55 1770.53L1311.22 1768.78L1315.87 1766.44L1319.94 1764.08L1324.62 1761.75L1329.28 1759.4L1333.34 1757.05L1337.42 1754.13L1341.49 1751.2L1345.57 1748.27L1349.66 1745.34L1353.17 1741.82L1356.67 1738.31L1360.18 1735.38L1363.68 1731.31L1367.19 1727.79L1370.16 1724.29L1373.07 1720.22L1375.99 1716.13L1378.91 1712.05L1381.27 1707.99L1383.62 1704.47L1385.38 1700.96L1387.13 1698.03L1388.88 1694.51L1390.05 1691.58L1391.22 1688.06L1392.97 1685.13L1394.16 1681.62L1395.33 1678.69L1396.51 1675.76L1397.09 1672.24L1398.26 1669.32L1399.44 1666.38L1400.03 1662.86L1401.19 1659.95L1401.78 1657.03L1434.47 1543.17L1467.74 1673.37V1674.54L1469.51 1680.37L1471.26 1686.21L1473.02 1692.06L1475.35 1697.87L1477.71 1703.12L1480.05 1708.38L1482.97 1713.63L1485.91 1718.28L1489.41 1723.52L1492.34 1728.18L1496.4 1732.85L1499.92 1736.93L1503.99 1741.59L1508.06 1745.66L1512.71 1749.18L1516.79 1753.26L1521.45 1756.77L1526.71 1759.71L1531.37 1763.21L1536.62 1766.16L1541.86 1768.49L1547.09 1770.82L1552.94 1773.19L1558.18 1775.52L1564.03 1776.7L1569.85 1778.46L1575.7 1779.63L1582.11 1780.8L1587.95 1781.38L1594.35 1781.97H1607.18L1614.2 1781.38L1621.21 1780.21L1627.62 1779.05L1634.05 1777.87L1640.46 1776.1L1646.89 1773.77L1653.3 1771.43L1659.15 1768.49L1664.97 1765.57L1670.82 1762.06L1676.06 1758.54L1681.31 1755.04L1686.54 1750.97L1691.78 1746.88L1696.46 1742.24L1700.54 1737.57L1705.22 1732.32L1708.72 1727.66L1712.79 1722.4L1716.29 1716.59L1719.81 1710.74L1722.73 1704.9L1725.06 1699.08L1728.01 1693.25L1729.76 1686.82L1731.52 1680.4L1733.27 1673.4L1734.45 1666.98L1735.62 1659.97V1653.55L1736.2 1648.3L1742.64 1655.9L1756.06 1669.91L1770.65 1682.75L1785.82 1695.59L1801.61 1707.26L1817.95 1718.92L1834.88 1728.87L1852.41 1738.79L1870.52 1747.56L1888.61 1755.73L1907.88 1762.73L1927.13 1769.15L1946.4 1774.4L1966.84 1779.07L1987.25 1782.58L2007.69 1785.52L2029.29 1786.69L2049.72 1787.27H2066.1L2069.6 1787.87H2107.49L2113.34 1787.27H2124.41L2130.22 1786.69H2136.07L2141.9 1786.1L2148.33 1785.52H2154.15L2160.59 1784.92L2166.99 1784.34L2173.43 1783.16L2179.25 1782.58L2185.68 1781.41L2192.09 1780.82L2198.52 1779.66L2204.94 1778.49L2211.35 1776.73L2217.78 1775.55L2224.18 1773.79L2230.61 1772.04L2237.02 1770.27L2243.45 1768.52L2249.27 1766.18L2255.71 1763.82L2262.11 1760.9L2267.96 1758.54L2273.79 1755.62L2279.64 1752.71L2285.45 1749.19L2291.3 1745.68L2297.11 1742.16L2302.37 1738.09L2308.19 1734L2313.46 1729.94L2318.12 1725.27L2322.77 1720.02L2327.44 1715.37L2332.09 1710.11L2336.16 1704.29L2340.26 1698.45L2343.76 1692.6L2347.27 1686.2L2350.19 1679.19L2352.53 1672.77L2354.86 1665.77L2356.62 1658.18L2358.37 1651.17L2358.97 1643.58L2360.16 1635.41V1419.41L2359.58 1414.16L2358.97 1408.9L2357.79 1403.66L2356.62 1398.41L2355.44 1393.16L2353.69 1388.5L2351.36 1383.85L2349.61 1379.19L2347.27 1374.52L2344.33 1369.85L2341.98 1365.78L2339.05 1361.71L2335.55 1357.63L2332.03 1353.56L2328.53 1350.05L2325.03 1346.53L2320.93 1343.02L2317.43 1340.09L2312.77 1337.15L2308.67 1334.22L2304.02 1331.31L2299.93 1328.96L2294.71 1327.19L2290.05 1324.86L2285.37 1323.11L2280.13 1321.93L2274.86 1320.76L2269.64 1319.58L2264.41 1319L2259.14 1318.41H2079.32L2073.47 1319L2066.48 1320.16L2060.04 1321.34L2053.64 1323.69L2047.79 1326.61L2041.96 1330.13L2036.71 1334.2L2032.07 1338.28L2028 1342.95L2023.9 1348.19L2020.4 1354.03L2017.48 1359.86L2015.13 1366.27L2013.92 1372.7L2012.76 1379.7L2012.17 1385.53V1422.31L2012.76 1428.73L2013.92 1435.15L2015.13 1442.16L2017.48 1447.99L2020.4 1454.41L2023.9 1459.65L2028 1464.91L2032.07 1469.58L2036.71 1474.23L2041.96 1477.75L2047.79 1481.25L2053.64 1484.18L2060.04 1486.53L2066.48 1488.28L2073.47 1489.45H2085.14V1521.58L2083.97 1522.17L2080.46 1523.34L2077.53 1523.93L2074.03 1524.52L2070.51 1525.1L2067.01 1525.68L2063.51 1526.27L2059.99 1526.86L2055.92 1527.45H2047.74L2038.41 1528.03H2022.63L2015.05 1526.86L2008.04 1526.27L2001.04 1524.52L1994.03 1522.75L1987.01 1520.4L1980.6 1518.07L1974.17 1515.14L1968.35 1511.62L1962.5 1508.11L1956.69 1504.61L1951.42 1500.52L1946.2 1495.85L1941.51 1491.21L1936.86 1486.54L1932.79 1481.3L1928.7 1475.45L1924.64 1470.21L1921.13 1464.38L1917.61 1457.96L1914.67 1451.55L1912.33 1445.11L1910 1438.71L1908.25 1431.69L1906.48 1424.67L1905.28 1417.1L1904.11 1409.5L1903.53 1401.93V1386.73L1904.11 1378.55L1905.28 1370.38L1906.48 1362.78L1908.25 1355.78L1910 1348.19L1912.33 1341.18L1914.67 1334.76L1917.61 1327.75L1920.54 1321.34L1924.06 1315.5L1927.56 1309.67L1931.07 1303.84L1935.13 1298.6L1939.19 1293.34L1943.87 1288.69L1948.53 1284.02L1953.19 1279.35L1958.44 1275.28L1963.67 1271.2L1969.52 1267.69L1974.76 1264.17L1981.19 1260.66L1987.01 1257.73L1993.44 1255.39L1999.85 1253.06L2006.28 1250.71L2013.3 1248.96L2020.29 1247.79L2027.31 1246.63L2034.88 1245.46H2042.48L2050.08 1244.87H2056.5L2060.02 1245.46H2062.98L2065.89 1246.04H2069.4L2072.33 1246.63L2075.28 1247.21L2078.79 1247.79L2081.7 1248.38L2084.65 1248.96L2087.58 1249.54L2090.51 1250.71L2093.43 1251.29L2096.35 1252.48L2101.03 1253.64L2102.78 1254.23H2103.95L2106.87 1255.39L2109.82 1255.98L2112.75 1257.14L2115.67 1257.73L2118.59 1258.32L2121.55 1258.91L2124.48 1259.49L2127.4 1260.08L2130.31 1260.66H2133.26L2136.77 1261.24H2152.53L2158.96 1260.66L2165.96 1260.08L2172.39 1258.91L2178.78 1257.14L2184.63 1255.38L2191.04 1253.05L2196.89 1250.7L2202.71 1248.36L2208.56 1245.45L2213.8 1241.93L2219.07 1238.42L2224.29 1234.91L2229.55 1231.41L2234.2 1226.74L2238.86 1222.67L2242.96 1218L2247.02 1213.33L2251.08 1208.66L2254.59 1203.41L2258.09 1198.16L2261.02 1192.32L2263.98 1186.48L2266.9 1180.65L2269.23 1174.81L2271.57 1168.98L2273.32 1162.56L2274.5 1156.12L2275.67 1149.7L2276.87 1143.28L2277.46 1136.27V1124.59L2276.87 1119.34L2276.29 1114.09L2275.67 1109.42L2275.08 1104.17L2273.92 1099.5L2272.74 1094.83L2270.98 1090.16L2269.82 1084.91L2268.07 1080.82L2265.73 1076.15L2263.98 1071.48L2261.61 1067.4L2259.27 1063.31L2256.34 1059.23L2254.01 1055.15L2251.06 1051.07L2248.14 1046.98L2245.21 1043.48L2241.7 1039.98L2238.18 1036.48L2234.67 1032.97L2231.17 1030.04L2227.65 1027.13L2223.59 1023.62L2219.53 1021.29L2216.02 1018.37L2211.36 1016.04L2207.29 1013.7L2203.2 1011.37L2194.46 1007.28L2188.61 1005.53L2184.55 1003.78L2180.48 1002.61L2176.38 1001.45L2171.74 999.694L2167.65 998.527L2163.58 997.36L2158.93 996.193L2154.83 995.025L2150.18 993.858L2146.12 993.274L2141.44 992.107L2137.37 990.94L2132.69 990.356L2128.63 989.189L2123.99 988.605L2119.3 988.022L2114.65 987.438L2110.57 986.271L2105.91 985.687L2101.26 985.103H2096.58L2092.51 984.52L2087.85 983.936L2083.18 983.352H2078.54L2073.86 982.769H2064.54L2059.86 982.185H2050.58L2029.55 982.769L2007.94 984.52L1987.5 986.854L1967.09 990.356L1946.65 995.025L1927.38 1000.28L1908.14 1006.7L1888.88 1013.71L1870.78 1021.89L1852.67 1030.64L1835.12 1040.56L1818.18 1051.08L1801.84 1062.17L1786.06 1073.84L1770.88 1086.7L1756.29 1100.12L1742.87 1114.14L1729.45 1128.73L1717.19 1143.91L1705.53 1159.66L1694.45 1176.02L1684.5 1192.96L1675.15 1209.88L1666.98 1227.91V1227.91Z" fill="#E5A430"/>
</svg>
