<svg width="340" height="35" viewBox="0 0 340 35" fill="none" xmlns="http://www.w3.org/2000/svg">
<path d="M204.44 16.9573C207.717 15.9529 209.959 12.7723 209.959 9.42434C209.959 4.23496 205.647 0.886963 198.576 0.886963H183.226V34.1994H198.921C206.509 34.1994 211.339 30.5166 211.339 24.9925C211.683 21.1423 208.579 17.4595 204.44 16.9573ZM188.055 5.07194H198.058C202.715 5.07194 205.302 6.91334 205.302 10.0939C205.302 13.4419 202.543 15.4507 197.714 15.4507H188.055V5.07194ZM198.748 30.1818H188.055V19.6357H198.921C203.75 19.6357 206.682 21.4771 206.682 24.6577C206.682 27.8382 203.922 30.1818 198.748 30.1818Z" fill="#E71A3B"/>
<path d="M230.31 0.720459L214.96 34.2003H220.135L223.929 25.6629H241.176L244.97 34.2003H250.144L234.794 0.720459H230.31ZM225.998 21.3105L232.725 6.24461L239.451 21.3105H225.998Z" fill="#E71A3B"/>
<path d="M279.808 15.6181H260.837V0.886963H256.008V34.1994H260.837V19.9705H279.808V34.1994H284.638V0.886963H279.808V15.6181Z" fill="#E71A3B"/>
<path d="M298.953 0.886963H294.124V34.1994H298.953V0.886963Z" fill="#E71A3B"/>
<path d="M324.65 0.720459H320.166L304.817 34.2003H309.991L313.785 25.6629H331.032L334.826 34.2003H340L324.65 0.720459ZM315.682 21.3105L322.408 6.24461L329.135 21.3105H315.682Z" fill="#E71A3B"/>
<path d="M50.8809 0.68364L36.2211 34.1635H45.3619L47.604 28.4719H62.0913L64.3334 34.1635H73.4743L58.9869 0.68364H50.8809ZM50.5359 21.4412L55.0201 10.3928L59.5043 21.4412H50.5359Z" fill="#0033C6"/>
<path d="M94.6878 14.5773L89.8587 13.5729C87.0992 13.0707 85.7194 12.2337 85.7194 10.2249C85.7194 8.04874 87.6166 6.70953 90.721 6.70953C93.653 6.37474 96.0676 8.38352 96.4125 11.2293H105.036C104.174 2.18975 95.8951 0.180969 90.3761 0.180969C82.2701 0.180969 76.7511 4.36595 76.7511 11.0619C76.7511 16.4187 79.8555 19.4319 86.7543 20.7711L92.4457 21.9429C95.3777 22.4451 96.0676 23.7843 96.0676 24.9561C96.0676 26.7974 94.1704 27.9692 91.2384 27.9692C87.2717 27.9692 84.6846 26.1279 83.9948 23.1147H75.3713C76.2337 31.3172 83.1324 35 90.8935 35C99.5169 35 105.208 30.815 105.208 24.1191C105.036 18.4275 101.069 15.9165 94.6878 14.5773Z" fill="#0033C6"/>
<path d="M121.938 0.68364L107.278 34.1635H116.419L118.661 28.4719H133.148L135.39 34.1635H144.531L130.044 0.68364H121.938ZM121.42 21.4412L125.905 10.3928L130.389 21.4412H121.42Z" fill="#0033C6"/>
<path d="M165.745 14.5773L160.916 13.5729C158.156 13.0707 156.776 12.2337 156.776 10.2249C156.776 8.04874 158.674 6.70953 161.778 6.70953C164.71 6.37474 167.125 8.38352 167.469 11.2293H176.093C175.231 2.18975 166.952 0.180969 161.433 0.180969C153.327 0.180969 147.808 4.36595 147.808 11.0619C147.808 16.4187 150.913 19.4319 157.811 20.7711L163.503 21.9429C166.435 22.4451 167.125 23.7843 167.125 24.9561C167.125 26.7974 165.227 27.9692 162.295 27.9692C158.329 27.9692 155.742 26.1279 155.052 23.1147H146.428C147.291 31.3172 154.189 35 161.951 35C170.574 35 176.265 30.815 176.265 24.1191C176.093 18.4275 171.954 15.9165 165.745 14.5773Z" fill="#0033C6"/>
<path d="M26.7353 20.4368C26.0455 24.4543 22.4236 27.4675 18.2844 27.1327C12.7654 26.9653 8.62617 22.4456 8.79864 17.0888C8.97111 12.0668 13.1103 8.0492 18.2844 7.8818C22.4236 7.7144 26.2179 10.5602 26.7353 14.5778L35.3588 13.2386C33.8066 5.37081 26.5629 -0.320765 18.2844 0.0140336C8.45371 -0.153366 0.175228 7.547 0.00275968 17.0888C-0.169709 26.6305 7.76383 34.6657 17.5945 34.8331C17.767 34.8331 17.9395 34.8331 18.2844 34.8331C26.5629 35.1679 33.8066 29.4763 35.3588 21.6085L26.7353 20.4368Z" fill="#0033C6"/>
</svg>
