<svg width="267" height="202" viewBox="0 0 267 202" fill="none" xmlns="http://www.w3.org/2000/svg">
<g clip-path="url(#clip0)">
<path d="M230.675 76.8198H173.017C171.293 76.8198 169.881 78.0761 169.881 79.6234V131.202C169.881 132.744 171.291 134 173.017 134H230.675C232.396 134 233.809 132.744 233.809 131.202V79.6234C233.811 78.0761 232.398 76.8198 230.675 76.8198Z" fill="#009EE2"/>
<path d="M229.529 110.904C227.217 108.28 221.559 107.731 218.497 107.731C205.733 107.731 193.52 109.853 182.286 113.734C182.384 110.756 182.288 107.774 181.913 104.831C190.465 102.598 205.556 100.805 215.489 101.583C224.767 102.311 228.263 106.937 229.529 110.904Z" fill="white"/>
<path d="M225.376 103.33C222.788 101.156 220.815 99.5894 212.969 98.5739C205.125 97.5639 188.528 99.0915 181.183 100.746C180.656 98.1492 179.948 95.5847 179.062 93.072C184.093 92.2815 189.272 91.8656 194.563 91.8656C199.7 91.8656 204.746 92.2583 209.643 93.006C220.019 94.5961 223.321 99.7946 225.376 103.33V103.33Z" fill="white"/>
<path d="M173.438 81.6971C200.155 81.0761 215.163 91.5391 218.152 94.4213C215.551 92.4814 210.531 90.8289 206.208 90.0829C200.895 89.171 195.411 88.6963 189.779 88.6963C185.663 88.6963 181.608 88.9533 177.645 89.4529C176.636 87.0955 174.765 83.9296 173.438 81.6971Z" fill="white"/>
<path d="M225.376 126.05C229.673 118.106 228.666 116.718 220.227 117.637C207.11 119.07 190.575 124.094 178.084 130.127C180.363 126.183 181.474 122.213 181.913 118.631C193.973 113.895 207.241 111.168 221.19 110.922C235.794 110.663 230.314 120.657 225.376 126.05Z" fill="white"/>
<path d="M116.742 110.279C118.549 110.044 121.239 109.865 124.227 109.865C127.916 109.865 130.493 110.311 132.267 111.427C133.739 112.372 134.553 114.361 134.553 116.19C134.553 118.722 132.726 120.528 130.589 121.147V121.235C131.651 122.559 137.999 129.854 137.999 129.854H131.792L125.123 122.057H122.312V129.854H116.742V110.279ZM122.312 118.82H124.52C127.325 118.82 128.983 117.703 128.983 115.96C128.983 114.136 127.433 113.224 124.854 113.193C123.491 113.193 122.713 113.281 122.31 113.336V118.82H122.312ZM34.3323 125.25C35.8485 125.869 38.1707 126.481 40.5687 126.481C43.1522 126.481 44.5168 125.628 44.5168 124.336C44.5168 123.096 43.3397 122.386 40.3433 121.533C36.2136 120.384 33.5203 118.561 33.5203 115.669C33.5203 112.276 37.0595 109.683 42.9248 109.683C45.7298 109.683 47.7986 110.16 49.2789 110.69L48.024 114.312C47.0285 113.93 45.2569 113.368 42.8171 113.368C40.3851 113.368 39.2001 114.255 39.2001 115.283C39.2001 116.557 40.6066 117.112 43.8166 118.083C48.2135 119.386 50.2784 121.206 50.2784 124.01C50.2784 127.336 47.0684 130.201 40.2415 130.201C37.3966 130.201 34.5937 129.583 33.1912 128.962L34.3323 125.25ZM67.0364 121.474H57.8793V126.192H68.1037V129.874H52.2315V110.01H67.587V113.693H57.8833V117.821H67.0384V121.474H67.0364ZM90.8787 128.962C89.143 129.437 85.8593 130.083 82.5715 130.083C78.0329 130.083 74.7491 129.165 72.4568 127.401C70.1666 125.691 68.9117 123.098 68.9496 120.187C68.9895 113.581 75.0025 109.803 83.162 109.803C86.372 109.803 88.8438 110.302 90.0647 110.781L88.8857 114.373C87.5191 113.904 85.8214 113.516 83.0882 113.516C78.4059 113.516 74.8608 115.64 74.8608 119.945C74.8608 124.04 78.0708 126.46 82.6832 126.46C83.974 126.46 85.0094 126.342 85.4523 126.166V122.009L85.4683 118.504H90.8767V128.962H90.8787ZM99.0343 110.011V121.447C99.0343 124.863 100.658 126.603 103.535 126.603C106.49 126.603 108.114 124.959 108.114 121.447V110.011H113.723V121.153C113.723 127.286 109.847 130.201 103.351 130.201C97.0752 130.201 93.3824 127.429 93.3824 121.094V110.015H99.0323V110.011H99.0343ZM159.956 119.741C159.956 126.248 155.01 130.201 147.738 130.201C140.355 130.201 136.04 125.75 136.04 120.091C136.04 114.139 140.802 109.683 148.145 109.683C155.788 109.685 159.956 114.255 159.956 119.741ZM141.983 120C141.983 123.896 144.271 126.637 148.034 126.637C151.836 126.637 154.015 123.747 154.015 119.889C154.015 116.318 151.876 113.247 147.996 113.247C144.197 113.251 141.983 116.142 141.983 120V120Z" fill="#1D1D1B"/>
<path d="M52.846 82.4395C50.851 81.1599 47.8724 80.5389 43.7388 80.5389C40.1597 80.5389 37.1333 80.6959 34.7194 81.0172V104.463H41.0256C41.0256 104.054 41.0256 95.7865 41.0256 95.7865L41.2969 95.8222C41.9034 95.8918 42.7014 95.9292 43.5951 95.9292C47.7607 95.9292 51.1143 95.0655 53.2809 93.4308C55.0205 92.1156 55.9781 90.1311 55.9781 87.8593C55.9841 85.6696 54.843 83.6941 52.846 82.4395ZM43.5572 92.1673C42.4759 92.1673 41.7797 92.1191 41.2171 92.0156L41.0256 91.9764V84.4989L41.2031 84.4525C41.5183 84.39 42.4041 84.2348 44.0999 84.2348C47.5971 84.2348 49.6839 85.6428 49.6839 88.0021C49.6839 90.5683 47.3358 92.1673 43.5572 92.1673ZM71.6768 80.3265C63.1462 80.3265 57.1811 85.443 57.1811 92.7741C57.1811 99.9999 62.813 104.861 71.1821 104.861C80.0698 104.861 85.8094 99.9481 85.8094 92.3404C85.8114 86.3585 81.4424 80.3265 71.6768 80.3265V80.3265ZM71.5432 100.949C66.9187 100.949 63.9342 97.696 63.9342 92.6634C63.9342 87.6219 66.9706 84.2348 71.4993 84.2348C75.9501 84.2348 79.0603 87.6434 79.0603 92.5207C79.0603 97.6424 76.1117 100.949 71.5432 100.949V100.949ZM104.971 94.2981L104.926 94.2428V93.9091L105.091 93.8573C107.244 93.2399 109.755 91.3357 109.755 88.0253C109.755 85.6857 108.676 83.4281 107.074 82.4002C105.037 81.1117 102.059 80.5389 97.4184 80.5389C94.1765 80.5389 90.9585 80.7156 88.5386 81.0154V104.461H94.8428C94.8428 104.047 94.8428 94.9566 94.8428 94.9566H98.6313C98.6313 94.9566 106.611 104.29 106.757 104.461H113.702C112.269 102.812 106.113 95.7151 104.971 94.2981ZM97.7795 91.441H94.8448V84.3758L95.0423 84.3454C95.8802 84.2241 96.9376 84.1634 98.1924 84.1634C101.586 84.2027 103.457 85.4769 103.457 87.7504C103.455 90.0312 101.287 91.441 97.7795 91.441V91.441ZM133.434 80.7191C133.434 81.0903 133.434 84.5078 133.434 84.879C132.981 84.879 125.167 84.879 125.167 84.879C125.167 84.879 125.167 104.044 125.167 104.465C124.736 104.465 119.208 104.465 118.773 104.465C118.773 104.044 118.773 84.879 118.773 84.879C118.773 84.879 111.094 84.879 110.641 84.879C110.641 84.5078 110.641 81.0903 110.641 80.7191C111.114 80.7191 132.969 80.7191 133.434 80.7191V80.7191ZM147.106 80.3265C138.577 80.3265 132.612 85.443 132.612 92.7741C132.612 99.9999 138.236 104.861 146.617 104.861C155.501 104.861 161.243 99.9481 161.243 92.3404C161.239 86.3585 156.873 80.3265 147.106 80.3265V80.3265ZM146.972 100.949C142.352 100.949 139.369 97.696 139.369 92.6634C139.369 87.6219 142.404 84.2348 146.932 84.2348C151.387 84.2348 154.497 87.6434 154.497 92.5207C154.493 97.6424 151.545 100.949 146.972 100.949V100.949Z" fill="#1D1D1B"/>
</g>
<defs>
<clipPath id="clip0">
<rect width="267" height="202" fill="white"/>
</clipPath>
</defs>
</svg>
