<svg width="218" height="82" viewBox="0 0 218 82" fill="none" xmlns="http://www.w3.org/2000/svg">
<path fill-rule="evenodd" clip-rule="evenodd" d="M42.7097 29.6387C45.6086 29.7133 48.3122 30.3617 50.653 31.9103C51.2618 32.3155 51.7932 32.8656 52.1924 33.4377C52.6912 34.1523 52.6912 34.9575 52.0938 35.6687C51.482 36.3934 50.6156 36.7943 49.6286 36.6112C48.6846 36.4349 47.7368 36.1221 46.8982 35.7009C45.2199 34.8584 43.468 34.4074 41.5494 34.6363C40.9061 34.7134 40.2292 34.8795 39.6663 35.1567C37.8176 36.0721 37.5563 38.1522 39.1407 39.5702C39.808 40.1695 40.6217 40.6738 41.4575 41.0858C43.5197 42.1046 45.6517 43.026 47.7263 44.0287C49.5874 44.934 51.2235 46.0783 52.223 47.7862C54.6873 51.9802 53.0186 56.4853 48.2347 58.595C43.7868 60.5538 37.0719 59.8495 33.3707 57.0311C32.6623 56.4929 32.062 55.8725 31.8801 55.0367C31.4761 53.1541 33.4549 51.7802 35.5889 52.4922C36.3328 52.7397 37.0297 53.1228 37.7133 53.494C39.6835 54.562 41.7849 55.0774 44.0998 54.7485C45.2736 54.5798 46.3199 54.1908 47.0092 53.2864C47.9302 52.0802 47.6363 50.6096 46.2376 49.3238C45.107 48.2787 43.7006 47.5836 42.2607 46.9403C40.5365 46.1715 38.7846 45.451 37.1025 44.6178C35.1935 43.6761 33.6464 42.3776 32.7982 40.5552C31.0606 36.8087 32.6393 32.9614 36.6803 30.9771C38.5567 30.0566 40.5825 29.6718 42.7097 29.6387V29.6387ZM159.218 29.6387C162.117 29.7133 164.82 30.3617 167.161 31.9103C167.769 32.3155 168.301 32.8656 168.7 33.4377C169.2 34.1523 169.2 34.9575 168.602 35.6687C167.991 36.3934 167.124 36.7943 166.137 36.6112C165.192 36.4349 164.245 36.1221 163.406 35.7009C161.728 34.8584 159.976 34.4074 158.058 34.6363C157.415 34.7134 156.738 34.8795 156.174 35.1567C154.326 36.0721 154.065 38.1522 155.648 39.5702C156.316 40.1695 157.129 40.6738 157.966 41.0858C160.027 42.1046 162.16 43.026 164.235 44.0287C166.096 44.934 167.732 46.0783 168.732 47.7862C171.195 51.9802 169.526 56.4853 164.742 58.595C160.295 60.5538 153.58 59.8495 149.879 57.0311C149.171 56.4929 148.57 55.8725 148.389 55.0367C147.985 53.1541 149.963 51.7802 152.096 52.4922C152.841 52.7397 153.538 53.1228 154.221 53.494C156.192 54.562 158.293 55.0774 160.608 54.7485C161.781 54.5798 162.828 54.1908 163.518 53.2864C164.439 52.0802 164.144 50.6096 162.745 49.3238C161.615 48.2787 160.209 47.5836 158.768 46.9403C157.044 46.1715 155.292 45.451 153.611 44.6178C151.702 43.6761 150.155 42.3776 149.306 40.5552C147.569 36.8087 149.147 32.9614 153.189 30.9771C155.065 30.0566 157.091 29.6718 159.218 29.6387V29.6387ZM127.42 29.7877C131.746 29.7877 135.682 31.2304 138.697 33.5978V32.384C138.697 31.1143 140.005 30.0174 141.513 30.0174C142.89 30.0174 144.268 31.1143 144.268 32.384V56.9827C144.268 58.2515 142.89 59.3484 141.513 59.3484C140.005 59.3484 138.697 58.2515 138.697 56.9827V55.7689C135.682 58.1363 131.746 59.5798 127.42 59.5798C117.983 59.5798 110.447 52.9421 110.447 44.6236C110.447 36.4271 117.983 29.7877 127.42 29.7877ZM189.354 29.7877C193.681 29.7877 197.617 31.2304 200.63 33.5978V32.384C200.63 31.1143 201.939 30.0174 203.447 30.0174C204.824 30.0174 206.201 31.1143 206.201 32.384V56.9827C206.201 58.2515 204.824 59.3484 203.447 59.3484C201.939 59.3484 200.63 58.2515 200.63 56.9827V55.7689C197.617 58.1363 193.681 59.5798 189.354 59.5798C179.918 59.5798 172.382 52.9421 172.382 44.6236C172.382 36.4271 179.918 29.7877 189.354 29.7877ZM73.2716 29.7869C82.3149 29.7869 89.9843 36.2534 90.1164 43.8175C90.1164 45.1398 89.0652 46.1612 87.8321 46.4121C87.7948 46.4222 87.7555 46.4248 87.7172 46.4332C87.6426 46.446 87.5698 46.4663 87.4932 46.4722H87.3726C87.3554 46.4722 87.3372 46.4773 87.3199 46.4773H62.0629C63.048 51.213 67.6357 54.6153 73.2716 54.6153C76.2194 54.6153 79.0369 53.8067 80.9382 52.0182C81.5279 51.4978 82.3149 51.035 83.1679 51.035C84.6757 51.035 85.9854 52.1911 85.9854 53.5185C85.9854 54.211 85.5929 54.9043 85.0022 55.3654C81.9874 58.0219 77.7923 59.5781 73.2716 59.5781C63.8321 59.5781 56.2929 52.9412 56.2929 44.6244C56.2929 36.4263 63.8321 29.7869 73.2716 29.7869V29.7869ZM108.587 29.7869C110.357 29.7869 111.667 30.999 111.667 32.2111C111.667 33.5385 110.292 34.7522 108.587 34.7522C104.195 34.8667 100.133 36.2534 100.133 42.0265V56.9827C100.133 58.2524 98.7547 59.3475 97.379 59.3475C95.8702 59.3475 94.5605 58.2524 94.5605 56.9827V32.3849C94.5605 31.1134 95.8702 30.0166 97.379 30.0166C98.6925 30.0166 100.065 31.0566 100.133 32.2687C102.426 30.7108 105.376 29.8429 108.587 29.7869V29.7869ZM127.42 34.6946C121.063 34.6946 116.084 39.0827 116.084 44.6236C116.084 50.2255 121.063 54.6153 127.42 54.6153C133.714 54.6153 138.697 50.2255 138.697 44.6236C138.697 39.0827 133.714 34.6946 127.42 34.6946ZM189.354 34.6946C182.997 34.6946 178.018 39.0827 178.018 44.6236C178.018 50.2255 182.997 54.6153 189.354 54.6153C195.648 54.6153 200.63 50.2255 200.63 44.6236C200.63 39.0827 195.648 34.6946 189.354 34.6946ZM73.2716 34.6954C68.1258 34.6954 63.8972 37.568 62.4563 41.5722H84.0199C82.5772 37.568 78.3523 34.6954 73.2716 34.6954V34.6954ZM217.148 29.7876C217.444 29.7876 217.705 30.019 217.705 30.28V33.7985C217.705 33.979 217.546 34.1147 217.335 34.1147C217.132 34.1147 216.967 33.9723 216.967 33.7985V31.1455C216.792 31.5981 216.521 32.3101 216.317 32.8441C215.947 33.8163 215.932 33.8561 215.926 33.8663C215.843 34.0333 215.718 34.1206 215.559 34.1206C215.356 34.1206 215.238 33.9892 215.194 33.8663L214.145 31.1387V33.7985C214.145 33.979 213.986 34.1147 213.778 34.1147C213.574 34.1147 213.408 33.9723 213.408 33.7985V30.28C213.408 30.019 213.667 29.7876 213.963 29.7876C214.198 29.7876 214.418 29.9376 214.496 30.1504L215.559 32.9026L216.61 30.1487C216.689 29.9376 216.91 29.7876 217.148 29.7876V29.7876ZM212.426 29.8102C212.63 29.8102 212.783 29.9509 212.783 30.1382C212.783 30.3179 212.622 30.4629 212.426 30.4629H211.572V33.7982C211.572 33.9788 211.414 34.1144 211.202 34.1144C211 34.1144 210.834 33.9728 210.834 33.7982V30.4629H209.992C209.795 30.4629 209.635 30.3179 209.635 30.1382C209.635 29.9509 209.788 29.8102 209.992 29.8102H212.426Z" fill="#D72A7F"/>
<path fill-rule="evenodd" clip-rule="evenodd" d="M27.7577 65.7243C25.235 65.7243 23.188 67.5314 23.188 69.7708V77.2897C23.188 79.5291 25.235 81.3363 27.7577 81.3363H36.25C38.7746 81.3363 40.8205 79.5291 40.8205 77.2897V69.7708C40.8205 67.5314 38.7746 65.7243 36.25 65.7243H27.7577Z" fill="#004691"/>
<path fill-rule="evenodd" clip-rule="evenodd" d="M9.78622 48.1298C7.65131 48.1298 5.91516 49.6625 5.91516 51.5586V57.9141C5.91516 59.8094 7.65131 61.3392 9.78622 61.3392H16.9671C19.102 61.3392 20.8357 59.8094 20.8357 57.9141V51.5586C20.8357 49.6625 19.102 48.1298 16.9671 48.1298H9.78622Z" fill="#B22787"/>
<path fill-rule="evenodd" clip-rule="evenodd" d="M6.32742 18.2439C2.83497 18.2439 0 20.7539 0 23.846V34.2584C0 37.3573 2.83497 39.8597 6.32742 39.8597H18.0871C21.5815 39.8597 24.4162 37.3573 24.4162 34.2584V23.846C24.4162 20.7539 21.5815 18.2439 18.0871 18.2439H6.32742Z" fill="#71207A"/>
<path fill-rule="evenodd" clip-rule="evenodd" d="M34.6738 0C31.5633 0 29.0475 2.2297 29.0475 4.97768V14.2342C29.0475 16.983 31.5633 19.2133 34.6738 19.2133H45.1263C48.2329 19.2133 50.7501 16.983 50.7501 14.2342V4.97768C50.7501 2.2297 48.2329 0 45.1263 0H34.6738Z" fill="#0D6DB7"/>
<path fill-rule="evenodd" clip-rule="evenodd" d="M61.4866 12.1521C59.7384 12.1521 58.3241 13.4087 58.3241 14.9572V20.159C58.3241 21.7017 59.7384 22.9597 61.4866 22.9597H67.371C69.1172 22.9597 70.531 21.7017 70.531 20.159V14.9572C70.531 13.4087 69.1172 12.1521 67.371 12.1521H61.4866Z" fill="#004691"/>
</svg>
